STARTFONT 2.1
FONT -hell-Monobook-Bold-R-Normal--28-280-72-72-M-140-ISO10646-1
SIZE 28 72 72
FONTBOUNDINGBOX 14 28 0 -6
STARTPROPERTIES 23
FOUNDRY "hell"
FAMILY_NAME "Monobook"
WEIGHT_NAME "Bold"
SLANT "R"
SETWIDTH_NAME "Normal"
ADD_STYLE_NAME ""
PIXEL_SIZE 28
POINT_SIZE 280
RESOLUTION_X 72
RESOLUTION_Y 72
SPACING "M"
AVERAGE_WIDTH 140
CHARSET_REGISTRY "ISO10646"
CHARSET_ENCODING "1"
MIN_SPACE 0
COPYRIGHT "Copyright © 2008, dclxvi"
WEIGHT 10
X_HEIGHT 22
QUAD_WIDTH 14
DEFAULT_CHAR 0
FONT_DESCENT 6
FONT_ASCENT 22
_GBDFED_INFO "Edited with gbdfed 1.6."
ENDPROPERTIES
CHARS 754
STARTCHAR char0
ENCODING 0
SWIDTH 500 0
DWIDTH 14 0
BBX 11 18 1 0
BITMAP
F1E0
F1E0
C060
C060
0000
0000
0000
C060
C060
C060
C060
0000
0000
0000
C060
C060
F1E0
F1E0
ENDCHAR
STARTCHAR space
ENCODING 32
SWIDTH 500 0
DWIDTH 14 0
BBX 0 0 0 0
BITMAP
ENDCHAR
STARTCHAR exclam
ENCODING 33
SWIDTH 500 0
DWIDTH 14 0
BBX 2 18 6 0
BITMAP
C0
C0
C0
C0
C0
C0
C0
C0
C0
C0
C0
C0
00
00
C0
C0
C0
C0
ENDCHAR
STARTCHAR quotedbl
ENCODING 34
SWIDTH 500 0
DWIDTH 14 0
BBX 8 6 2 14
BITMAP
E7
E7
63
63
63
63
ENDCHAR
STARTCHAR numbersign
ENCODING 35
SWIDTH 500 0
DWIDTH 14 0
BBX 11 18 1 0
BITMAP
3180
3180
3180
3180
FFE0
FFE0
3180
3180
3180
3180
3180
3180
FFE0
FFE0
3180
3180
3180
3180
ENDCHAR
STARTCHAR dollar
ENCODING 36
SWIDTH 500 0
DWIDTH 14 0
BBX 10 20 2 -1
BITMAP
0C00
0C00
FFC0
FFC0
CCC0
CCC0
CC00
CC00
CC00
FFC0
FFC0
0CC0
0CC0
0CC0
CCC0
CCC0
FFC0
FFC0
0C00
0C00
ENDCHAR
STARTCHAR percent
ENCODING 37
SWIDTH 500 0
DWIDTH 14 0
BBX 12 18 1 0
BITMAP
FC60
FC60
CCC0
FCC0
FD80
0180
0300
0300
0600
0600
0C00
0C00
1800
1BF0
33F0
3330
63F0
63F0
ENDCHAR
STARTCHAR ampersand
ENCODING 38
SWIDTH 500 0
DWIDTH 14 0
BBX 12 22 1 -4
BITMAP
7F80
7F80
6180
6180
6180
6180
FF80
FF80
C180
C180
C180
C180
C180
C190
C1B0
C1E0
FFC0
FF80
0180
0180
01C0
01C0
ENDCHAR
STARTCHAR quotesingle
ENCODING 39
SWIDTH 500 0
DWIDTH 14 0
BBX 3 6 5 14
BITMAP
E0
E0
60
60
60
60
ENDCHAR
STARTCHAR parenleft
ENCODING 40
SWIDTH 500 0
DWIDTH 14 0
BBX 5 18 4 0
BITMAP
18
30
60
C0
C0
C0
C0
C0
C0
C0
C0
C0
C0
C0
C0
60
30
18
ENDCHAR
STARTCHAR parenright
ENCODING 41
SWIDTH 500 0
DWIDTH 14 0
BBX 5 18 4 0
BITMAP
C0
60
30
18
18
18
18
18
18
18
18
18
18
18
18
30
60
C0
ENDCHAR
STARTCHAR asterisk
ENCODING 42
SWIDTH 500 0
DWIDTH 14 0
BBX 11 10 1 4
BITMAP
71C0
3B80
1F00
0E00
FFE0
FFE0
0E00
1F00
3B80
71C0
ENDCHAR
STARTCHAR plus
ENCODING 43
SWIDTH 500 0
DWIDTH 14 0
BBX 12 12 1 3
BITMAP
0600
0600
0600
0600
0600
FFF0
FFF0
0600
0600
0600
0600
0600
ENDCHAR
STARTCHAR comma
ENCODING 44
SWIDTH 500 0
DWIDTH 14 0
BBX 3 6 5 -2
BITMAP
E0
E0
60
60
60
60
ENDCHAR
STARTCHAR hyphen
ENCODING 45
SWIDTH 500 0
DWIDTH 14 0
BBX 11 2 1 8
BITMAP
FFE0
FFE0
ENDCHAR
STARTCHAR period
ENCODING 46
SWIDTH 500 0
DWIDTH 14 0
BBX 2 4 6 0
BITMAP
C0
C0
C0
C0
ENDCHAR
STARTCHAR slash
ENCODING 47
SWIDTH 500 0
DWIDTH 14 0
BBX 10 18 2 0
BITMAP
00C0
00C0
0180
0180
0300
0300
0600
0600
0C00
0C00
1800
1800
3000
3000
6000
6000
C000
C000
ENDCHAR
STARTCHAR zero
ENCODING 48
SWIDTH 500 0
DWIDTH 14 0
BBX 11 18 1 0
BITMAP
FFE0
FFE0
C060
C060
C0E0
C1E0
C3E0
C760
CE60
DC60
F860
F060
E060
C060
C060
C060
FFE0
FFE0
ENDCHAR
STARTCHAR one
ENCODING 49
SWIDTH 500 0
DWIDTH 14 0
BBX 9 18 2 0
BITMAP
7C00
FC00
8C00
0C00
0C00
0C00
0C00
0C00
0C00
0C00
0C00
0D80
0D80
0D80
0D80
0D80
7F80
7F80
ENDCHAR
STARTCHAR two
ENCODING 50
SWIDTH 500 0
DWIDTH 14 0
BBX 11 18 1 0
BITMAP
FFE0
FFE0
0060
0060
0060
0060
0060
0060
FFE0
FFE0
C000
C000
C000
C000
C000
C000
FFE0
FFE0
ENDCHAR
STARTCHAR three
ENCODING 51
SWIDTH 500 0
DWIDTH 14 0
BBX 11 18 1 0
BITMAP
FFE0
FFE0
0060
0060
0060
0060
0060
0060
1FC0
1FC0
0060
0060
0060
0060
0060
0060
FFE0
FFE0
ENDCHAR
STARTCHAR four
ENCODING 52
SWIDTH 500 0
DWIDTH 14 0
BBX 12 18 1 0
BITMAP
C000
C000
C0C0
C0C0
C0C0
C0C0
C0C0
C0C0
C0C0
C0C0
C0C0
C0C0
FFF0
FFF0
00C0
00C0
00C0
00C0
ENDCHAR
STARTCHAR five
ENCODING 53
SWIDTH 500 0
DWIDTH 14 0
BBX 12 18 0 0
BITMAP
7FF0
7FF0
6000
6000
6000
6000
6000
7FF0
7FF0
0030
0030
0030
0030
0030
0030
8030
FFF0
7FF0
ENDCHAR
STARTCHAR six
ENCODING 54
SWIDTH 500 0
DWIDTH 14 0
BBX 11 18 1 0
BITMAP
FC00
FC00
C000
C000
C000
C000
C000
FFE0
FFE0
C060
C060
C060
C060
C060
C060
C060
FFE0
FFE0
ENDCHAR
STARTCHAR seven
ENCODING 55
SWIDTH 500 0
DWIDTH 14 0
BBX 11 18 1 0
BITMAP
FFE0
FFE0
C060
C060
0060
00E0
01C0
0380
0700
0600
0600
0600
0600
0600
0600
0600
0600
0600
ENDCHAR
STARTCHAR eight
ENCODING 56
SWIDTH 500 0
DWIDTH 14 0
BBX 11 18 1 0
BITMAP
7FC0
7FC0
60C0
60C0
60C0
60C0
FFE0
FFE0
C060
C060
C060
C060
C060
C060
C060
C060
FFE0
FFE0
ENDCHAR
STARTCHAR nine
ENCODING 57
SWIDTH 500 0
DWIDTH 14 0
BBX 11 18 1 0
BITMAP
FFE0
FFE0
C060
C060
C060
C060
C060
C060
C060
FFE0
FFE0
0060
0060
0060
0060
0060
07E0
07E0
ENDCHAR
STARTCHAR colon
ENCODING 58
SWIDTH 500 0
DWIDTH 14 0
BBX 2 13 6 0
BITMAP
C0
C0
C0
C0
00
00
00
00
00
C0
C0
C0
C0
ENDCHAR
STARTCHAR semicolon
ENCODING 59
SWIDTH 500 0
DWIDTH 14 0
BBX 3 15 5 -2
BITMAP
60
60
60
60
00
00
00
00
00
E0
E0
60
60
60
60
ENDCHAR
STARTCHAR less
ENCODING 60
SWIDTH 500 0
DWIDTH 14 0
BBX 11 17 1 0
BITMAP
00E0
01C0
0380
0700
0E00
1C00
3800
7000
E000
7000
3800
1C00
0E00
0700
0380
01C0
00E0
ENDCHAR
STARTCHAR equal
ENCODING 61
SWIDTH 500 0
DWIDTH 14 0
BBX 11 8 1 5
BITMAP
FFE0
FFE0
0000
0000
0000
0000
FFE0
FFE0
ENDCHAR
STARTCHAR greater
ENCODING 62
SWIDTH 500 0
DWIDTH 14 0
BBX 11 17 1 0
BITMAP
E000
7000
3800
1C00
0E00
0700
0380
01C0
00E0
01C0
0380
0700
0E00
1C00
3800
7000
E000
ENDCHAR
STARTCHAR question
ENCODING 63
SWIDTH 500 0
DWIDTH 14 0
BBX 11 18 1 0
BITMAP
FFE0
FFE0
C060
C060
C060
C060
00C0
0180
0300
0600
0600
0600
0000
0000
0600
0600
0600
0600
ENDCHAR
STARTCHAR at
ENCODING 64
SWIDTH 500 0
DWIDTH 14 0
BBX 12 18 1 0
BITMAP
FFF0
FFF0
C030
C030
CFF0
CFF0
CC30
CC30
CC30
CC30
CC30
CC30
CFF0
CFF0
C000
C000
FFF0
FFF0
ENDCHAR
STARTCHAR A
ENCODING 65
SWIDTH 500 0
DWIDTH 14 0
BBX 11 18 1 0
BITMAP
03E0
07E0
0E60
1C60
3860
7060
E060
C060
C060
FFE0
FFE0
C060
C060
C060
C060
C060
C060
C060
ENDCHAR
STARTCHAR B
ENCODING 66
SWIDTH 500 0
DWIDTH 14 0
BBX 11 18 1 0
BITMAP
FFE0
FFE0
C060
C060
C060
C060
C060
FF80
FF80
C060
C060
C060
C060
C060
C060
C060
FFE0
FFE0
ENDCHAR
STARTCHAR C
ENCODING 67
SWIDTH 500 0
DWIDTH 14 0
BBX 11 18 1 0
BITMAP
FFE0
FFE0
C060
C000
C000
C000
C000
C000
C000
C000
C000
C000
C000
C000
C000
C060
FFE0
FFE0
ENDCHAR
STARTCHAR D
ENCODING 68
SWIDTH 500 0
DWIDTH 14 0
BBX 11 18 1 0
BITMAP
FC00
FE00
C700
C380
C1C0
C0E0
C060
C060
C060
C060
C060
C060
C060
C060
C060
C060
FFE0
FFC0
ENDCHAR
STARTCHAR E
ENCODING 69
SWIDTH 500 0
DWIDTH 14 0
BBX 11 18 1 0
BITMAP
FFE0
FFE0
C000
C000
C000
C000
C000
C000
FFC0
FFC0
C000
C000
C000
C000
C000
C000
FFE0
FFE0
ENDCHAR
STARTCHAR F
ENCODING 70
SWIDTH 500 0
DWIDTH 14 0
BBX 11 18 1 0
BITMAP
FFE0
FFE0
C000
C000
C000
C000
C000
C000
FFC0
FFC0
C000
C000
C000
C000
C000
C000
C000
C000
ENDCHAR
STARTCHAR G
ENCODING 71
SWIDTH 500 0
DWIDTH 14 0
BBX 11 18 1 0
BITMAP
FFE0
FFE0
C060
C000
C000
C000
C000
C000
C1E0
C1E0
C060
C060
C060
C060
C060
C060
FFE0
FFE0
ENDCHAR
STARTCHAR H
ENCODING 72
SWIDTH 500 0
DWIDTH 14 0
BBX 11 18 1 0
BITMAP
C060
C060
C060
C060
C060
C060
C060
C060
FFE0
FFE0
C060
C060
C060
C060
C060
C060
C060
C060
ENDCHAR
STARTCHAR I
ENCODING 73
SWIDTH 500 0
DWIDTH 14 0
BBX 7 18 4 0
BITMAP
FC
FC
30
30
30
30
30
30
30
30
30
36
36
36
36
36
FE
FE
ENDCHAR
STARTCHAR J
ENCODING 74
SWIDTH 500 0
DWIDTH 14 0
BBX 12 18 1 0
BITMAP
03F0
03F0
00C0
00C0
00C0
00C0
00C0
00C0
00C0
00C0
00C0
00C0
00C0
00C0
C0C0
C0C0
FFC0
FFC0
ENDCHAR
STARTCHAR K
ENCODING 75
SWIDTH 500 0
DWIDTH 14 0
BBX 11 18 1 0
BITMAP
C060
C0E0
C1C0
C380
C700
CE00
DC00
F800
FFE0
FFE0
C060
C060
C060
C060
C060
C060
C060
C060
ENDCHAR
STARTCHAR L
ENCODING 76
SWIDTH 500 0
DWIDTH 14 0
BBX 11 18 1 0
BITMAP
C000
C000
C000
C000
C000
C000
C000
C000
C000
C000
C000
C000
C000
C000
C000
C060
FFE0
FFE0
ENDCHAR
STARTCHAR M
ENCODING 77
SWIDTH 500 0
DWIDTH 14 0
BBX 12 18 1 0
BITMAP
FFF0
FFF0
C630
C630
C630
C630
C630
C630
C630
C630
C630
C630
C030
C030
C030
C030
C030
C030
ENDCHAR
STARTCHAR N
ENCODING 78
SWIDTH 500 0
DWIDTH 14 0
BBX 11 18 1 0
BITMAP
C7E0
CFE0
D860
F060
E060
C060
C060
C060
C060
C060
C060
C060
C060
C060
C060
C060
C060
C060
ENDCHAR
STARTCHAR O
ENCODING 79
SWIDTH 500 0
DWIDTH 14 0
BBX 11 18 1 0
BITMAP
FFE0
FFE0
C060
C060
C060
C060
C060
C060
C060
C060
C060
C060
C060
C060
C060
C060
FFE0
FFE0
ENDCHAR
STARTCHAR P
ENCODING 80
SWIDTH 500 0
DWIDTH 14 0
BBX 11 18 1 0
BITMAP
FFE0
FFE0
C060
C060
C060
C060
C060
C060
C060
FFE0
FFE0
C000
C000
C000
C000
C000
C000
C000
ENDCHAR
STARTCHAR Q
ENCODING 81
SWIDTH 500 0
DWIDTH 14 0
BBX 11 21 1 -3
BITMAP
FFE0
FFE0
C060
C060
C060
C060
C060
C060
C060
C060
C060
C060
C060
C060
C660
C660
FFE0
FFE0
0600
07E0
07E0
ENDCHAR
STARTCHAR R
ENCODING 82
SWIDTH 500 0
DWIDTH 14 0
BBX 11 18 1 0
BITMAP
FFE0
FFE0
C060
C060
C060
C060
C060
C060
C060
FFE0
FFE0
C700
C380
C380
C1C0
C1C0
C0E0
C0E0
ENDCHAR
STARTCHAR S
ENCODING 83
SWIDTH 500 0
DWIDTH 14 0
BBX 11 18 1 0
BITMAP
FFE0
FFE0
C060
C060
C000
C000
C000
C000
FFE0
FFE0
0060
0060
0060
0060
C060
C060
FFE0
FFE0
ENDCHAR
STARTCHAR T
ENCODING 84
SWIDTH 500 0
DWIDTH 14 0
BBX 12 18 1 0
BITMAP
FFF0
FFF0
0600
0600
0600
0600
0600
0600
0600
0600
0600
0600
0600
0600
0600
0600
0600
0600
ENDCHAR
STARTCHAR U
ENCODING 85
SWIDTH 500 0
DWIDTH 14 0
BBX 11 18 1 0
BITMAP
C060
C060
C060
C060
C060
C060
C060
C060
C060
C060
C060
C060
C060
C0E0
C1E0
C360
FE60
FC60
ENDCHAR
STARTCHAR V
ENCODING 86
SWIDTH 500 0
DWIDTH 14 0
BBX 11 18 1 0
BITMAP
C060
C060
C060
C060
C060
C060
C060
C060
C060
C060
C060
C060
C0C0
C180
C300
C600
CC00
F800
ENDCHAR
STARTCHAR W
ENCODING 87
SWIDTH 500 0
DWIDTH 14 0
BBX 12 18 1 0
BITMAP
C030
C030
C030
C030
C030
C030
C030
C630
C630
C630
C630
C630
C630
C630
C630
C630
FFF0
FFF0
ENDCHAR
STARTCHAR X
ENCODING 88
SWIDTH 500 0
DWIDTH 14 0
BBX 11 18 1 0
BITMAP
C060
C060
C060
C060
C060
60C0
3180
1B00
0E00
0E00
1B00
3180
60C0
C060
C060
C060
C060
C060
ENDCHAR
STARTCHAR Y
ENCODING 89
SWIDTH 500 0
DWIDTH 14 0
BBX 11 18 1 0
BITMAP
C060
C060
C060
C060
C060
C060
C060
C060
C060
FFE0
FFE0
0060
0060
0060
0060
0060
7FE0
7FE0
ENDCHAR
STARTCHAR Z
ENCODING 90
SWIDTH 500 0
DWIDTH 14 0
BBX 11 18 1 0
BITMAP
FFE0
FFE0
0060
0060
00E0
01C0
0380
0700
0E00
1C00
3800
7000
E000
C000
C000
C000
FFE0
FFE0
ENDCHAR
STARTCHAR bracketleft
ENCODING 91
SWIDTH 500 0
DWIDTH 14 0
BBX 6 18 4 0
BITMAP
FC
FC
C0
C0
C0
C0
C0
C0
C0
C0
C0
C0
C0
C0
C0
C0
FC
FC
ENDCHAR
STARTCHAR backslash
ENCODING 92
SWIDTH 500 0
DWIDTH 14 0
BBX 10 18 2 0
BITMAP
C000
C000
6000
6000
3000
3000
1800
1800
0C00
0C00
0600
0600
0300
0300
0180
0180
00C0
00C0
ENDCHAR
STARTCHAR bracketright
ENCODING 93
SWIDTH 500 0
DWIDTH 14 0
BBX 6 18 4 0
BITMAP
FC
FC
0C
0C
0C
0C
0C
0C
0C
0C
0C
0C
0C
0C
0C
0C
FC
FC
ENDCHAR
STARTCHAR asciicircum
ENCODING 94
SWIDTH 500 0
DWIDTH 14 0
BBX 10 5 2 15
BITMAP
0C00
1E00
3F00
7380
E1C0
ENDCHAR
STARTCHAR underscore
ENCODING 95
SWIDTH 500 0
DWIDTH 14 0
BBX 11 2 1 -3
BITMAP
FFE0
FFE0
ENDCHAR
STARTCHAR grave
ENCODING 96
SWIDTH 500 0
DWIDTH 14 0
BBX 3 4 4 18
BITMAP
C0
C0
E0
E0
ENDCHAR
STARTCHAR a
ENCODING 97
SWIDTH 500 0
DWIDTH 14 0
BBX 11 13 1 0
BITMAP
3FE0
3FE0
0060
0060
FFE0
FFE0
C060
C060
C060
C060
C060
FFE0
FFE0
ENDCHAR
STARTCHAR b
ENCODING 98
SWIDTH 500 0
DWIDTH 14 0
BBX 11 18 1 0
BITMAP
C000
C000
C000
C000
C000
FFE0
FFE0
C060
C060
C060
C060
C060
C060
C060
C060
C060
FFE0
FFE0
ENDCHAR
STARTCHAR c
ENCODING 99
SWIDTH 500 0
DWIDTH 14 0
BBX 11 13 1 0
BITMAP
FFE0
FFE0
C000
C000
C000
C000
C000
C000
C000
C000
C000
FFE0
FFE0
ENDCHAR
STARTCHAR d
ENCODING 100
SWIDTH 500 0
DWIDTH 14 0
BBX 11 18 1 0
BITMAP
0060
0060
0060
0060
0060
FFE0
FFE0
C060
C060
C060
C060
C060
C060
C060
C060
C060
FFE0
FFE0
ENDCHAR
STARTCHAR e
ENCODING 101
SWIDTH 500 0
DWIDTH 14 0
BBX 11 13 1 0
BITMAP
FFE0
FFE0
C060
C060
C060
FFE0
FFE0
C000
C000
C000
C000
FFC0
FFC0
ENDCHAR
STARTCHAR f
ENCODING 102
SWIDTH 500 0
DWIDTH 14 0
BBX 9 18 3 0
BITMAP
3F80
3F80
3000
3000
3000
FE00
FE00
3000
3000
3000
3000
3000
3000
3000
3000
3000
3000
3000
ENDCHAR
STARTCHAR g
ENCODING 103
SWIDTH 500 0
DWIDTH 14 0
BBX 11 18 1 -5
BITMAP
FFE0
FFE0
C060
C060
C060
C060
C060
C060
C060
C060
C060
FFE0
FFE0
0060
0060
0060
7FE0
7FE0
ENDCHAR
STARTCHAR h
ENCODING 104
SWIDTH 500 0
DWIDTH 14 0
BBX 11 18 1 0
BITMAP
C000
C000
C000
C000
C000
FFE0
FFE0
C060
C060
C060
C060
C060
C060
C060
C060
C060
C060
C060
ENDCHAR
STARTCHAR i
ENCODING 105
SWIDTH 500 0
DWIDTH 14 0
BBX 7 18 4 0
BITMAP
30
30
30
00
00
F0
F0
30
30
30
30
36
36
36
36
36
FE
FE
ENDCHAR
STARTCHAR j
ENCODING 106
SWIDTH 500 0
DWIDTH 14 0
BBX 9 23 2 -5
BITMAP
0180
0180
0180
0000
0000
0780
0780
0180
0180
0180
0180
0180
0180
0180
0180
0180
0180
0180
0180
C180
C180
FF80
FF80
ENDCHAR
STARTCHAR k
ENCODING 107
SWIDTH 500 0
DWIDTH 14 0
BBX 10 18 2 0
BITMAP
C000
C000
C000
C000
C000
C1C0
C380
C700
CE00
DC00
F800
FFC0
FFC0
C0C0
C0C0
C0C0
C0C0
C0C0
ENDCHAR
STARTCHAR l
ENCODING 108
SWIDTH 500 0
DWIDTH 14 0
BBX 7 18 4 0
BITMAP
F0
F0
30
30
30
30
30
30
30
30
30
36
36
36
36
36
FE
FE
ENDCHAR
STARTCHAR m
ENCODING 109
SWIDTH 500 0
DWIDTH 14 0
BBX 12 13 1 0
BITMAP
FFF0
FFF0
C630
C630
C630
C630
C630
C630
C030
C030
C030
C030
C030
ENDCHAR
STARTCHAR n
ENCODING 110
SWIDTH 500 0
DWIDTH 14 0
BBX 11 13 1 0
BITMAP
DFE0
FFE0
E060
C060
C060
C060
C060
C060
C060
C060
C060
C060
C060
ENDCHAR
STARTCHAR o
ENCODING 111
SWIDTH 500 0
DWIDTH 14 0
BBX 11 13 1 0
BITMAP
FFE0
FFE0
C060
C060
C060
C060
C060
C060
C060
C060
C060
FFE0
FFE0
ENDCHAR
STARTCHAR p
ENCODING 112
SWIDTH 500 0
DWIDTH 14 0
BBX 11 18 1 -5
BITMAP
FFE0
FFE0
C060
C060
C060
C060
C060
C060
C060
C060
C060
FFE0
FFE0
C000
C000
C000
C000
C000
ENDCHAR
STARTCHAR q
ENCODING 113
SWIDTH 500 0
DWIDTH 14 0
BBX 12 18 1 -5
BITMAP
FFE0
FFE0
C060
C060
C060
C060
C060
C060
C060
C060
C060
FFE0
FFE0
0060
0060
0060
0070
0070
ENDCHAR
STARTCHAR r
ENCODING 114
SWIDTH 500 0
DWIDTH 14 0
BBX 11 13 1 0
BITMAP
FFE0
FFE0
C060
C000
C000
C000
C000
C000
C000
C000
C000
C000
C000
ENDCHAR
STARTCHAR s
ENCODING 115
SWIDTH 500 0
DWIDTH 14 0
BBX 11 13 1 0
BITMAP
FFE0
FFE0
C000
C000
C000
FFE0
FFE0
0060
0060
0060
0060
FFE0
FFE0
ENDCHAR
STARTCHAR t
ENCODING 116
SWIDTH 500 0
DWIDTH 14 0
BBX 8 18 3 0
BITMAP
30
30
30
30
30
FE
FE
30
30
30
30
30
30
30
30
30
3F
3F
ENDCHAR
STARTCHAR u
ENCODING 117
SWIDTH 500 0
DWIDTH 14 0
BBX 11 13 1 0
BITMAP
C060
C060
C060
C060
C060
C060
C060
C060
C060
C060
C0E0
FFE0
FF60
ENDCHAR
STARTCHAR v
ENCODING 118
SWIDTH 500 0
DWIDTH 14 0
BBX 11 13 1 0
BITMAP
C060
C060
C060
C060
C060
C060
C060
C0C0
C180
C300
C600
CC00
F800
ENDCHAR
STARTCHAR w
ENCODING 119
SWIDTH 500 0
DWIDTH 14 0
BBX 12 13 1 0
BITMAP
C030
C030
C030
C030
C030
C630
C630
C630
C630
C630
C630
FFF0
FFF0
ENDCHAR
STARTCHAR x
ENCODING 120
SWIDTH 500 0
DWIDTH 14 0
BBX 11 13 1 0
BITMAP
C060
C060
E0E0
71C0
3B80
1F00
0E00
1F00
3B80
71C0
E0E0
C060
C060
ENDCHAR
STARTCHAR y
ENCODING 121
SWIDTH 500 0
DWIDTH 14 0
BBX 11 18 1 -5
BITMAP
C060
C060
C060
C060
C060
C060
C060
C060
C060
C060
C060
FFE0
FFE0
0060
0060
0060
7FE0
7FE0
ENDCHAR
STARTCHAR z
ENCODING 122
SWIDTH 500 0
DWIDTH 14 0
BBX 11 13 1 0
BITMAP
FFE0
FFE0
00E0
01C0
0380
0700
0E00
1C00
3800
7000
E000
FFE0
FFE0
ENDCHAR
STARTCHAR braceleft
ENCODING 123
SWIDTH 500 0
DWIDTH 14 0
BBX 7 18 3 0
BITMAP
3E
3E
30
30
30
30
30
30
E0
E0
30
30
30
30
30
30
3E
3E
ENDCHAR
STARTCHAR bar
ENCODING 124
SWIDTH 500 0
DWIDTH 14 0
BBX 2 18 6 0
BITMAP
C0
C0
C0
C0
C0
C0
C0
C0
C0
C0
C0
C0
C0
C0
C0
C0
C0
C0
ENDCHAR
STARTCHAR braceright
ENCODING 125
SWIDTH 500 0
DWIDTH 14 0
BBX 7 18 3 0
BITMAP
F8
F8
18
18
18
18
18
18
0E
0E
18
18
18
18
18
18
F8
F8
ENDCHAR
STARTCHAR asciitilde
ENCODING 126
SWIDTH 500 0
DWIDTH 14 0
BBX 11 5 1 15
BITMAP
FC60
FC60
C460
C7E0
C7E0
ENDCHAR
STARTCHAR nbspace
ENCODING 160
SWIDTH 500 0
DWIDTH 14 0
BBX 0 0 0 0
BITMAP
ENDCHAR
STARTCHAR exclamdown
ENCODING 161
SWIDTH 500 0
DWIDTH 14 0
BBX 2 18 6 0
BITMAP
C0
C0
C0
C0
00
00
C0
C0
C0
C0
C0
C0
C0
C0
C0
C0
C0
C0
ENDCHAR
STARTCHAR cent
ENCODING 162
SWIDTH 500 0
DWIDTH 14 0
BBX 10 17 2 -2
BITMAP
0C00
0C00
FFC0
FFC0
CC00
CC00
CC00
CC00
CC00
CC00
CC00
CC00
CC00
FFC0
FFC0
0C00
0C00
ENDCHAR
STARTCHAR sterling
ENCODING 163
SWIDTH 500 0
DWIDTH 14 0
BBX 10 18 2 0
BITMAP
3F80
7F80
6180
6180
6000
6000
6000
6000
FE00
FE00
6000
6000
6000
6000
60C0
60C0
FFC0
FFC0
ENDCHAR
STARTCHAR currency
ENCODING 164
SWIDTH 500 0
DWIDTH 14 0
BBX 12 13 1 2
BITMAP
C030
E070
7FE0
7FE0
6060
6060
6060
6060
6060
7FE0
7FE0
E070
C030
ENDCHAR
STARTCHAR yen
ENCODING 165
SWIDTH 500 0
DWIDTH 14 0
BBX 12 18 1 0
BITMAP
C030
C030
6060
6060
30C0
30C0
1980
1980
0F00
0600
7FE0
7FE0
0600
0600
7FE0
7FE0
0600
0600
ENDCHAR
STARTCHAR brokenbar
ENCODING 166
SWIDTH 500 0
DWIDTH 14 0
BBX 2 18 6 0
BITMAP
C0
C0
C0
C0
C0
C0
C0
00
00
00
00
C0
C0
C0
C0
C0
C0
C0
ENDCHAR
STARTCHAR section
ENCODING 167
SWIDTH 500 0
DWIDTH 14 0
BBX 9 20 2 -1
BITMAP
FF80
FF80
C180
C000
C000
FF80
FF80
C180
C180
C180
C180
C180
C180
FF80
FF80
0180
0180
C180
FF80
FF80
ENDCHAR
STARTCHAR dieresis
ENCODING 168
SWIDTH 500 0
DWIDTH 14 0
BBX 7 3 3 19
BITMAP
C6
C6
C6
ENDCHAR
STARTCHAR copyright
ENCODING 169
SWIDTH 500 0
DWIDTH 14 0
BBX 13 14 0 1
BITMAP
7FF0
FFF8
C018
DFD8
DFD8
D818
D818
D818
D818
DFD8
DFD8
C018
FFF8
7FF0
ENDCHAR
STARTCHAR ordfeminine
ENCODING 170
SWIDTH 500 0
DWIDTH 14 0
BBX 10 13 2 8
BITMAP
7F00
7F80
00C0
3FC0
7FC0
C0C0
C0C0
C0C0
7FC0
3FC0
0000
FFC0
FFC0
ENDCHAR
STARTCHAR guillemotleft
ENCODING 171
SWIDTH 500 0
DWIDTH 14 0
BBX 14 13 0 0
BITMAP
039C
0738
0E70
1CE0
39C0
7380
E700
7380
39C0
1CE0
0E70
0738
039C
ENDCHAR
STARTCHAR logicalnot
ENCODING 172
SWIDTH 500 0
DWIDTH 14 0
BBX 11 7 1 5
BITMAP
FFE0
FFE0
0060
0060
0060
0060
0060
ENDCHAR
STARTCHAR softhyphen
ENCODING 173
SWIDTH 500 0
DWIDTH 14 0
BBX 10 2 2 8
BITMAP
FFC0
FFC0
ENDCHAR
STARTCHAR registered
ENCODING 174
SWIDTH 500 0
DWIDTH 14 0
BBX 13 14 0 1
BITMAP
7FF0
FFF8
C018
DFD8
DFD8
D8D8
D8D8
DFD8
DF98
D8D8
D8D8
C018
FFF8
7FF0
ENDCHAR
STARTCHAR macron
ENCODING 175
SWIDTH 500 0
DWIDTH 14 0
BBX 7 2 3 20
BITMAP
FE
FE
ENDCHAR
STARTCHAR degree
ENCODING 176
SWIDTH 500 0
DWIDTH 14 0
BBX 7 7 3 13
BITMAP
FE
FE
C6
C6
C6
FE
FE
ENDCHAR
STARTCHAR plusminus
ENCODING 177
SWIDTH 500 0
DWIDTH 14 0
BBX 12 15 1 0
BITMAP
0600
0600
0600
0600
0600
FFF0
FFF0
0600
0600
0600
0600
0600
0000
FFF0
FFF0
ENDCHAR
STARTCHAR twosuperior
ENCODING 178
SWIDTH 500 0
DWIDTH 14 0
BBX 7 8 3 12
BITMAP
FE
FE
06
FE
FE
C0
FE
FE
ENDCHAR
STARTCHAR threesuperior
ENCODING 179
SWIDTH 500 0
DWIDTH 14 0
BBX 7 8 3 12
BITMAP
FE
FE
06
FC
FE
06
FE
FE
ENDCHAR
STARTCHAR acute
ENCODING 180
SWIDTH 500 0
DWIDTH 14 0
BBX 5 3 5 19
BITMAP
38
70
E0
ENDCHAR
STARTCHAR mu
ENCODING 181
SWIDTH 500 0
DWIDTH 14 0
BBX 11 18 1 -5
BITMAP
C060
C060
C060
C060
C060
C060
C060
C060
C0E0
C1E0
C3E0
FF60
FE60
C000
C000
C000
C000
C000
ENDCHAR
STARTCHAR paragraph
ENCODING 182
SWIDTH 500 0
DWIDTH 14 0
BBX 12 18 1 0
BITMAP
FFF0
FFF0
C630
C630
C630
C630
C630
C630
C630
FE30
FE30
0630
0630
0630
0630
0630
0630
0630
ENDCHAR
STARTCHAR periodcentered
ENCODING 183
SWIDTH 500 0
DWIDTH 14 0
BBX 2 4 6 6
BITMAP
C0
C0
C0
C0
ENDCHAR
STARTCHAR cedilla
ENCODING 184
SWIDTH 500 0
DWIDTH 14 0
BBX 4 5 3 -5
BITMAP
30
30
30
60
C0
ENDCHAR
STARTCHAR onesuperior
ENCODING 185
SWIDTH 500 0
DWIDTH 14 0
BBX 6 8 4 12
BITMAP
F0
B0
30
30
34
34
FC
FC
ENDCHAR
STARTCHAR ordmasculine
ENCODING 186
SWIDTH 500 0
DWIDTH 14 0
BBX 10 13 2 8
BITMAP
7F80
FFC0
C0C0
C0C0
C0C0
C0C0
C0C0
C0C0
FFC0
7F80
0000
FFC0
FFC0
ENDCHAR
STARTCHAR guillemotright
ENCODING 187
SWIDTH 500 0
DWIDTH 14 0
BBX 14 13 0 0
BITMAP
E700
7380
39C0
1CE0
0E70
0738
039C
0738
0E70
1CE0
39C0
7380
E700
ENDCHAR
STARTCHAR onequarter
ENCODING 188
SWIDTH 500 0
DWIDTH 14 0
BBX 12 19 1 -1
BITMAP
3000
7000
F000
3030
3070
30E0
31C0
3380
0700
0E00
1C00
3E00
7660
E660
C660
07F0
07F0
0060
0060
ENDCHAR
STARTCHAR onehalf
ENCODING 189
SWIDTH 500 0
DWIDTH 14 0
BBX 12 18 1 0
BITMAP
3000
7000
F030
3070
30E0
31C0
3380
3700
0E00
1C00
3FF0
77F0
E030
C7F0
07F0
0600
07F0
07F0
ENDCHAR
STARTCHAR threequarters
ENCODING 190
SWIDTH 500 0
DWIDTH 14 0
BBX 12 20 1 -2
BITMAP
FE00
FE00
0600
FC00
FE30
0670
FEE0
FFC0
0380
0700
0E00
1E00
3E60
7660
E660
C660
07F0
07F0
0060
0060
ENDCHAR
STARTCHAR questiondown
ENCODING 191
SWIDTH 500 0
DWIDTH 14 0
BBX 11 18 1 0
BITMAP
0C00
0C00
0C00
0C00
0000
0000
0C00
0C00
0C00
1800
3000
6000
C060
C060
C060
C060
FFE0
FFE0
ENDCHAR
STARTCHAR Agrave
ENCODING 192
SWIDTH 500 0
DWIDTH 14 0
BBX 11 22 1 0
BITMAP
3800
1C00
0E00
0000
03E0
07E0
0E60
1C60
3860
7060
E060
C060
C060
FFE0
FFE0
C060
C060
C060
C060
C060
C060
C060
ENDCHAR
STARTCHAR Aacute
ENCODING 193
SWIDTH 500 0
DWIDTH 14 0
BBX 11 22 1 0
BITMAP
0380
0700
0E00
0000
03E0
07E0
0E60
1C60
3860
7060
E060
C060
C060
FFE0
FFE0
C060
C060
C060
C060
C060
C060
C060
ENDCHAR
STARTCHAR Acircumflex
ENCODING 194
SWIDTH 500 0
DWIDTH 14 0
BBX 11 22 1 0
BITMAP
0E00
1F00
3B80
0000
03E0
07E0
0E60
1C60
3860
7060
E060
C060
C060
FFE0
FFE0
C060
C060
C060
C060
C060
C060
C060
ENDCHAR
STARTCHAR Atilde
ENCODING 195
SWIDTH 500 0
DWIDTH 14 0
BBX 11 22 1 0
BITMAP
7CC0
7FC0
67C0
0000
03E0
07E0
0E60
1C60
3860
7060
E060
C060
C060
FFE0
FFE0
C060
C060
C060
C060
C060
C060
C060
ENDCHAR
STARTCHAR Adieresis
ENCODING 196
SWIDTH 500 0
DWIDTH 14 0
BBX 11 22 1 0
BITMAP
3180
3180
3180
0000
03E0
07E0
0E60
1C60
3860
7060
E060
C060
C060
FFE0
FFE0
C060
C060
C060
C060
C060
C060
C060
ENDCHAR
STARTCHAR Aring
ENCODING 197
SWIDTH 500 0
DWIDTH 14 0
BBX 11 22 1 0
BITMAP
1F80
1980
1980
1F80
03E0
07E0
0E60
1C60
3860
7060
E060
C060
C060
FFE0
FFE0
C060
C060
C060
C060
C060
C060
C060
ENDCHAR
STARTCHAR AE
ENCODING 198
SWIDTH 500 0
DWIDTH 14 0
BBX 13 18 0 0
BITMAP
0FF8
1FF8
3300
6300
C300
C300
C300
C300
FFF0
FFF0
C300
C300
C300
C300
C300
C300
C3F8
C3F8
ENDCHAR
STARTCHAR Ccedilla
ENCODING 199
SWIDTH 500 0
DWIDTH 14 0
BBX 11 23 1 -5
BITMAP
FFE0
FFE0
C060
C000
C000
C000
C000
C000
C000
C000
C000
C000
C000
C000
C000
C060
FFE0
FFE0
0C00
0C00
0C00
1800
3000
ENDCHAR
STARTCHAR Egrave
ENCODING 200
SWIDTH 500 0
DWIDTH 14 0
BBX 11 22 1 0
BITMAP
3800
1C00
0E00
0000
FFE0
FFE0
C000
C000
C000
C000
C000
C000
FFC0
FFC0
C000
C000
C000
C000
C000
C000
FFE0
FFE0
ENDCHAR
STARTCHAR Eacute
ENCODING 201
SWIDTH 500 0
DWIDTH 14 0
BBX 11 22 1 0
BITMAP
0380
0700
0E00
0000
FFE0
FFE0
C000
C000
C000
C000
C000
C000
FFC0
FFC0
C000
C000
C000
C000
C000
C000
FFE0
FFE0
ENDCHAR
STARTCHAR Ecircumflex
ENCODING 202
SWIDTH 500 0
DWIDTH 14 0
BBX 11 22 1 0
BITMAP
0E00
1F00
3B80
0000
FFE0
FFE0
C000
C000
C000
C000
C000
C000
FFC0
FFC0
C000
C000
C000
C000
C000
C000
FFE0
FFE0
ENDCHAR
STARTCHAR Edieresis
ENCODING 203
SWIDTH 500 0
DWIDTH 14 0
BBX 11 22 1 0
BITMAP
3180
3180
3180
0000
FFE0
FFE0
C000
C000
C000
C000
C000
C000
FFC0
FFC0
C000
C000
C000
C000
C000
C000
FFE0
FFE0
ENDCHAR
STARTCHAR Igrave
ENCODING 204
SWIDTH 500 0
DWIDTH 14 0
BBX 7 22 4 0
BITMAP
E0
70
38
00
FC
FC
30
30
30
30
30
30
30
30
30
36
36
36
36
36
FE
FE
ENDCHAR
STARTCHAR Iacute
ENCODING 205
SWIDTH 500 0
DWIDTH 14 0
BBX 7 22 4 0
BITMAP
1C
38
70
00
FC
FC
30
30
30
30
30
30
30
30
30
36
36
36
36
36
FE
FE
ENDCHAR
STARTCHAR Icircumflex
ENCODING 206
SWIDTH 500 0
DWIDTH 14 0
BBX 8 22 3 0
BITMAP
38
7C
EE
00
7E
7E
18
18
18
18
18
18
18
18
18
1B
1B
1B
1B
1B
7F
7F
ENDCHAR
STARTCHAR Idieresis
ENCODING 207
SWIDTH 500 0
DWIDTH 14 0
BBX 8 22 3 0
BITMAP
C6
C6
C6
00
7E
7E
18
18
18
18
18
18
18
18
18
1B
1B
1B
1B
1B
7F
7F
ENDCHAR
STARTCHAR Eth
ENCODING 208
SWIDTH 500 0
DWIDTH 14 0
BBX 12 18 0 0
BITMAP
7E00
7F00
6380
61C0
60E0
6070
6030
6030
FE30
FE30
6030
6030
6030
6030
6030
6030
7FF0
7FE0
ENDCHAR
STARTCHAR Ntilde
ENCODING 209
SWIDTH 500 0
DWIDTH 14 0
BBX 11 22 1 0
BITMAP
7CC0
7FC0
67C0
0000
C7E0
CFE0
D860
F060
E060
C060
C060
C060
C060
C060
C060
C060
C060
C060
C060
C060
C060
C060
ENDCHAR
STARTCHAR Ograve
ENCODING 210
SWIDTH 500 0
DWIDTH 14 0
BBX 11 22 1 0
BITMAP
3800
1C00
0E00
0000
FFE0
FFE0
C060
C060
C060
C060
C060
C060
C060
C060
C060
C060
C060
C060
C060
C060
FFE0
FFE0
ENDCHAR
STARTCHAR Oacute
ENCODING 211
SWIDTH 500 0
DWIDTH 14 0
BBX 11 22 1 0
BITMAP
0380
0700
0E00
0000
FFE0
FFE0
C060
C060
C060
C060
C060
C060
C060
C060
C060
C060
C060
C060
C060
C060
FFE0
FFE0
ENDCHAR
STARTCHAR Ocircumflex
ENCODING 212
SWIDTH 500 0
DWIDTH 14 0
BBX 11 22 1 0
BITMAP
0E00
1F00
3B80
0000
FFE0
FFE0
C060
C060
C060
C060
C060
C060
C060
C060
C060
C060
C060
C060
C060
C060
FFE0
FFE0
ENDCHAR
STARTCHAR Otilde
ENCODING 213
SWIDTH 500 0
DWIDTH 14 0
BBX 11 22 1 0
BITMAP
7CC0
7FC0
67C0
0000
FFE0
FFE0
C060
C060
C060
C060
C060
C060
C060
C060
C060
C060
C060
C060
C060
C060
FFE0
FFE0
ENDCHAR
STARTCHAR Odieresis
ENCODING 214
SWIDTH 500 0
DWIDTH 14 0
BBX 11 22 1 0
BITMAP
3180
3180
3180
0000
FFE0
FFE0
C060
C060
C060
C060
C060
C060
C060
C060
C060
C060
C060
C060
C060
C060
FFE0
FFE0
ENDCHAR
STARTCHAR multiply
ENCODING 215
SWIDTH 500 0
DWIDTH 14 0
BBX 11 11 1 3
BITMAP
C060
E0E0
71C0
3B80
1F00
0E00
1F00
3B80
71C0
E0E0
C060
ENDCHAR
STARTCHAR Oslash
ENCODING 216
SWIDTH 500 0
DWIDTH 14 0
BBX 13 18 0 0
BITMAP
7FF0
7FF0
6030
6038
6038
6070
60F0
61F0
63B0
6730
6E30
7C30
7830
7030
E030
6030
7FF0
7FF0
ENDCHAR
STARTCHAR Ugrave
ENCODING 217
SWIDTH 500 0
DWIDTH 14 0
BBX 11 22 1 0
BITMAP
3800
1C00
0E00
0000
C060
C060
C060
C060
C060
C060
C060
C060
C060
C060
C060
C060
C060
C0E0
C1E0
C360
FE60
FC60
ENDCHAR
STARTCHAR Uacute
ENCODING 218
SWIDTH 500 0
DWIDTH 14 0
BBX 11 22 1 0
BITMAP
0380
0700
0E00
0000
C060
C060
C060
C060
C060
C060
C060
C060
C060
C060
C060
C060
C060
C0E0
C1E0
C360
FE60
FC60
ENDCHAR
STARTCHAR Ucircumflex
ENCODING 219
SWIDTH 500 0
DWIDTH 14 0
BBX 11 22 1 0
BITMAP
0E00
1F00
3B80
0000
C060
C060
C060
C060
C060
C060
C060
C060
C060
C060
C060
C060
C060
C0E0
C1E0
C360
FE60
FC60
ENDCHAR
STARTCHAR Udieresis
ENCODING 220
SWIDTH 500 0
DWIDTH 14 0
BBX 11 22 1 0
BITMAP
3180
3180
3180
0000
C060
C060
C060
C060
C060
C060
C060
C060
C060
C060
C060
C060
C060
C0E0
C1E0
C360
FE60
FC60
ENDCHAR
STARTCHAR Yacute
ENCODING 221
SWIDTH 500 0
DWIDTH 14 0
BBX 11 22 1 0
BITMAP
0380
0700
0E00
0000
C060
C060
C060
C060
C060
C060
C060
C060
C060
FFE0
FFE0
0060
0060
0060
0060
0060
7FE0
7FE0
ENDCHAR
STARTCHAR Thorn
ENCODING 222
SWIDTH 500 0
DWIDTH 14 0
BBX 11 18 1 0
BITMAP
C000
C000
C000
FFE0
FFE0
C060
C060
C060
C060
C060
C060
C060
FFE0
FFE0
C000
C000
C000
C000
ENDCHAR
STARTCHAR germandbls
ENCODING 223
SWIDTH 500 0
DWIDTH 14 0
BBX 11 20 1 -2
BITMAP
FF80
FF80
C180
C180
C180
C180
C180
FFE0
FFE0
C060
C060
C060
C060
C060
C060
C060
FFE0
FFE0
C000
C000
ENDCHAR
STARTCHAR agrave
ENCODING 224
SWIDTH 500 0
DWIDTH 14 0
BBX 11 17 1 0
BITMAP
3800
1C00
0E00
0000
3FE0
3FE0
0060
0060
FFE0
FFE0
C060
C060
C060
C060
C060
FFE0
FFE0
ENDCHAR
STARTCHAR aacute
ENCODING 225
SWIDTH 500 0
DWIDTH 14 0
BBX 11 17 1 0
BITMAP
0380
0700
0E00
0000
3FE0
3FE0
0060
0060
FFE0
FFE0
C060
C060
C060
C060
C060
FFE0
FFE0
ENDCHAR
STARTCHAR acircumflex
ENCODING 226
SWIDTH 500 0
DWIDTH 14 0
BBX 11 17 1 0
BITMAP
0E00
1F00
3B80
0000
3FE0
3FE0
0060
0060
FFE0
FFE0
C060
C060
C060
C060
C060
FFE0
FFE0
ENDCHAR
STARTCHAR atilde
ENCODING 227
SWIDTH 500 0
DWIDTH 14 0
BBX 11 17 1 0
BITMAP
7CC0
7FC0
67C0
0000
3FE0
3FE0
0060
0060
FFE0
FFE0
C060
C060
C060
C060
C060
FFE0
FFE0
ENDCHAR
STARTCHAR adieresis
ENCODING 228
SWIDTH 500 0
DWIDTH 14 0
BBX 11 17 1 0
BITMAP
3180
3180
3180
0000
3FE0
3FE0
0060
0060
FFE0
FFE0
C060
C060
C060
C060
C060
FFE0
FFE0
ENDCHAR
STARTCHAR aring
ENCODING 229
SWIDTH 500 0
DWIDTH 14 0
BBX 11 17 1 0
BITMAP
1F80
1980
1980
1F80
3FE0
3FE0
0060
0060
FFE0
FFE0
C060
C060
C060
C060
C060
FFE0
FFE0
ENDCHAR
STARTCHAR ae
ENCODING 230
SWIDTH 500 0
DWIDTH 14 0
BBX 13 13 0 0
BITMAP
7FF8
7FF8
0318
0318
FF18
FF18
C3F8
C3F8
C300
C300
C300
FFF0
FFF0
ENDCHAR
STARTCHAR ccedilla
ENCODING 231
SWIDTH 500 0
DWIDTH 14 0
BBX 11 18 1 -5
BITMAP
FFE0
FFE0
C000
C000
C000
C000
C000
C000
C000
C000
C000
FFE0
FFE0
0C00
0C00
0C00
1800
3000
ENDCHAR
STARTCHAR egrave
ENCODING 232
SWIDTH 500 0
DWIDTH 14 0
BBX 11 17 1 0
BITMAP
3800
1C00
0E00
0000
FFE0
FFE0
C060
C060
C060
FFE0
FFE0
C000
C000
C000
C000
FFC0
FFC0
ENDCHAR
STARTCHAR eacute
ENCODING 233
SWIDTH 500 0
DWIDTH 14 0
BBX 11 17 1 0
BITMAP
0380
0700
0E00
0000
FFE0
FFE0
C060
C060
C060
FFE0
FFE0
C000
C000
C000
C000
FFC0
FFC0
ENDCHAR
STARTCHAR ecircumflex
ENCODING 234
SWIDTH 500 0
DWIDTH 14 0
BBX 11 17 1 0
BITMAP
0E00
1F00
3B80
0000
FFE0
FFE0
C060
C060
C060
FFE0
FFE0
C000
C000
C000
C000
FFC0
FFC0
ENDCHAR
STARTCHAR edieresis
ENCODING 235
SWIDTH 500 0
DWIDTH 14 0
BBX 11 17 1 0
BITMAP
3180
3180
3180
0000
FFE0
FFE0
C060
C060
C060
FFE0
FFE0
C000
C000
C000
C000
FFC0
FFC0
ENDCHAR
STARTCHAR igrave
ENCODING 236
SWIDTH 500 0
DWIDTH 14 0
BBX 8 17 3 0
BITMAP
E0
70
38
00
78
78
18
18
18
18
1B
1B
1B
1B
1B
7F
7F
ENDCHAR
STARTCHAR iacute
ENCODING 237
SWIDTH 500 0
DWIDTH 14 0
BBX 7 17 4 0
BITMAP
1C
38
70
00
F0
F0
30
30
30
30
36
36
36
36
36
FE
FE
ENDCHAR
STARTCHAR icircumflex
ENCODING 238
SWIDTH 500 0
DWIDTH 14 0
BBX 8 17 3 0
BITMAP
38
7C
EE
00
78
78
18
18
18
18
1B
1B
1B
1B
1B
7F
7F
ENDCHAR
STARTCHAR idieresis
ENCODING 239
SWIDTH 500 0
DWIDTH 14 0
BBX 8 17 3 0
BITMAP
C6
C6
C6
00
78
78
18
18
18
18
1B
1B
1B
1B
1B
7F
7F
ENDCHAR
STARTCHAR eth
ENCODING 240
SWIDTH 500 0
DWIDTH 14 0
BBX 11 18 1 0
BITMAP
1CC0
0F80
0F00
1B80
01C0
FFE0
FFE0
C060
C060
C060
C060
C060
C060
C060
C060
C060
FFE0
FFE0
ENDCHAR
STARTCHAR ntilde
ENCODING 241
SWIDTH 500 0
DWIDTH 14 0
BBX 11 17 1 0
BITMAP
F8C0
FFC0
C7C0
0000
DFE0
FFE0
E060
C060
C060
C060
C060
C060
C060
C060
C060
C060
C060
ENDCHAR
STARTCHAR ograve
ENCODING 242
SWIDTH 500 0
DWIDTH 14 0
BBX 11 17 1 0
BITMAP
3800
1C00
0E00
0000
FFE0
FFE0
C060
C060
C060
C060
C060
C060
C060
C060
C060
FFE0
FFE0
ENDCHAR
STARTCHAR oacute
ENCODING 243
SWIDTH 500 0
DWIDTH 14 0
BBX 11 17 1 0
BITMAP
0380
0700
0E00
0000
3F80
7FC0
C060
C060
C060
C060
C060
C060
C060
C060
C060
7FC0
3F80
ENDCHAR
STARTCHAR ocircumflex
ENCODING 244
SWIDTH 500 0
DWIDTH 14 0
BBX 11 17 1 0
BITMAP
0E00
1F00
3B80
0000
FFE0
FFE0
C060
C060
C060
C060
C060
C060
C060
C060
C060
FFE0
FFE0
ENDCHAR
STARTCHAR otilde
ENCODING 245
SWIDTH 500 0
DWIDTH 14 0
BBX 11 17 1 0
BITMAP
7CC0
7FC0
67C0
0000
3F80
7FC0
C060
C060
C060
C060
C060
C060
C060
C060
C060
7FC0
3F80
ENDCHAR
STARTCHAR odieresis
ENCODING 246
SWIDTH 500 0
DWIDTH 14 0
BBX 11 17 1 0
BITMAP
3180
3180
3180
0000
FFE0
FFE0
C060
C060
C060
C060
C060
C060
C060
C060
C060
FFE0
FFE0
ENDCHAR
STARTCHAR divide
ENCODING 247
SWIDTH 500 0
DWIDTH 14 0
BBX 12 14 1 2
BITMAP
0600
0600
0600
0600
0000
0000
FFF0
FFF0
0000
0000
0600
0600
0600
0600
ENDCHAR
STARTCHAR oslash
ENCODING 248
SWIDTH 500 0
DWIDTH 14 0
BBX 13 13 0 0
BITMAP
7FF8
7FF8
6070
60F0
61F0
63B0
6730
6E30
7C30
7830
7030
FFF0
FFF0
ENDCHAR
STARTCHAR ugrave
ENCODING 249
SWIDTH 500 0
DWIDTH 14 0
BBX 11 17 1 0
BITMAP
3800
1C00
0E00
0000
C060
C060
C060
C060
C060
C060
C060
C060
C060
C060
C0E0
FFE0
FF60
ENDCHAR
STARTCHAR uacute
ENCODING 250
SWIDTH 500 0
DWIDTH 14 0
BBX 11 17 1 0
BITMAP
0380
0700
0E00
0000
C060
C060
C060
C060
C060
C060
C060
C060
C060
C060
C0E0
FFE0
FF60
ENDCHAR
STARTCHAR ucircumflex
ENCODING 251
SWIDTH 500 0
DWIDTH 14 0
BBX 11 17 1 0
BITMAP
0E00
1F00
3B80
0000
C060
C060
C060
C060
C060
C060
C060
C060
C060
C060
C0E0
FFE0
FF60
ENDCHAR
STARTCHAR udieresis
ENCODING 252
SWIDTH 500 0
DWIDTH 14 0
BBX 11 17 1 0
BITMAP
3180
3180
3180
0000
C060
C060
C060
C060
C060
C060
C060
C060
C060
C060
C0E0
FFE0
FF60
ENDCHAR
STARTCHAR yacute
ENCODING 253
SWIDTH 500 0
DWIDTH 14 0
BBX 11 22 1 -5
BITMAP
0380
0700
0E00
0000
C060
C060
C060
C060
C060
C060
C060
C060
C060
C060
C060
FFE0
FFE0
0060
0060
0060
7FE0
7FE0
ENDCHAR
STARTCHAR thorn
ENCODING 254
SWIDTH 500 0
DWIDTH 14 0
BBX 11 23 1 -5
BITMAP
C000
C000
C000
C000
C000
FFE0
FFE0
C060
C060
C060
C060
C060
C060
C060
C060
C060
FFE0
FFE0
C000
C000
C000
C000
C000
ENDCHAR
STARTCHAR ydieresis
ENCODING 255
SWIDTH 500 0
DWIDTH 14 0
BBX 11 22 1 -5
BITMAP
3180
3180
3180
0000
C060
C060
C060
C060
C060
C060
C060
C060
C060
C060
C060
FFE0
FFE0
0060
0060
0060
7FE0
7FE0
ENDCHAR
STARTCHAR Amacron
ENCODING 256
SWIDTH 500 0
DWIDTH 14 0
BBX 11 22 1 0
BITMAP
3F80
3F80
0000
0000
03E0
07E0
0E60
1C60
3860
7060
E060
C060
C060
FFE0
FFE0
C060
C060
C060
C060
C060
C060
C060
ENDCHAR
STARTCHAR amacron
ENCODING 257
SWIDTH 500 0
DWIDTH 14 0
BBX 11 17 1 0
BITMAP
3F80
3F80
0000
0000
3FE0
3FE0
0060
0060
FFE0
FFE0
C060
C060
C060
C060
C060
FFE0
FFE0
ENDCHAR
STARTCHAR Abreve
ENCODING 258
SWIDTH 500 0
DWIDTH 14 0
BBX 11 22 1 0
BITMAP
3180
3F80
3F80
0000
03E0
07E0
0E60
1C60
3860
7060
E060
C060
C060
FFE0
FFE0
C060
C060
C060
C060
C060
C060
C060
ENDCHAR
STARTCHAR abreve
ENCODING 259
SWIDTH 500 0
DWIDTH 14 0
BBX 11 17 1 0
BITMAP
3180
3F80
3F80
0000
3FE0
3FE0
0060
0060
FFE0
FFE0
C060
C060
C060
C060
C060
FFE0
FFE0
ENDCHAR
STARTCHAR Aogonek
ENCODING 260
SWIDTH 500 0
DWIDTH 14 0
BBX 12 23 1 -5
BITMAP
03E0
07E0
0E60
1C60
3860
7060
E060
C060
C060
FFE0
FFE0
C060
C060
C060
C060
C060
C060
C060
00E0
0180
0180
01F0
01F0
ENDCHAR
STARTCHAR aogonek
ENCODING 261
SWIDTH 500 0
DWIDTH 14 0
BBX 12 18 1 -5
BITMAP
3FE0
3FE0
0060
0060
FFE0
FFE0
C060
C060
C060
C060
C060
FFE0
FFE0
00E0
0180
0180
01F0
01F0
ENDCHAR
STARTCHAR Cacute
ENCODING 262
SWIDTH 500 0
DWIDTH 14 0
BBX 11 22 1 0
BITMAP
0380
0700
0E00
0000
FFE0
FFE0
C060
C000
C000
C000
C000
C000
C000
C000
C000
C000
C000
C000
C000
C060
FFE0
FFE0
ENDCHAR
STARTCHAR cacute
ENCODING 263
SWIDTH 500 0
DWIDTH 14 0
BBX 11 17 1 0
BITMAP
0380
0700
0E00
0000
FFE0
FFE0
C000
C000
C000
C000
C000
C000
C000
C000
C000
FFE0
FFE0
ENDCHAR
STARTCHAR Ccircumflex
ENCODING 264
SWIDTH 500 0
DWIDTH 14 0
BBX 11 22 1 0
BITMAP
0E00
1F00
3B80
0000
FFE0
FFE0
C060
C000
C000
C000
C000
C000
C000
C000
C000
C000
C000
C000
C000
C060
FFE0
FFE0
ENDCHAR
STARTCHAR ccircumflex
ENCODING 265
SWIDTH 500 0
DWIDTH 14 0
BBX 11 17 1 0
BITMAP
0E00
1F00
3B80
0000
FFE0
FFE0
C000
C000
C000
C000
C000
C000
C000
C000
C000
FFE0
FFE0
ENDCHAR
STARTCHAR Cdotaccent
ENCODING 266
SWIDTH 500 0
DWIDTH 14 0
BBX 11 22 1 0
BITMAP
0600
0600
0600
0000
FFE0
FFE0
C060
C000
C000
C000
C000
C000
C000
C000
C000
C000
C000
C000
C000
C060
FFE0
FFE0
ENDCHAR
STARTCHAR cdotaccent
ENCODING 267
SWIDTH 500 0
DWIDTH 14 0
BBX 11 17 1 0
BITMAP
0600
0600
0600
0000
FFE0
FFE0
C000
C000
C000
C000
C000
C000
C000
C000
C000
FFE0
FFE0
ENDCHAR
STARTCHAR Ccaron
ENCODING 268
SWIDTH 500 0
DWIDTH 14 0
BBX 11 22 1 0
BITMAP
3B80
1F00
0E00
0000
FFE0
FFE0
C060
C000
C000
C000
C000
C000
C000
C000
C000
C000
C000
C000
C000
C060
FFE0
FFE0
ENDCHAR
STARTCHAR ccaron
ENCODING 269
SWIDTH 500 0
DWIDTH 14 0
BBX 11 17 1 0
BITMAP
3B80
1F00
0E00
0000
FFE0
FFE0
C000
C000
C000
C000
C000
C000
C000
C000
C000
FFE0
FFE0
ENDCHAR
STARTCHAR Dcaron
ENCODING 270
SWIDTH 500 0
DWIDTH 14 0
BBX 11 22 1 0
BITMAP
3B80
1F00
0E00
0000
FC00
FE00
C700
C380
C1C0
C0E0
C060
C060
C060
C060
C060
C060
C060
C060
C060
C060
FFE0
FFC0
ENDCHAR
STARTCHAR dcaron
ENCODING 271
SWIDTH 500 0
DWIDTH 14 0
BBX 11 22 1 0
BITMAP
3B80
1F00
0E00
0000
0060
0060
0060
0060
0060
FFE0
FFE0
C060
C060
C060
C060
C060
C060
C060
C060
C060
FFE0
FFE0
ENDCHAR
STARTCHAR Dcroat
ENCODING 272
SWIDTH 500 0
DWIDTH 14 0
BBX 12 18 0 0
BITMAP
7E00
7F00
6380
61C0
60E0
6070
6030
6030
FE30
FE30
6030
6030
6030
6030
6030
6030
7FF0
7FE0
ENDCHAR
STARTCHAR dcroat
ENCODING 273
SWIDTH 500 0
DWIDTH 14 0
BBX 12 18 1 0
BITMAP
0060
0FF0
0FF0
0060
0060
FFE0
FFE0
C060
C060
C060
C060
C060
C060
C060
C060
C060
FFE0
FFE0
ENDCHAR
STARTCHAR Emacron
ENCODING 274
SWIDTH 500 0
DWIDTH 14 0
BBX 11 22 1 0
BITMAP
3F80
3F80
0000
0000
FFE0
FFE0
C000
C000
C000
C000
C000
C000
FFC0
FFC0
C000
C000
C000
C000
C000
C000
FFE0
FFE0
ENDCHAR
STARTCHAR emacron
ENCODING 275
SWIDTH 500 0
DWIDTH 14 0
BBX 11 17 1 0
BITMAP
3F80
3F80
0000
0000
FFE0
FFE0
C060
C060
C060
FFE0
FFE0
C000
C000
C000
C000
FFC0
FFC0
ENDCHAR
STARTCHAR Ebreve
ENCODING 276
SWIDTH 500 0
DWIDTH 14 0
BBX 11 22 1 0
BITMAP
3180
3F80
3F80
0000
FFE0
FFE0
C000
C000
C000
C000
C000
C000
FFC0
FFC0
C000
C000
C000
C000
C000
C000
FFE0
FFE0
ENDCHAR
STARTCHAR ebreve
ENCODING 277
SWIDTH 500 0
DWIDTH 14 0
BBX 11 17 1 0
BITMAP
3180
3F80
3F80
0000
FFE0
FFE0
C060
C060
C060
FFE0
FFE0
C000
C000
C000
C000
FFC0
FFC0
ENDCHAR
STARTCHAR Edotaccent
ENCODING 278
SWIDTH 500 0
DWIDTH 14 0
BBX 11 22 1 0
BITMAP
0600
0600
0600
0000
FFE0
FFE0
C000
C000
C000
C000
C000
C000
FFC0
FFC0
C000
C000
C000
C000
C000
C000
FFE0
FFE0
ENDCHAR
STARTCHAR edotaccent
ENCODING 279
SWIDTH 500 0
DWIDTH 14 0
BBX 11 17 1 0
BITMAP
0600
0600
0600
0000
FFE0
FFE0
C060
C060
C060
FFE0
FFE0
C000
C000
C000
C000
FFC0
FFC0
ENDCHAR
STARTCHAR Eogonek
ENCODING 280
SWIDTH 500 0
DWIDTH 14 0
BBX 12 23 1 -5
BITMAP
FFE0
FFE0
C000
C000
C000
C000
C000
C000
FFC0
FFC0
C000
C000
C000
C000
C000
C000
FFE0
FFE0
00E0
0180
0180
01F0
01F0
ENDCHAR
STARTCHAR eogonek
ENCODING 281
SWIDTH 500 0
DWIDTH 14 0
BBX 11 18 1 -5
BITMAP
FFE0
FFE0
C060
C060
C060
FFE0
FFE0
C000
C000
C000
C000
FFC0
FFC0
0700
0C00
0C00
0F80
0F80
ENDCHAR
STARTCHAR Ecaron
ENCODING 282
SWIDTH 500 0
DWIDTH 14 0
BBX 11 22 1 0
BITMAP
3B80
1F00
0E00
0000
FFE0
FFE0
C000
C000
C000
C000
C000
C000
FFC0
FFC0
C000
C000
C000
C000
C000
C000
FFE0
FFE0
ENDCHAR
STARTCHAR ecaron
ENCODING 283
SWIDTH 500 0
DWIDTH 14 0
BBX 11 17 1 0
BITMAP
3B80
1F00
0E00
0000
FFE0
FFE0
C060
C060
C060
FFE0
FFE0
C000
C000
C000
C000
FFC0
FFC0
ENDCHAR
STARTCHAR Gcircumflex
ENCODING 284
SWIDTH 500 0
DWIDTH 14 0
BBX 11 22 1 0
BITMAP
0E00
1F00
3B80
0000
FFE0
FFE0
C060
C000
C000
C000
C000
C000
C1E0
C1E0
C060
C060
C060
C060
C060
C060
FFE0
FFE0
ENDCHAR
STARTCHAR gcircumflex
ENCODING 285
SWIDTH 500 0
DWIDTH 14 0
BBX 11 22 1 -5
BITMAP
0E00
1F00
3B80
0000
FFE0
FFE0
C060
C060
C060
C060
C060
C060
C060
C060
C060
FFE0
FFE0
0060
0060
0060
7FE0
7FE0
ENDCHAR
STARTCHAR Gbreve
ENCODING 286
SWIDTH 500 0
DWIDTH 14 0
BBX 11 22 1 0
BITMAP
3180
3F80
3F80
0000
FFE0
FFE0
C060
C000
C000
C000
C000
C000
C1E0
C1E0
C060
C060
C060
C060
C060
C060
FFE0
FFE0
ENDCHAR
STARTCHAR gbreve
ENCODING 287
SWIDTH 500 0
DWIDTH 14 0
BBX 11 22 1 -5
BITMAP
3180
3F80
3F80
0000
3FE0
7FE0
C060
C060
C060
C060
C060
C060
C060
C060
C060
7FE0
3FE0
0060
0060
0060
7FC0
7F80
ENDCHAR
STARTCHAR Gdotaccent
ENCODING 288
SWIDTH 500 0
DWIDTH 14 0
BBX 11 22 1 0
BITMAP
0600
0600
0600
0000
FFE0
FFE0
C060
C000
C000
C000
C000
C000
C1E0
C1E0
C060
C060
C060
C060
C060
C060
FFE0
FFE0
ENDCHAR
STARTCHAR gdotaccent
ENCODING 289
SWIDTH 500 0
DWIDTH 14 0
BBX 11 22 1 -5
BITMAP
0600
0600
0600
0000
FFE0
FFE0
C060
C060
C060
C060
C060
C060
C060
C060
C060
FFE0
FFE0
0060
0060
0060
7FE0
7FE0
ENDCHAR
STARTCHAR Gcommaaccent
ENCODING 290
SWIDTH 500 0
DWIDTH 14 0
BBX 11 24 1 -6
BITMAP
FFE0
FFE0
C060
C000
C000
C000
C000
C000
C1E0
C1E0
C060
C060
C060
C060
C060
C060
FFE0
FFE0
0000
0C00
0C00
0C00
1800
3000
ENDCHAR
STARTCHAR gcommaaccent
ENCODING 291
SWIDTH 500 0
DWIDTH 14 0
BBX 11 23 1 -5
BITMAP
0300
0700
0600
0600
0000
FFE0
FFE0
C060
C060
C060
C060
C060
C060
C060
C060
C060
FFE0
FFE0
0060
0060
0060
7FE0
7FE0
ENDCHAR
STARTCHAR Hcircumflex
ENCODING 292
SWIDTH 500 0
DWIDTH 14 0
BBX 11 22 1 0
BITMAP
0E00
1F00
3B80
0000
C060
C060
C060
C060
C060
C060
C060
C060
FFE0
FFE0
C060
C060
C060
C060
C060
C060
C060
C060
ENDCHAR
STARTCHAR hcircumflex
ENCODING 293
SWIDTH 500 0
DWIDTH 14 0
BBX 11 22 1 0
BITMAP
0E00
1F00
3B80
0000
C000
C000
C000
C000
C000
FFE0
FFE0
C060
C060
C060
C060
C060
C060
C060
C060
C060
C060
C060
ENDCHAR
STARTCHAR Hbar
ENCODING 294
SWIDTH 500 0
DWIDTH 14 0
BBX 13 18 0 0
BITMAP
6030
6030
6030
FFF8
FFF8
6030
6030
6030
7FF0
7FF0
6030
6030
6030
6030
6030
6030
6030
6030
ENDCHAR
STARTCHAR hbar
ENCODING 295
SWIDTH 500 0
DWIDTH 14 0
BBX 12 18 0 0
BITMAP
6000
FF00
FF00
6000
6000
7FF0
7FF0
6030
6030
6030
6030
6030
6030
6030
6030
6030
6030
6030
ENDCHAR
STARTCHAR Itilde
ENCODING 296
SWIDTH 500 0
DWIDTH 14 0
BBX 9 22 2 0
BITMAP
F980
FF80
CF80
0000
3F00
3F00
0C00
0C00
0C00
0C00
0C00
0C00
0C00
0C00
0C00
0D80
0D80
0D80
0D80
0D80
3F80
3F80
ENDCHAR
STARTCHAR itilde
ENCODING 297
SWIDTH 500 0
DWIDTH 14 0
BBX 9 17 2 0
BITMAP
F980
FF80
CF80
0000
3C00
3C00
0C00
0C00
0C00
0C00
0D80
0D80
0D80
0D80
0D80
3F80
3F80
ENDCHAR
STARTCHAR Imacron
ENCODING 298
SWIDTH 500 0
DWIDTH 14 0
BBX 8 22 3 0
BITMAP
FE
FE
00
00
7E
7E
18
18
18
18
18
18
18
18
18
1B
1B
1B
1B
1B
7F
7F
ENDCHAR
STARTCHAR imacron
ENCODING 299
SWIDTH 500 0
DWIDTH 14 0
BBX 8 17 3 0
BITMAP
FE
FE
00
00
78
78
18
18
18
18
1B
1B
1B
1B
1B
7F
7F
ENDCHAR
STARTCHAR Ibreve
ENCODING 300
SWIDTH 500 0
DWIDTH 14 0
BBX 8 22 3 0
BITMAP
C6
FE
FE
00
7E
7E
18
18
18
18
18
18
18
18
18
1B
1B
1B
1B
1B
7F
7F
ENDCHAR
STARTCHAR ibreve
ENCODING 301
SWIDTH 500 0
DWIDTH 14 0
BBX 8 17 3 0
BITMAP
C6
FE
FE
00
78
78
18
18
18
18
1B
1B
1B
1B
1B
7F
7F
ENDCHAR
STARTCHAR Iogonek
ENCODING 302
SWIDTH 500 0
DWIDTH 14 0
BBX 7 23 4 -5
BITMAP
FC
FC
30
30
30
30
30
30
30
30
30
36
36
36
36
36
FE
FE
30
60
60
7C
7C
ENDCHAR
STARTCHAR iogonek
ENCODING 303
SWIDTH 500 0
DWIDTH 14 0
BBX 7 23 4 -5
BITMAP
30
30
30
00
00
F0
F0
30
30
30
30
36
36
36
36
36
FE
FE
30
60
60
7C
7C
ENDCHAR
STARTCHAR Idotaccent
ENCODING 304
SWIDTH 500 0
DWIDTH 14 0
BBX 7 22 4 0
BITMAP
30
30
30
00
FC
FC
30
30
30
30
30
30
30
30
30
36
36
36
36
36
FE
FE
ENDCHAR
STARTCHAR dotlessi
ENCODING 305
SWIDTH 500 0
DWIDTH 14 0
BBX 7 13 4 0
BITMAP
F0
F0
30
30
30
30
36
36
36
36
36
FE
FE
ENDCHAR
STARTCHAR IJ
ENCODING 306
SWIDTH 500 0
DWIDTH 14 0
BBX 13 18 0 0
BITMAP
F078
F078
6030
6030
6030
6030
6030
6030
6030
6030
6030
6C30
6C30
6C30
6DB0
6DB0
FDF0
FDF0
ENDCHAR
STARTCHAR ij
ENCODING 307
SWIDTH 500 0
DWIDTH 14 0
BBX 12 23 1 -5
BITMAP
6030
6030
6030
0000
0000
E070
E070
6030
6030
6030
6030
6C30
6C30
6C30
6C30
6C30
FC30
FC30
0030
0630
0630
07F0
07F0
ENDCHAR
STARTCHAR Jcircumflex
ENCODING 308
SWIDTH 500 0
DWIDTH 14 0
BBX 12 22 1 0
BITMAP
01C0
03E0
0770
0000
03F0
03F0
00C0
00C0
00C0
00C0
00C0
00C0
00C0
00C0
00C0
00C0
00C0
00C0
C0C0
C0C0
FFC0
FFC0
ENDCHAR
STARTCHAR jcircumflex
ENCODING 309
SWIDTH 500 0
DWIDTH 14 0
BBX 11 22 2 -5
BITMAP
0380
07C0
0EE0
0000
0780
0780
0180
0180
0180
0180
0180
0180
0180
0180
0180
0180
0180
0180
C180
C180
FF80
FF80
ENDCHAR
STARTCHAR Kcommaaccent
ENCODING 310
SWIDTH 500 0
DWIDTH 14 0
BBX 11 24 1 -6
BITMAP
C060
C0E0
C1C0
C380
C700
CE00
DC00
F800
FFE0
FFE0
C060
C060
C060
C060
C060
C060
C060
C060
0000
0C00
0C00
0C00
1800
3000
ENDCHAR
STARTCHAR kcommaaccent
ENCODING 311
SWIDTH 500 0
DWIDTH 14 0
BBX 10 24 2 -6
BITMAP
C000
C000
C000
C000
C000
C1C0
C380
C700
CE00
DC00
F800
FFC0
FFC0
C0C0
C0C0
C0C0
C0C0
C0C0
0000
1800
1800
1800
3000
6000
ENDCHAR
STARTCHAR kgreenlandic
ENCODING 312
SWIDTH 500 0
DWIDTH 14 0
BBX 10 13 2 0
BITMAP
C1C0
C380
C700
CE00
DC00
F800
FFC0
FFC0
C0C0
C0C0
C0C0
C0C0
C0C0
ENDCHAR
STARTCHAR Lacute
ENCODING 313
SWIDTH 500 0
DWIDTH 14 0
BBX 11 22 1 0
BITMAP
3800
7000
E000
0000
C000
C000
C000
C000
C000
C000
C000
C000
C000
C000
C000
C000
C000
C000
C000
C060
FFE0
FFE0
ENDCHAR
STARTCHAR lacute
ENCODING 314
SWIDTH 500 0
DWIDTH 14 0
BBX 7 22 4 0
BITMAP
1C
38
70
00
F0
F0
30
30
30
30
30
30
30
30
30
36
36
36
36
36
FE
FE
ENDCHAR
STARTCHAR Lcommaaccent
ENCODING 315
SWIDTH 500 0
DWIDTH 14 0
BBX 11 24 1 -6
BITMAP
C000
C000
C000
C000
C000
C000
C000
C000
C000
C000
C000
C000
C000
C000
C000
C060
FFE0
FFE0
0000
0C00
0C00
0C00
1800
3000
ENDCHAR
STARTCHAR lcommaaccent
ENCODING 316
SWIDTH 500 0
DWIDTH 14 0
BBX 7 24 4 -6
BITMAP
F0
F0
30
30
30
30
30
30
30
30
30
36
36
36
36
36
FE
FE
00
30
30
30
60
C0
ENDCHAR
STARTCHAR Lcaron
ENCODING 317
SWIDTH 500 0
DWIDTH 14 0
BBX 11 22 1 0
BITMAP
3B80
1F00
0E00
0000
C000
C000
C000
C000
C000
C000
C000
C000
C000
C000
C000
C000
C000
C000
C000
C060
FFE0
FFE0
ENDCHAR
STARTCHAR lcaron
ENCODING 318
SWIDTH 500 0
DWIDTH 14 0
BBX 8 22 3 0
BITMAP
EE
7C
38
00
78
78
18
18
18
18
18
18
18
18
18
1B
1B
1B
1B
1B
7F
7F
ENDCHAR
STARTCHAR Ldot
ENCODING 319
SWIDTH 500 0
DWIDTH 14 0
BBX 11 18 1 0
BITMAP
C000
C000
C000
C000
C000
C000
C000
C180
C180
C180
C000
C000
C000
C000
C000
C060
FFE0
FFE0
ENDCHAR
STARTCHAR ldot
ENCODING 320
SWIDTH 500 0
DWIDTH 14 0
BBX 10 18 4 0
BITMAP
F000
F000
3000
3000
3000
3000
3000
30C0
30C0
30C0
3000
3600
3600
3600
3600
3600
FE00
FE00
ENDCHAR
STARTCHAR Lslash
ENCODING 321
SWIDTH 500 0
DWIDTH 14 0
BBX 13 18 0 0
BITMAP
1800
1800
1800
1800
1800
1B00
1E00
1C00
1800
3800
7800
D800
1800
1800
1800
1818
1FF8
1FF8
ENDCHAR
STARTCHAR lslash
ENCODING 322
SWIDTH 500 0
DWIDTH 14 0
BBX 8 18 3 0
BITMAP
78
78
18
18
18
1B
1E
1C
18
38
78
DB
1B
1B
1B
1B
7F
7F
ENDCHAR
STARTCHAR Nacute
ENCODING 323
SWIDTH 500 0
DWIDTH 14 0
BBX 11 22 1 0
BITMAP
0380
0700
0E00
0000
C7E0
CFE0
D860
F060
E060
C060
C060
C060
C060
C060
C060
C060
C060
C060
C060
C060
C060
C060
ENDCHAR
STARTCHAR nacute
ENCODING 324
SWIDTH 500 0
DWIDTH 14 0
BBX 11 17 1 0
BITMAP
0380
0700
0E00
0000
DFE0
FFE0
E060
C060
C060
C060
C060
C060
C060
C060
C060
C060
C060
ENDCHAR
STARTCHAR Ncommaaccent
ENCODING 325
SWIDTH 500 0
DWIDTH 14 0
BBX 11 24 1 -6
BITMAP
C7E0
CFE0
D860
F060
E060
C060
C060
C060
C060
C060
C060
C060
C060
C060
C060
C060
C060
C060
0000
0C00
0C00
0C00
1800
3000
ENDCHAR
STARTCHAR ncommaaccent
ENCODING 326
SWIDTH 500 0
DWIDTH 14 0
BBX 11 19 1 -6
BITMAP
DFE0
FFE0
E060
C060
C060
C060
C060
C060
C060
C060
C060
C060
C060
0000
0C00
0C00
0C00
1800
3000
ENDCHAR
STARTCHAR Ncaron
ENCODING 327
SWIDTH 500 0
DWIDTH 14 0
BBX 11 22 1 0
BITMAP
3B80
1F00
0E00
0000
C7E0
CFE0
D860
F060
E060
C060
C060
C060
C060
C060
C060
C060
C060
C060
C060
C060
C060
C060
ENDCHAR
STARTCHAR ncaron
ENCODING 328
SWIDTH 500 0
DWIDTH 14 0
BBX 11 17 1 0
BITMAP
3B80
1F00
0E00
0000
DFE0
FFE0
E060
C060
C060
C060
C060
C060
C060
C060
C060
C060
C060
ENDCHAR
STARTCHAR napostrophe
ENCODING 329
SWIDTH 500 0
DWIDTH 14 0
BBX 12 20 0 0
BITMAP
6000
6000
6000
6000
C000
C000
0000
6FF0
7FF0
7030
6030
6030
6030
6030
6030
6030
6030
6030
6030
6030
ENDCHAR
STARTCHAR Eng
ENCODING 330
SWIDTH 500 0
DWIDTH 14 0
BBX 11 23 1 -5
BITMAP
C7E0
CFE0
D860
F060
E060
C060
C060
C060
C060
C060
C060
C060
C060
C060
C060
C060
C060
C060
0060
0060
0060
00C0
0180
ENDCHAR
STARTCHAR eng
ENCODING 331
SWIDTH 500 0
DWIDTH 14 0
BBX 11 18 1 -5
BITMAP
DFE0
FFE0
E060
C060
C060
C060
C060
C060
C060
C060
C060
C060
C060
0060
0060
0060
00C0
0180
ENDCHAR
STARTCHAR Omacron
ENCODING 332
SWIDTH 500 0
DWIDTH 14 0
BBX 11 22 1 0
BITMAP
3F80
3F80
0000
0000
FFE0
FFE0
C060
C060
C060
C060
C060
C060
C060
C060
C060
C060
C060
C060
C060
C060
FFE0
FFE0
ENDCHAR
STARTCHAR omacron
ENCODING 333
SWIDTH 500 0
DWIDTH 14 0
BBX 11 17 1 0
BITMAP
3F80
3F80
0000
0000
FFE0
FFE0
C060
C060
C060
C060
C060
C060
C060
C060
C060
FFE0
FFE0
ENDCHAR
STARTCHAR Obreve
ENCODING 334
SWIDTH 500 0
DWIDTH 14 0
BBX 11 22 1 0
BITMAP
3180
3F80
3F80
0000
FFE0
FFE0
C060
C060
C060
C060
C060
C060
C060
C060
C060
C060
C060
C060
C060
C060
FFE0
FFE0
ENDCHAR
STARTCHAR obreve
ENCODING 335
SWIDTH 500 0
DWIDTH 14 0
BBX 11 17 1 0
BITMAP
3180
3F80
3F80
0000
FFE0
FFE0
C060
C060
C060
C060
C060
C060
C060
C060
C060
FFE0
FFE0
ENDCHAR
STARTCHAR Ohungarumlaut
ENCODING 336
SWIDTH 500 0
DWIDTH 14 0
BBX 12 22 1 0
BITMAP
0E70
1CE0
39C0
0000
FFE0
FFE0
C060
C060
C060
C060
C060
C060
C060
C060
C060
C060
C060
C060
C060
C060
FFE0
FFE0
ENDCHAR
STARTCHAR ohungarumlaut
ENCODING 337
SWIDTH 500 0
DWIDTH 14 0
BBX 12 17 1 0
BITMAP
0E70
1CE0
39C0
0000
FFE0
FFE0
C060
C060
C060
C060
C060
C060
C060
C060
C060
FFE0
FFE0
ENDCHAR
STARTCHAR OE
ENCODING 338
SWIDTH 500 0
DWIDTH 14 0
BBX 13 18 0 0
BITMAP
FFF8
FFF8
C300
C300
C300
C300
C300
C300
C3F0
C3F0
C300
C300
C300
C300
C300
C300
FFF8
FFF8
ENDCHAR
STARTCHAR oe
ENCODING 339
SWIDTH 500 0
DWIDTH 14 0
BBX 13 13 0 0
BITMAP
FFF8
FFF8
C318
C318
C318
C318
C3F8
C3F8
C300
C300
C300
FFF0
FFF0
ENDCHAR
STARTCHAR Racute
ENCODING 340
SWIDTH 500 0
DWIDTH 14 0
BBX 11 22 1 0
BITMAP
0380
0700
0E00
0000
FFE0
FFE0
C060
C060
C060
C060
C060
C060
C060
FFE0
FFE0
C700
C380
C380
C1C0
C1C0
C0E0
C0E0
ENDCHAR
STARTCHAR racute
ENCODING 341
SWIDTH 500 0
DWIDTH 14 0
BBX 11 17 1 0
BITMAP
0380
0700
0E00
0000
FFE0
FFE0
C060
C000
C000
C000
C000
C000
C000
C000
C000
C000
C000
ENDCHAR
STARTCHAR Rcommaaccent
ENCODING 342
SWIDTH 500 0
DWIDTH 14 0
BBX 11 24 1 -6
BITMAP
FFE0
FFE0
C060
C060
C060
C060
C060
C060
C060
FFE0
FFE0
C700
C380
C380
C1C0
C1C0
C0E0
C0E0
0000
0C00
0C00
0C00
1800
3000
ENDCHAR
STARTCHAR rcommaaccent
ENCODING 343
SWIDTH 500 0
DWIDTH 14 0
BBX 13 19 0 -6
BITMAP
3FF8
3FF8
3018
3000
3000
3000
3000
3000
3000
3000
3000
3000
3000
0000
3000
3000
3000
6000
C000
ENDCHAR
STARTCHAR Rcaron
ENCODING 344
SWIDTH 500 0
DWIDTH 14 0
BBX 11 22 1 0
BITMAP
3B80
1F00
0E00
0000
FFE0
FFE0
C060
C060
C060
C060
C060
C060
C060
FFE0
FFE0
C700
C380
C380
C1C0
C1C0
C0E0
C0E0
ENDCHAR
STARTCHAR rcaron
ENCODING 345
SWIDTH 500 0
DWIDTH 14 0
BBX 11 17 1 0
BITMAP
3B80
1F00
0E00
0000
FFE0
FFE0
C060
C000
C000
C000
C000
C000
C000
C000
C000
C000
C000
ENDCHAR
STARTCHAR Sacute
ENCODING 346
SWIDTH 500 0
DWIDTH 14 0
BBX 11 22 1 0
BITMAP
0380
0700
0E00
0000
FFE0
FFE0
C060
C060
C000
C000
C000
C000
FFE0
FFE0
0060
0060
0060
0060
C060
C060
FFE0
FFE0
ENDCHAR
STARTCHAR sacute
ENCODING 347
SWIDTH 500 0
DWIDTH 14 0
BBX 11 17 1 0
BITMAP
0380
0700
0E00
0000
FFE0
FFE0
C000
C000
C000
FFE0
FFE0
0060
0060
0060
0060
FFE0
FFE0
ENDCHAR
STARTCHAR Scircumflex
ENCODING 348
SWIDTH 500 0
DWIDTH 14 0
BBX 11 22 1 0
BITMAP
0E00
1F00
3B80
0000
FFE0
FFE0
C060
C060
C000
C000
C000
C000
FFE0
FFE0
0060
0060
0060
0060
C060
C060
FFE0
FFE0
ENDCHAR
STARTCHAR scircumflex
ENCODING 349
SWIDTH 500 0
DWIDTH 14 0
BBX 11 17 1 0
BITMAP
0E00
1F00
3B80
0000
FFE0
FFE0
C000
C000
C000
FFE0
FFE0
0060
0060
0060
0060
FFE0
FFE0
ENDCHAR
STARTCHAR Scedilla
ENCODING 350
SWIDTH 500 0
DWIDTH 14 0
BBX 11 23 1 -5
BITMAP
FFE0
FFE0
C060
C060
C000
C000
C000
C000
FFE0
FFE0
0060
0060
0060
0060
C060
C060
FFE0
FFE0
0C00
0C00
0C00
1800
3000
ENDCHAR
STARTCHAR scedilla
ENCODING 351
SWIDTH 500 0
DWIDTH 14 0
BBX 11 18 1 -5
BITMAP
FFE0
FFE0
C000
C000
C000
FFE0
FFE0
0060
0060
0060
0060
FFE0
FFE0
0C00
0C00
0C00
1800
3000
ENDCHAR
STARTCHAR Scaron
ENCODING 352
SWIDTH 500 0
DWIDTH 14 0
BBX 11 22 1 0
BITMAP
3B80
1F00
0E00
0000
FFE0
FFE0
C060
C060
C000
C000
C000
C000
FFE0
FFE0
0060
0060
0060
0060
C060
C060
FFE0
FFE0
ENDCHAR
STARTCHAR scaron
ENCODING 353
SWIDTH 500 0
DWIDTH 14 0
BBX 11 17 1 0
BITMAP
3B80
1F00
0E00
0000
FFE0
FFE0
C000
C000
C000
FFE0
FFE0
0060
0060
0060
0060
FFE0
FFE0
ENDCHAR
STARTCHAR Tcedilla
ENCODING 354
SWIDTH 500 0
DWIDTH 14 0
BBX 12 23 1 -5
BITMAP
FFF0
FFF0
0600
0600
0600
0600
0600
0600
0600
0600
0600
0600
0600
0600
0600
0600
0600
0600
0300
0300
0300
0600
0C00
ENDCHAR
STARTCHAR tcedilla
ENCODING 355
SWIDTH 500 0
DWIDTH 14 0
BBX 8 23 3 -5
BITMAP
30
30
30
30
30
FE
FE
30
30
30
30
30
30
30
30
30
3F
3F
0C
0C
0C
18
30
ENDCHAR
STARTCHAR Tcaron
ENCODING 356
SWIDTH 500 0
DWIDTH 14 0
BBX 12 22 1 0
BITMAP
3B80
1F00
0E00
0000
FFF0
FFF0
0600
0600
0600
0600
0600
0600
0600
0600
0600
0600
0600
0600
0600
0600
0600
0600
ENDCHAR
STARTCHAR tcaron
ENCODING 357
SWIDTH 500 0
DWIDTH 14 0
BBX 9 22 2 0
BITMAP
EE00
7C00
3800
0000
1800
1800
1800
1800
1800
7F00
7F00
1800
1800
1800
1800
1800
1800
1800
1800
1800
1F80
1F80
ENDCHAR
STARTCHAR Tbar
ENCODING 358
SWIDTH 500 0
DWIDTH 14 0
BBX 12 18 1 0
BITMAP
FFF0
FFF0
0600
0600
0600
0600
0600
3FC0
3FC0
0600
0600
0600
0600
0600
0600
0600
0600
0600
ENDCHAR
STARTCHAR tbar
ENCODING 359
SWIDTH 500 0
DWIDTH 14 0
BBX 8 18 3 0
BITMAP
30
30
30
30
30
FE
FE
30
30
FC
FC
30
30
30
30
30
3F
3F
ENDCHAR
STARTCHAR Utilde
ENCODING 360
SWIDTH 500 0
DWIDTH 14 0
BBX 11 22 1 0
BITMAP
7CC0
7FC0
67C0
0000
C060
C060
C060
C060
C060
C060
C060
C060
C060
C060
C060
C060
C060
C0E0
C1E0
C360
FE60
FC60
ENDCHAR
STARTCHAR utilde
ENCODING 361
SWIDTH 500 0
DWIDTH 14 0
BBX 11 17 1 0
BITMAP
7CC0
7FC0
67C0
0000
C060
C060
C060
C060
C060
C060
C060
C060
C060
C060
C0E0
FFE0
FF60
ENDCHAR
STARTCHAR Umacron
ENCODING 362
SWIDTH 500 0
DWIDTH 14 0
BBX 11 22 1 0
BITMAP
3F80
3F80
0000
0000
C060
C060
C060
C060
C060
C060
C060
C060
C060
C060
C060
C060
C060
C0E0
C1E0
C360
FE60
FC60
ENDCHAR
STARTCHAR umacron
ENCODING 363
SWIDTH 500 0
DWIDTH 14 0
BBX 11 17 1 0
BITMAP
3F80
3F80
0000
0000
C060
C060
C060
C060
C060
C060
C060
C060
C060
C060
C0E0
FFE0
FF60
ENDCHAR
STARTCHAR Ubreve
ENCODING 364
SWIDTH 500 0
DWIDTH 14 0
BBX 11 22 1 0
BITMAP
3180
3F80
3F80
0000
C060
C060
C060
C060
C060
C060
C060
C060
C060
C060
C060
C060
C060
C0E0
C1E0
C360
FE60
FC60
ENDCHAR
STARTCHAR ubreve
ENCODING 365
SWIDTH 500 0
DWIDTH 14 0
BBX 11 17 1 0
BITMAP
3180
3F80
3F80
0000
C060
C060
C060
C060
C060
C060
C060
C060
C060
C060
C0E0
FFE0
FF60
ENDCHAR
STARTCHAR Uring
ENCODING 366
SWIDTH 500 0
DWIDTH 14 0
BBX 11 22 1 0
BITMAP
1F80
1980
1980
1F80
C060
C060
C060
C060
C060
C060
C060
C060
C060
C060
C060
C060
C060
C0E0
C1E0
C360
FE60
FC60
ENDCHAR
STARTCHAR uring
ENCODING 367
SWIDTH 500 0
DWIDTH 14 0
BBX 11 17 1 0
BITMAP
1F80
1980
1980
1F80
C060
C060
C060
C060
C060
C060
C060
C060
C060
C060
C0E0
FFE0
FF60
ENDCHAR
STARTCHAR Uhungarumlaut
ENCODING 368
SWIDTH 500 0
DWIDTH 14 0
BBX 12 22 1 0
BITMAP
0E70
1CE0
39C0
0000
C060
C060
C060
C060
C060
C060
C060
C060
C060
C060
C060
C060
C060
C0E0
C1E0
C360
FE60
FC60
ENDCHAR
STARTCHAR uhungarumlaut
ENCODING 369
SWIDTH 500 0
DWIDTH 14 0
BBX 12 17 1 0
BITMAP
0E70
1CE0
39C0
0000
C060
C060
C060
C060
C060
C060
C060
C060
C060
C060
C0E0
FFE0
FF60
ENDCHAR
STARTCHAR Uogonek
ENCODING 370
SWIDTH 500 0
DWIDTH 14 0
BBX 12 23 1 -5
BITMAP
C060
C060
C060
C060
C060
C060
C060
C060
C060
C060
C060
C060
C060
C0E0
C1E0
C360
FE60
FC60
01E0
0300
0300
03F0
03F0
ENDCHAR
STARTCHAR uogonek
ENCODING 371
SWIDTH 500 0
DWIDTH 14 0
BBX 12 18 1 -5
BITMAP
C060
C060
C060
C060
C060
C060
C060
C060
C060
C060
C0E0
FFE0
FF60
00E0
0180
0180
01F0
01F0
ENDCHAR
STARTCHAR Wcircumflex
ENCODING 372
SWIDTH 500 0
DWIDTH 14 0
BBX 12 22 1 0
BITMAP
0E00
1F00
3B80
0000
C030
C030
C030
C030
C030
C030
C030
C630
C630
C630
C630
C630
C630
C630
C630
C630
FFF0
FFF0
ENDCHAR
STARTCHAR wcircumflex
ENCODING 373
SWIDTH 500 0
DWIDTH 14 0
BBX 12 17 1 0
BITMAP
0E00
1F00
3B80
0000
C030
C030
C030
C030
C030
C630
C630
C630
C630
C630
C630
FFF0
FFF0
ENDCHAR
STARTCHAR Ydieresis
ENCODING 376
SWIDTH 500 0
DWIDTH 14 0
BBX 11 22 1 0
BITMAP
3180
3180
3180
0000
C060
C060
C060
C060
C060
C060
C060
C060
C060
FFE0
FFE0
0060
0060
0060
0060
0060
7FE0
7FE0
ENDCHAR
STARTCHAR Zacute
ENCODING 377
SWIDTH 500 0
DWIDTH 14 0
BBX 11 22 1 0
BITMAP
0380
0700
0E00
0000
FFE0
FFE0
0060
0060
00E0
01C0
0380
0700
0E00
1C00
3800
7000
E000
C000
C000
C000
FFE0
FFE0
ENDCHAR
STARTCHAR zacute
ENCODING 378
SWIDTH 500 0
DWIDTH 14 0
BBX 11 17 1 0
BITMAP
0380
0700
0E00
0000
FFE0
FFE0
00E0
01C0
0380
0700
0E00
1C00
3800
7000
E000
FFE0
FFE0
ENDCHAR
STARTCHAR Zdotaccent
ENCODING 379
SWIDTH 500 0
DWIDTH 14 0
BBX 11 22 1 0
BITMAP
0600
0600
0600
0000
FFE0
FFE0
0060
0060
00E0
01C0
0380
0700
0E00
1C00
3800
7000
E000
C000
C000
C000
FFE0
FFE0
ENDCHAR
STARTCHAR zdotaccent
ENCODING 380
SWIDTH 500 0
DWIDTH 14 0
BBX 11 17 1 0
BITMAP
0600
0600
0600
0000
FFE0
FFE0
00E0
01C0
0380
0700
0E00
1C00
3800
7000
E000
FFE0
FFE0
ENDCHAR
STARTCHAR Zcaron
ENCODING 381
SWIDTH 500 0
DWIDTH 14 0
BBX 11 22 1 0
BITMAP
3B80
1F00
0E00
0000
FFE0
FFE0
0060
0060
00E0
01C0
0380
0700
0E00
1C00
3800
7000
E000
C000
C000
C000
FFE0
FFE0
ENDCHAR
STARTCHAR zcaron
ENCODING 382
SWIDTH 500 0
DWIDTH 14 0
BBX 11 17 1 0
BITMAP
3B80
1F00
0E00
0000
FFE0
FFE0
00E0
01C0
0380
0700
0E00
1C00
3800
7000
E000
FFE0
FFE0
ENDCHAR
STARTCHAR Schwa
ENCODING 399
SWIDTH 500 0
DWIDTH 14 0
BBX 11 18 1 0
BITMAP
3FE0
3FE0
0060
0060
0060
0060
0060
0060
FFE0
FFE0
C060
C060
C060
C060
C060
C060
FFE0
FFE0
ENDCHAR
STARTCHAR florin
ENCODING 402
SWIDTH 500 0
DWIDTH 14 0
BBX 10 22 2 -4
BITMAP
0FC0
0FC0
0CC0
0CC0
0C00
0C00
0C00
3F80
3F80
0C00
0C00
0C00
0C00
0C00
0C00
0C00
0C00
0C00
CC00
CC00
FC00
FC00
ENDCHAR
STARTCHAR Ezh
ENCODING 439
SWIDTH 500 0
DWIDTH 14 0
BBX 11 18 1 0
BITMAP
FFE0
FFE0
00E0
01C0
0380
0700
0E00
1FE0
1FE0
0060
0060
0060
0060
0060
0060
0060
FFE0
FFE0
ENDCHAR
STARTCHAR Scommaaccent
ENCODING 536
SWIDTH 500 0
DWIDTH 14 0
BBX 11 24 1 -6
BITMAP
FFE0
FFE0
C060
C060
C000
C000
C000
C000
FFE0
FFE0
0060
0060
0060
0060
C060
C060
FFE0
FFE0
0000
0C00
0C00
0C00
1800
3000
ENDCHAR
STARTCHAR scommaaccent
ENCODING 537
SWIDTH 500 0
DWIDTH 14 0
BBX 11 19 1 -6
BITMAP
FFE0
FFE0
C000
C000
C000
FFE0
FFE0
0060
0060
0060
0060
FFE0
FFE0
0000
0C00
0C00
0C00
1800
3000
ENDCHAR
STARTCHAR Tcommaaccent
ENCODING 538
SWIDTH 500 0
DWIDTH 14 0
BBX 12 24 1 -6
BITMAP
FFF0
FFF0
0600
0600
0600
0600
0600
0600
0600
0600
0600
0600
0600
0600
0600
0600
0600
0600
0000
0600
0600
0600
0C00
1800
ENDCHAR
STARTCHAR tcommaaccent
ENCODING 539
SWIDTH 500 0
DWIDTH 14 0
BBX 8 24 3 -6
BITMAP
30
30
30
30
30
FE
FE
30
30
30
30
30
30
30
30
30
3F
3F
00
0C
0C
0C
18
30
ENDCHAR
STARTCHAR uni0232
ENCODING 562
SWIDTH 500 0
DWIDTH 14 0
BBX 11 22 1 0
BITMAP
3F80
3F80
0000
0000
C060
C060
C060
C060
C060
C060
C060
C060
C060
FFE0
FFE0
0060
0060
0060
0060
0060
7FE0
7FE0
ENDCHAR
STARTCHAR uni0233
ENCODING 563
SWIDTH 500 0
DWIDTH 14 0
BBX 11 22 1 -5
BITMAP
3F80
3F80
0000
0000
C060
C060
C060
C060
C060
C060
C060
C060
C060
C060
C060
FFE0
FFE0
0060
0060
0060
7FE0
7FE0
ENDCHAR
STARTCHAR uni0237
ENCODING 567
SWIDTH 500 0
DWIDTH 14 0
BBX 9 18 2 -5
BITMAP
0780
0780
0180
0180
0180
0180
0180
0180
0180
0180
0180
0180
0180
0180
C180
C180
FF80
FF80
ENDCHAR
STARTCHAR schwa
ENCODING 601
SWIDTH 500 0
DWIDTH 14 0
BBX 11 13 1 0
BITMAP
7FE0
7FE0
0060
0060
0060
0060
FFE0
FFE0
C060
C060
C060
FFE0
FFE0
ENDCHAR
STARTCHAR ezh
ENCODING 658
SWIDTH 500 0
DWIDTH 14 0
BBX 11 18 1 -5
BITMAP
FFE0
FFE0
00E0
01C0
0380
0700
0E00
1FE0
1FE0
0060
0060
0060
0060
0060
0060
0060
FFE0
FFE0
ENDCHAR
STARTCHAR commaturnedmod
ENCODING 699
SWIDTH 500 0
DWIDTH 14 0
BBX 3 4 5 18
BITMAP
60
E0
C0
C0
ENDCHAR
STARTCHAR afii57929
ENCODING 700
SWIDTH 500 0
DWIDTH 14 0
BBX 3 4 5 18
BITMAP
60
60
E0
C0
ENDCHAR
STARTCHAR afii64937
ENCODING 701
SWIDTH 500 0
DWIDTH 14 0
BBX 3 4 5 18
BITMAP
C0
C0
E0
60
ENDCHAR
STARTCHAR circumflex
ENCODING 710
SWIDTH 500 0
DWIDTH 14 0
BBX 7 3 3 19
BITMAP
38
7C
EE
ENDCHAR
STARTCHAR caron
ENCODING 711
SWIDTH 500 0
DWIDTH 14 0
BBX 7 3 3 19
BITMAP
EE
7C
38
ENDCHAR
STARTCHAR breve
ENCODING 728
SWIDTH 500 0
DWIDTH 14 0
BBX 7 3 3 19
BITMAP
C6
FE
FE
ENDCHAR
STARTCHAR dotaccent
ENCODING 729
SWIDTH 500 0
DWIDTH 14 0
BBX 2 3 6 19
BITMAP
C0
C0
C0
ENDCHAR
STARTCHAR ogonek
ENCODING 731
SWIDTH 500 0
DWIDTH 14 0
BBX 5 5 8 -5
BITMAP
70
C0
C0
F8
F8
ENDCHAR
STARTCHAR tilde
ENCODING 732
SWIDTH 500 0
DWIDTH 14 0
BBX 9 3 2 19
BITMAP
F980
FF80
CF80
ENDCHAR
STARTCHAR hungarumlaut
ENCODING 733
SWIDTH 500 0
DWIDTH 14 0
BBX 10 3 3 19
BITMAP
39C0
7380
E700
ENDCHAR
STARTCHAR gravecomb
ENCODING 768
SWIDTH 500 0
DWIDTH 14 0
BBX 5 3 3 19
BITMAP
E0
70
38
ENDCHAR
STARTCHAR acutecomb
ENCODING 769
SWIDTH 500 0
DWIDTH 14 0
BBX 5 3 5 19
BITMAP
38
70
E0
ENDCHAR
STARTCHAR tonos
ENCODING 900
SWIDTH 500 0
DWIDTH 14 0
BBX 5 3 0 18
BITMAP
38
70
E0
ENDCHAR
STARTCHAR dieresistonos
ENCODING 901
SWIDTH 500 0
DWIDTH 14 0
BBX 7 8 3 14
BITMAP
0E
1C
38
00
00
C6
C6
C6
ENDCHAR
STARTCHAR Alphatonos
ENCODING 902
SWIDTH 500 0
DWIDTH 14 0
BBX 12 21 0 0
BITMAP
3800
7000
E000
01F0
03F0
0730
0E30
1C30
3830
7030
6030
6030
7FF0
7FF0
6030
6030
6030
6030
6030
6030
6030
ENDCHAR
STARTCHAR anoteleia
ENCODING 903
SWIDTH 500 0
DWIDTH 14 0
BBX 2 4 6 9
BITMAP
C0
C0
C0
C0
ENDCHAR
STARTCHAR Epsilontonos
ENCODING 904
SWIDTH 500 0
DWIDTH 14 0
BBX 11 18 2 0
BITMAP
FFE0
FFE0
C000
C000
C000
C000
C000
C000
FFC0
FFC0
C000
C000
C000
C000
C000
C000
FFE0
FFE0
ENDCHAR
STARTCHAR Etatonos
ENCODING 905
SWIDTH 500 0
DWIDTH 14 0
BBX 11 18 2 0
BITMAP
C060
C060
C060
C060
C060
C060
C060
C060
FFE0
FFE0
C060
C060
C060
C060
C060
C060
C060
C060
ENDCHAR
STARTCHAR Iotatonos
ENCODING 906
SWIDTH 500 0
DWIDTH 14 0
BBX 11 21 0 0
BITMAP
3800
7000
E000
0FC0
0FC0
0300
0300
0300
0300
0300
0300
0300
0300
0300
0360
0360
0360
0360
0360
0FE0
0FE0
ENDCHAR
STARTCHAR Omicrontonos
ENCODING 908
SWIDTH 500 0
DWIDTH 14 0
BBX 12 21 0 0
BITMAP
3800
7000
E000
7FF0
7FF0
6030
6030
6030
6030
6030
6030
6030
6030
6030
6030
6030
6030
6030
6030
7FF0
7FF0
ENDCHAR
STARTCHAR Upsilontonos
ENCODING 910
SWIDTH 500 0
DWIDTH 14 0
BBX 14 21 0 0
BITMAP
3800
7000
E000
300C
300C
1818
1818
0C30
0C30
0660
0660
03C0
03C0
0180
0180
0180
0180
0180
0180
0180
0180
ENDCHAR
STARTCHAR Omegatonos
ENCODING 911
SWIDTH 500 0
DWIDTH 14 0
BBX 13 21 0 0
BITMAP
3800
7000
E000
7FF8
7FF8
6018
6018
6018
6018
6018
6018
6018
6018
6018
6018
7CF8
7CF8
0CC0
0CC0
7CF8
7CF8
ENDCHAR
STARTCHAR iotadieresistonos
ENCODING 912
SWIDTH 500 0
DWIDTH 14 0
BBX 8 22 2 0
BITMAP
0E
1C
38
00
00
C6
C6
C6
00
78
78
18
18
18
18
1B
1B
1B
1B
1B
1F
1F
ENDCHAR
STARTCHAR Alpha
ENCODING 913
SWIDTH 500 0
DWIDTH 14 0
BBX 11 18 1 0
BITMAP
03E0
07E0
0E60
1C60
3860
7060
E060
C060
C060
FFE0
FFE0
C060
C060
C060
C060
C060
C060
C060
ENDCHAR
STARTCHAR Beta
ENCODING 914
SWIDTH 500 0
DWIDTH 14 0
BBX 11 18 1 0
BITMAP
FFE0
FFE0
C060
C060
C060
C060
C060
FF80
FF80
C060
C060
C060
C060
C060
C060
C060
FFE0
FFE0
ENDCHAR
STARTCHAR Gamma
ENCODING 915
SWIDTH 500 0
DWIDTH 14 0
BBX 11 18 1 0
BITMAP
FFE0
FFE0
C060
C000
C000
C000
C000
C000
C000
C000
C000
C000
C000
C000
C000
C000
C000
C000
ENDCHAR
STARTCHAR Delta
ENCODING 916
SWIDTH 500 0
DWIDTH 14 0
BBX 11 18 1 0
BITMAP
07E0
0FE0
1C60
3860
7060
E060
C060
C060
C060
C060
C060
C060
C060
C060
C060
C060
FFE0
FFE0
ENDCHAR
STARTCHAR Epsilon
ENCODING 917
SWIDTH 500 0
DWIDTH 14 0
BBX 11 18 1 0
BITMAP
FFE0
FFE0
C000
C000
C000
C000
C000
C000
FFC0
FFC0
C000
C000
C000
C000
C000
C000
FFE0
FFE0
ENDCHAR
STARTCHAR Zeta
ENCODING 918
SWIDTH 500 0
DWIDTH 14 0
BBX 11 18 1 0
BITMAP
FFE0
FFE0
0060
0060
00E0
01C0
0380
0700
0E00
1C00
3800
7000
E000
C000
C000
C000
FFE0
FFE0
ENDCHAR
STARTCHAR Eta
ENCODING 919
SWIDTH 500 0
DWIDTH 14 0
BBX 11 18 1 0
BITMAP
C060
C060
C060
C060
C060
C060
C060
C060
FFE0
FFE0
C060
C060
C060
C060
C060
C060
C060
C060
ENDCHAR
STARTCHAR Theta
ENCODING 920
SWIDTH 500 0
DWIDTH 14 0
BBX 11 18 1 0
BITMAP
FFE0
FFE0
C060
C060
C060
C060
C060
C060
DF60
DF60
C060
C060
C060
C060
C060
C060
FFE0
FFE0
ENDCHAR
STARTCHAR Iota
ENCODING 921
SWIDTH 500 0
DWIDTH 14 0
BBX 7 18 4 0
BITMAP
FC
FC
30
30
30
30
30
30
30
30
30
36
36
36
36
36
FE
FE
ENDCHAR
STARTCHAR Kappa
ENCODING 922
SWIDTH 500 0
DWIDTH 14 0
BBX 11 18 1 0
BITMAP
C060
C0E0
C1C0
C380
C700
CE00
DC00
F800
FFE0
FFE0
C060
C060
C060
C060
C060
C060
C060
C060
ENDCHAR
STARTCHAR Lambda
ENCODING 923
SWIDTH 500 0
DWIDTH 14 0
BBX 12 18 1 0
BITMAP
0600
0600
0600
0F00
0F00
0F00
1980
1980
1980
30C0
30C0
30C0
6060
6060
6060
C030
C030
C030
ENDCHAR
STARTCHAR Mu
ENCODING 924
SWIDTH 500 0
DWIDTH 14 0
BBX 12 18 1 0
BITMAP
FFF0
FFF0
C630
C630
C630
C630
C630
C630
C630
C630
C630
C630
C030
C030
C030
C030
C030
C030
ENDCHAR
STARTCHAR Nu
ENCODING 925
SWIDTH 500 0
DWIDTH 14 0
BBX 11 18 1 0
BITMAP
C7E0
CFE0
D860
F060
E060
C060
C060
C060
C060
C060
C060
C060
C060
C060
C060
C060
C060
C060
ENDCHAR
STARTCHAR Xi
ENCODING 926
SWIDTH 500 0
DWIDTH 14 0
BBX 11 18 1 0
BITMAP
FFE0
FFE0
0000
0000
0000
0000
0000
0000
3F80
3F80
0000
0000
0000
0000
0000
0000
FFE0
FFE0
ENDCHAR
STARTCHAR Omicron
ENCODING 927
SWIDTH 500 0
DWIDTH 14 0
BBX 11 18 1 0
BITMAP
FFE0
FFE0
C060
C060
C060
C060
C060
C060
C060
C060
C060
C060
C060
C060
C060
C060
FFE0
FFE0
ENDCHAR
STARTCHAR Pi
ENCODING 928
SWIDTH 500 0
DWIDTH 14 0
BBX 11 18 1 0
BITMAP
FFE0
FFE0
C060
C060
C060
C060
C060
C060
C060
C060
C060
C060
C060
C060
C060
C060
C060
C060
ENDCHAR
STARTCHAR Rho
ENCODING 929
SWIDTH 500 0
DWIDTH 14 0
BBX 11 18 1 0
BITMAP
FFE0
FFE0
C060
C060
C060
C060
C060
C060
C060
FFE0
FFE0
C000
C000
C000
C000
C000
C000
C000
ENDCHAR
STARTCHAR Sigma
ENCODING 931
SWIDTH 500 0
DWIDTH 14 0
BBX 11 18 1 0
BITMAP
FFE0
FFE0
E000
7000
3800
1C00
0E00
0700
0380
0380
0700
0E00
1C00
3800
7000
E000
FFE0
FFE0
ENDCHAR
STARTCHAR Tau
ENCODING 932
SWIDTH 500 0
DWIDTH 14 0
BBX 12 18 1 0
BITMAP
FFF0
FFF0
0600
0600
0600
0600
0600
0600
0600
0600
0600
0600
0600
0600
0600
0600
0600
0600
ENDCHAR
STARTCHAR Upsilon
ENCODING 933
SWIDTH 500 0
DWIDTH 14 0
BBX 12 18 1 0
BITMAP
C030
C030
6060
6060
30C0
30C0
1980
1980
0F00
0F00
0600
0600
0600
0600
0600
0600
0600
0600
ENDCHAR
STARTCHAR Phi
ENCODING 934
SWIDTH 500 0
DWIDTH 14 0
BBX 12 18 1 0
BITMAP
0600
0600
FFF0
FFF0
C630
C630
C630
C630
C630
C630
C630
C630
C630
C630
FFF0
FFF0
0600
0600
ENDCHAR
STARTCHAR Chi
ENCODING 935
SWIDTH 500 0
DWIDTH 14 0
BBX 11 18 1 0
BITMAP
C060
C060
C060
C060
C060
60C0
3180
1B00
0E00
0E00
1B00
3180
60C0
C060
C060
C060
C060
C060
ENDCHAR
STARTCHAR Psi
ENCODING 936
SWIDTH 500 0
DWIDTH 14 0
BBX 12 18 1 0
BITMAP
C630
C630
C630
C630
C630
C630
C630
C630
C630
C630
C630
C630
FFF0
FFF0
0600
0600
0600
0600
ENDCHAR
STARTCHAR Omega
ENCODING 937
SWIDTH 500 0
DWIDTH 14 0
BBX 12 18 1 0
BITMAP
FFF0
FFF0
C030
C030
C030
C030
C030
C030
C030
C030
C030
C030
F9F0
F9F0
1980
1980
F9F0
F9F0
ENDCHAR
STARTCHAR Iotadieresis
ENCODING 938
SWIDTH 500 0
DWIDTH 14 0
BBX 8 22 3 0
BITMAP
C6
C6
C6
00
7E
7E
18
18
18
18
18
18
18
18
18
1B
1B
1B
1B
1B
7F
7F
ENDCHAR
STARTCHAR Upsilondieresis
ENCODING 939
SWIDTH 500 0
DWIDTH 14 0
BBX 12 22 1 0
BITMAP
3180
3180
3180
0000
C030
C030
6060
6060
30C0
30C0
1980
1980
0F00
0F00
0600
0600
0600
0600
0600
0600
0600
0600
ENDCHAR
STARTCHAR alphatonos
ENCODING 940
SWIDTH 500 0
DWIDTH 14 0
BBX 12 17 1 0
BITMAP
0380
0700
0E00
0000
FFB0
FFF0
C0C0
C0C0
C0C0
C0C0
C0C0
C0C0
C0C0
C0C0
C0C0
FFF0
FFB0
ENDCHAR
STARTCHAR epsilontonos
ENCODING 941
SWIDTH 500 0
DWIDTH 14 0
BBX 11 17 1 0
BITMAP
0380
0700
0E00
0000
FFE0
FFE0
C060
C000
C000
7F00
7F00
C000
C000
C000
C060
FFE0
FFE0
ENDCHAR
STARTCHAR etatonos
ENCODING 942
SWIDTH 500 0
DWIDTH 14 0
BBX 11 22 1 -5
BITMAP
0380
0700
0E00
0000
DFE0
FFE0
E060
C060
C060
C060
C060
C060
C060
C060
C060
C060
C060
0060
0060
0060
0060
0060
ENDCHAR
STARTCHAR iotatonos
ENCODING 943
SWIDTH 500 0
DWIDTH 14 0
BBX 7 17 3 0
BITMAP
1C
38
70
00
F0
F0
30
30
30
30
36
36
36
36
36
3E
3E
ENDCHAR
STARTCHAR upsilondieresistonos
ENCODING 944
SWIDTH 500 0
DWIDTH 14 0
BBX 11 22 1 0
BITMAP
0380
0700
0E00
0000
0000
3180
3180
3180
0000
C060
C060
C060
C060
C060
C060
C060
C060
C060
C060
C060
FFE0
FFE0
ENDCHAR
STARTCHAR alpha
ENCODING 945
SWIDTH 500 0
DWIDTH 14 0
BBX 12 13 1 0
BITMAP
FFB0
FFF0
C0C0
C0C0
C0C0
C0C0
C0C0
C0C0
C0C0
C0C0
C0C0
FFF0
FFB0
ENDCHAR
STARTCHAR beta
ENCODING 946
SWIDTH 500 0
DWIDTH 14 0
BBX 11 23 1 -5
BITMAP
FF80
FF80
C180
C180
C180
C180
C180
FF80
FFE0
C060
C060
C060
C060
C060
C060
C060
FFE0
FFE0
C000
C000
C000
C000
C000
ENDCHAR
STARTCHAR gamma
ENCODING 947
SWIDTH 500 0
DWIDTH 14 0
BBX 12 18 1 -5
BITMAP
C030
C030
C030
6060
6060
30C0
30C0
1980
1980
0F00
0F00
0600
0600
0600
0600
0600
0600
0600
ENDCHAR
STARTCHAR delta
ENCODING 948
SWIDTH 500 0
DWIDTH 14 0
BBX 11 18 1 0
BITMAP
3FC0
3FC0
1C00
0E00
0700
FFE0
FFE0
C060
C060
C060
C060
C060
C060
C060
C060
C060
FFE0
FFE0
ENDCHAR
STARTCHAR epsilon
ENCODING 949
SWIDTH 500 0
DWIDTH 14 0
BBX 11 13 1 0
BITMAP
FFE0
FFE0
C060
C000
C000
7F00
7F00
C000
C000
C000
C060
FFE0
FFE0
ENDCHAR
STARTCHAR zeta
ENCODING 950
SWIDTH 500 0
DWIDTH 14 0
BBX 11 23 1 -5
BITMAP
FFE0
FFE0
01C0
0380
0700
0E00
1C00
3800
7000
E000
C000
C000
C000
C000
C000
C000
FFE0
FFE0
0060
0060
0060
01E0
01E0
ENDCHAR
STARTCHAR eta
ENCODING 951
SWIDTH 500 0
DWIDTH 14 0
BBX 11 18 1 -5
BITMAP
DFE0
FFE0
E060
C060
C060
C060
C060
C060
C060
C060
C060
C060
C060
0060
0060
0060
0060
0060
ENDCHAR
STARTCHAR theta
ENCODING 952
SWIDTH 500 0
DWIDTH 14 0
BBX 10 18 2 0
BITMAP
FFC0
FFC0
C0C0
C0C0
C0C0
C0C0
C0C0
C0C0
FFC0
FFC0
C0C0
C0C0
C0C0
C0C0
C0C0
C0C0
FFC0
FFC0
ENDCHAR
STARTCHAR iota
ENCODING 953
SWIDTH 500 0
DWIDTH 14 0
BBX 7 13 3 0
BITMAP
F0
F0
30
30
30
30
36
36
36
36
36
3E
3E
ENDCHAR
STARTCHAR kappa
ENCODING 954
SWIDTH 500 0
DWIDTH 14 0
BBX 10 18 2 0
BITMAP
C000
C000
C000
C000
C000
C1C0
C380
C700
CE00
DC00
F800
FFC0
FFC0
C0C0
C0C0
C0C0
C0C0
C0C0
ENDCHAR
STARTCHAR lambda
ENCODING 955
SWIDTH 500 0
DWIDTH 14 0
BBX 11 18 1 0
BITMAP
3000
3000
1800
1800
0C00
0C00
0E00
0E00
1B00
1B00
3180
3180
60C0
60C0
60C0
C060
C060
C060
ENDCHAR
STARTCHAR mugreek
ENCODING 956
SWIDTH 500 0
DWIDTH 14 0
BBX 11 18 1 -5
BITMAP
C060
C060
C060
C060
C060
C060
C060
C060
C0E0
C1E0
C3E0
FF60
FE60
C000
C000
C000
C000
C000
ENDCHAR
STARTCHAR nu
ENCODING 957
SWIDTH 500 0
DWIDTH 14 0
BBX 9 13 3 0
BITMAP
C180
C180
C180
C180
C180
C180
C180
C380
C700
CE00
DC00
F800
F000
ENDCHAR
STARTCHAR xi
ENCODING 958
SWIDTH 500 0
DWIDTH 14 0
BBX 11 23 1 -5
BITMAP
FFE0
FFE0
C000
C000
C000
C000
C000
7F80
7F80
C000
C000
C000
C000
C000
C000
C000
FFE0
FFE0
0060
0060
0060
01E0
01E0
ENDCHAR
STARTCHAR omicron
ENCODING 959
SWIDTH 500 0
DWIDTH 14 0
BBX 11 13 1 0
BITMAP
FFE0
FFE0
C060
C060
C060
C060
C060
C060
C060
C060
C060
FFE0
FFE0
ENDCHAR
STARTCHAR pi
ENCODING 960
SWIDTH 500 0
DWIDTH 14 0
BBX 11 13 1 0
BITMAP
FFE0
FFE0
C060
C060
C060
C060
C060
C060
C060
C060
C060
C060
C060
ENDCHAR
STARTCHAR rho
ENCODING 961
SWIDTH 500 0
DWIDTH 14 0
BBX 12 18 0 -5
BITMAP
7FF0
7FF0
6030
6030
6030
6030
6030
6030
6030
6030
6030
7FF0
7FF0
6000
6000
6000
E000
E000
ENDCHAR
STARTCHAR sigma1
ENCODING 962
SWIDTH 500 0
DWIDTH 14 0
BBX 11 18 1 -5
BITMAP
FFE0
FFE0
C000
C000
C000
C000
C000
C000
C000
C000
C000
FFE0
FFE0
0060
0060
0060
01E0
01E0
ENDCHAR
STARTCHAR sigma
ENCODING 963
SWIDTH 500 0
DWIDTH 14 0
BBX 12 13 1 0
BITMAP
FFF0
FFF0
C380
C1C0
C0E0
C060
C060
C060
C060
C060
C060
FFE0
FFE0
ENDCHAR
STARTCHAR tau
ENCODING 964
SWIDTH 500 0
DWIDTH 14 0
BBX 12 13 1 0
BITMAP
FFF0
FFF0
0600
0600
0600
0600
0600
0600
0600
0600
0600
07C0
07C0
ENDCHAR
STARTCHAR upsilon
ENCODING 965
SWIDTH 500 0
DWIDTH 14 0
BBX 11 13 1 0
BITMAP
C060
C060
C060
C060
C060
C060
C060
C060
C060
C060
C060
FFE0
FFE0
ENDCHAR
STARTCHAR phi
ENCODING 966
SWIDTH 500 0
DWIDTH 14 0
BBX 12 18 1 -5
BITMAP
C7F0
C7F0
C630
C630
C630
C630
C630
C630
C630
C630
C630
FFF0
FFF0
0600
0600
0600
0600
0600
ENDCHAR
STARTCHAR chi
ENCODING 967
SWIDTH 500 0
DWIDTH 14 0
BBX 11 18 1 -5
BITMAP
C060
C060
C060
C060
C060
60C0
3180
1B00
0E00
0E00
1B00
3180
60C0
C060
C060
C060
C060
C060
ENDCHAR
STARTCHAR psi
ENCODING 968
SWIDTH 500 0
DWIDTH 14 0
BBX 12 18 1 -5
BITMAP
C630
C630
C630
C630
C630
C630
C630
C630
C630
C630
C630
FFF0
FFF0
0600
0600
0600
0600
0600
ENDCHAR
STARTCHAR omega
ENCODING 969
SWIDTH 500 0
DWIDTH 14 0
BBX 12 13 1 0
BITMAP
E070
E070
C030
C030
C630
C630
C630
C630
C630
C630
C630
FFF0
F9F0
ENDCHAR
STARTCHAR iotadieresis
ENCODING 970
SWIDTH 500 0
DWIDTH 14 0
BBX 8 17 2 0
BITMAP
C6
C6
C6
00
78
78
18
18
18
18
1B
1B
1B
1B
1B
1F
1F
ENDCHAR
STARTCHAR upsilondieresis
ENCODING 971
SWIDTH 500 0
DWIDTH 14 0
BBX 11 17 1 0
BITMAP
3180
3180
3180
0000
C060
C060
C060
C060
C060
C060
C060
C060
C060
C060
C060
FFE0
FFE0
ENDCHAR
STARTCHAR omicrontonos
ENCODING 972
SWIDTH 500 0
DWIDTH 14 0
BBX 11 17 1 0
BITMAP
0380
0700
0E00
0000
FFE0
FFE0
C060
C060
C060
C060
C060
C060
C060
C060
C060
FFE0
FFE0
ENDCHAR
STARTCHAR upsilontonos
ENCODING 973
SWIDTH 500 0
DWIDTH 14 0
BBX 11 17 1 0
BITMAP
0380
0700
0E00
0000
C060
C060
C060
C060
C060
C060
C060
C060
C060
C060
C060
FFE0
FFE0
ENDCHAR
STARTCHAR omegatonos
ENCODING 974
SWIDTH 500 0
DWIDTH 14 0
BBX 12 17 1 0
BITMAP
0380
0700
0E00
0000
E070
E070
C030
C030
C630
C630
C630
C630
C630
C630
C630
FFF0
F9F0
ENDCHAR
STARTCHAR uni0400
ENCODING 1024
SWIDTH 500 0
DWIDTH 14 0
BBX 11 22 1 0
BITMAP
3800
1C00
0E00
0000
FFE0
FFE0
C000
C000
C000
C000
C000
C000
FFC0
FFC0
C000
C000
C000
C000
C000
C000
FFE0
FFE0
ENDCHAR
STARTCHAR afii10023
ENCODING 1025
SWIDTH 500 0
DWIDTH 14 0
BBX 11 22 1 0
BITMAP
3180
3180
3180
0000
FFE0
FFE0
C000
C000
C000
C000
C000
C000
FFC0
FFC0
C000
C000
C000
C000
C000
C000
FFE0
FFE0
ENDCHAR
STARTCHAR afii10051
ENCODING 1026
SWIDTH 500 0
DWIDTH 14 0
BBX 12 21 0 -3
BITMAP
FC00
FC00
3000
3000
3000
3000
3FF0
3FF0
3030
3030
3030
3030
3030
3030
3030
3030
3030
3030
0060
0060
00C0
ENDCHAR
STARTCHAR afii10052
ENCODING 1027
SWIDTH 500 0
DWIDTH 14 0
BBX 11 22 1 0
BITMAP
0380
0700
0E00
0000
FFE0
FFE0
C060
C000
C000
C000
C000
C000
C000
C000
C000
C000
C000
C000
C000
C000
C000
C000
ENDCHAR
STARTCHAR afii10053
ENCODING 1028
SWIDTH 500 0
DWIDTH 14 0
BBX 11 18 1 0
BITMAP
FFE0
FFE0
C060
C060
C000
C000
C000
C000
FF00
FF00
C000
C000
C000
C000
C060
C060
FFE0
FFE0
ENDCHAR
STARTCHAR afii10054
ENCODING 1029
SWIDTH 500 0
DWIDTH 14 0
BBX 11 18 1 0
BITMAP
FFE0
FFE0
C060
C060
C000
C000
C000
C000
FFE0
FFE0
0060
0060
0060
0060
C060
C060
FFE0
FFE0
ENDCHAR
STARTCHAR afii10055
ENCODING 1030
SWIDTH 500 0
DWIDTH 14 0
BBX 7 18 4 0
BITMAP
FC
FC
30
30
30
30
30
30
30
30
30
36
36
36
36
36
FE
FE
ENDCHAR
STARTCHAR afii10056
ENCODING 1031
SWIDTH 500 0
DWIDTH 14 0
BBX 8 22 3 0
BITMAP
C6
C6
C6
00
7E
7E
18
18
18
18
18
18
18
18
18
1B
1B
1B
1B
1B
7F
7F
ENDCHAR
STARTCHAR afii10057
ENCODING 1032
SWIDTH 500 0
DWIDTH 14 0
BBX 12 18 1 0
BITMAP
03F0
03F0
00C0
00C0
00C0
00C0
00C0
00C0
00C0
00C0
00C0
00C0
00C0
00C0
C0C0
C0C0
FFC0
FFC0
ENDCHAR
STARTCHAR afii10058
ENCODING 1033
SWIDTH 500 0
DWIDTH 14 0
BBX 12 18 1 0
BITMAP
0E00
1E00
3E00
7600
E600
C600
C600
C7F0
C7F0
C630
C630
C630
C630
C630
C630
C630
C7F0
C7F0
ENDCHAR
STARTCHAR afii10059
ENCODING 1034
SWIDTH 500 0
DWIDTH 14 0
BBX 12 18 1 0
BITMAP
C600
C600
C600
C600
C600
C600
C600
C7F0
FFF0
FE30
C630
C630
C630
C630
C630
C630
C7F0
C7F0
ENDCHAR
STARTCHAR afii10060
ENCODING 1035
SWIDTH 500 0
DWIDTH 14 0
BBX 12 18 0 0
BITMAP
FC00
FC00
3000
3000
3000
3000
3FF0
3FF0
3030
3030
3030
3030
3030
3030
3030
3030
3030
3030
ENDCHAR
STARTCHAR afii10061
ENCODING 1036
SWIDTH 500 0
DWIDTH 14 0
BBX 11 22 1 0
BITMAP
0380
0700
0E00
0000
C060
C0E0
C1C0
C380
C700
CE00
DC00
F800
FFE0
FFE0
C060
C060
C060
C060
C060
C060
C060
C060
ENDCHAR
STARTCHAR uni040D
ENCODING 1037
SWIDTH 500 0
DWIDTH 14 0
BBX 11 22 1 0
BITMAP
3800
1C00
0E00
0000
C060
C060
C060
C060
C060
C060
C060
C060
C060
C060
C060
C060
C060
C0E0
C1E0
C360
FE60
FC60
ENDCHAR
STARTCHAR afii10062
ENCODING 1038
SWIDTH 500 0
DWIDTH 14 0
BBX 11 22 1 0
BITMAP
3180
3F80
3F80
0000
C060
C060
C060
C060
C060
C060
C060
C060
C060
FFE0
FFE0
0060
0060
0060
0060
0060
7FE0
7FE0
ENDCHAR
STARTCHAR afii10145
ENCODING 1039
SWIDTH 500 0
DWIDTH 14 0
BBX 12 22 1 -4
BITMAP
C030
C030
C030
C030
C030
C030
C030
C030
C030
C030
C030
C030
C030
C030
C030
C030
FFF0
FFF0
0600
0600
0600
0600
ENDCHAR
STARTCHAR afii10017
ENCODING 1040
SWIDTH 500 0
DWIDTH 14 0
BBX 11 18 1 0
BITMAP
03E0
07E0
0E60
1C60
3860
7060
E060
C060
C060
FFE0
FFE0
C060
C060
C060
C060
C060
C060
C060
ENDCHAR
STARTCHAR afii10018
ENCODING 1041
SWIDTH 500 0
DWIDTH 14 0
BBX 11 18 1 0
BITMAP
FFC0
FFC0
C000
C000
C000
C000
C000
FFE0
FFE0
C060
C060
C060
C060
C060
C060
C060
FFE0
FFE0
ENDCHAR
STARTCHAR afii10019
ENCODING 1042
SWIDTH 500 0
DWIDTH 14 0
BBX 11 18 1 0
BITMAP
FFE0
FFE0
C060
C060
C060
C060
C060
FF80
FF80
C060
C060
C060
C060
C060
C060
C060
FFE0
FFE0
ENDCHAR
STARTCHAR afii10020
ENCODING 1043
SWIDTH 500 0
DWIDTH 14 0
BBX 11 18 1 0
BITMAP
FFE0
FFE0
C060
C000
C000
C000
C000
C000
C000
C000
C000
C000
C000
C000
C000
C000
C000
C000
ENDCHAR
STARTCHAR afii10021
ENCODING 1044
SWIDTH 500 0
DWIDTH 14 0
BBX 11 18 2 0
BITMAP
FC00
FE00
C700
C380
C1C0
C0E0
C060
C060
C060
C060
C060
C060
C060
C060
C060
C060
FFE0
FFC0
ENDCHAR
STARTCHAR afii10022
ENCODING 1045
SWIDTH 500 0
DWIDTH 14 0
BBX 11 18 1 0
BITMAP
FFE0
FFE0
C000
C000
C000
C000
C000
C000
FFC0
FFC0
C000
C000
C000
C000
C000
C000
FFE0
FFE0
ENDCHAR
STARTCHAR afii10024
ENCODING 1046
SWIDTH 500 0
DWIDTH 14 0
BBX 12 18 1 0
BITMAP
C630
C630
C630
C630
C630
C630
C630
C630
FFF0
FFF0
C630
C630
C630
C630
C630
C630
C630
C630
ENDCHAR
STARTCHAR afii10025
ENCODING 1047
SWIDTH 500 0
DWIDTH 14 0
BBX 11 18 1 0
BITMAP
FFE0
FFE0
C060
C060
0060
0060
0060
00C0
1FC0
1FC0
0060
0060
0060
0060
C060
C060
FFE0
FFE0
ENDCHAR
STARTCHAR afii10026
ENCODING 1048
SWIDTH 500 0
DWIDTH 14 0
BBX 11 18 1 0
BITMAP
C060
C060
C060
C060
C060
C060
C060
C060
C060
C060
C060
C060
C060
C0E0
C1E0
C360
FE60
FC60
ENDCHAR
STARTCHAR afii10027
ENCODING 1049
SWIDTH 500 0
DWIDTH 14 0
BBX 11 22 1 0
BITMAP
3180
3F80
3F80
0000
C060
C060
C060
C060
C060
C060
C060
C060
C060
C060
C060
C060
C060
C0E0
C1E0
C360
FE60
FC60
ENDCHAR
STARTCHAR afii10028
ENCODING 1050
SWIDTH 500 0
DWIDTH 14 0
BBX 11 18 1 0
BITMAP
C060
C0E0
C1C0
C380
C700
CE00
DC00
F800
FFE0
FFE0
C060
C060
C060
C060
C060
C060
C060
C060
ENDCHAR
STARTCHAR afii10029
ENCODING 1051
SWIDTH 500 0
DWIDTH 14 0
BBX 10 18 2 0
BITMAP
07C0
0FC0
1CC0
38C0
70C0
E0C0
C0C0
C0C0
C0C0
C0C0
C0C0
C0C0
C0C0
C0C0
C0C0
C0C0
C0C0
C0C0
ENDCHAR
STARTCHAR afii10030
ENCODING 1052
SWIDTH 500 0
DWIDTH 14 0
BBX 12 18 1 0
BITMAP
FFF0
FFF0
C630
C630
C630
C630
C630
C630
C630
C630
C630
C630
C030
C030
C030
C030
C030
C030
ENDCHAR
STARTCHAR afii10031
ENCODING 1053
SWIDTH 500 0
DWIDTH 14 0
BBX 11 18 1 0
BITMAP
C060
C060
C060
C060
C060
C060
C060
C060
FFE0
FFE0
C060
C060
C060
C060
C060
C060
C060
C060
ENDCHAR
STARTCHAR afii10032
ENCODING 1054
SWIDTH 500 0
DWIDTH 14 0
BBX 11 18 1 0
BITMAP
FFE0
FFE0
C060
C060
C060
C060
C060
C060
C060
C060
C060
C060
C060
C060
C060
C060
FFE0
FFE0
ENDCHAR
STARTCHAR afii10033
ENCODING 1055
SWIDTH 500 0
DWIDTH 14 0
BBX 11 18 1 0
BITMAP
FFE0
FFE0
C060
C060
C060
C060
C060
C060
C060
C060
C060
C060
C060
C060
C060
C060
C060
C060
ENDCHAR
STARTCHAR afii10034
ENCODING 1056
SWIDTH 500 0
DWIDTH 14 0
BBX 11 18 1 0
BITMAP
FFE0
FFE0
C060
C060
C060
C060
C060
C060
C060
FFE0
FFE0
C000
C000
C000
C000
C000
C000
C000
ENDCHAR
STARTCHAR afii10035
ENCODING 1057
SWIDTH 500 0
DWIDTH 14 0
BBX 11 18 1 0
BITMAP
FFE0
FFE0
C060
C000
C000
C000
C000
C000
C000
C000
C000
C000
C000
C000
C000
C060
FFE0
FFE0
ENDCHAR
STARTCHAR afii10036
ENCODING 1058
SWIDTH 500 0
DWIDTH 14 0
BBX 12 18 1 0
BITMAP
FFF0
FFF0
0600
0600
0600
0600
0600
0600
0600
0600
0600
0600
0600
0600
0600
0600
0600
0600
ENDCHAR
STARTCHAR afii10037
ENCODING 1059
SWIDTH 500 0
DWIDTH 14 0
BBX 11 18 1 0
BITMAP
C060
C060
C060
C060
C060
C060
C060
C060
C060
FFE0
FFE0
0060
0060
0060
0060
0060
7FE0
7FE0
ENDCHAR
STARTCHAR afii10038
ENCODING 1060
SWIDTH 500 0
DWIDTH 14 0
BBX 12 22 1 -2
BITMAP
0600
0600
FFF0
FFF0
C630
C630
C630
C630
C630
C630
C630
C630
C630
C630
C630
C630
C630
C630
FFF0
FFF0
0600
0600
ENDCHAR
STARTCHAR afii10039
ENCODING 1061
SWIDTH 500 0
DWIDTH 14 0
BBX 11 18 1 0
BITMAP
C060
C060
C060
C060
C060
E0E0
71C0
3B80
1F00
1F00
3B80
71C0
E0E0
C060
C060
C060
C060
C060
ENDCHAR
STARTCHAR afii10040
ENCODING 1062
SWIDTH 500 0
DWIDTH 14 0
BBX 12 22 1 -4
BITMAP
C060
C060
C060
C060
C060
C060
C060
C060
C060
C060
C060
C060
C060
C060
C060
C060
FFF0
FFF0
0030
0030
07F0
07F0
ENDCHAR
STARTCHAR afii10041
ENCODING 1063
SWIDTH 500 0
DWIDTH 14 0
BBX 11 18 1 0
BITMAP
C060
C060
C060
C060
C060
C060
C060
C060
FFE0
FFE0
0060
0060
0060
0060
0060
0060
0060
0060
ENDCHAR
STARTCHAR afii10042
ENCODING 1064
SWIDTH 500 0
DWIDTH 14 0
BBX 12 18 1 0
BITMAP
C030
C030
C030
C030
C030
C030
C030
C630
C630
C630
C630
C630
C630
C630
C630
C630
FFF0
FFF0
ENDCHAR
STARTCHAR afii10043
ENCODING 1065
SWIDTH 500 0
DWIDTH 14 0
BBX 13 22 1 -4
BITMAP
C030
C030
C030
C030
C030
C030
C030
C630
C630
C630
C630
C630
C630
C630
C630
C630
FFF8
FFF8
0018
0018
03F8
03F8
ENDCHAR
STARTCHAR afii10044
ENCODING 1066
SWIDTH 500 0
DWIDTH 14 0
BBX 13 18 0 0
BITMAP
F000
F000
3000
3000
3000
3000
3FF8
3FF8
3018
3018
3018
3018
3018
3018
3018
3018
3FF8
3FF8
ENDCHAR
STARTCHAR afii10045
ENCODING 1067
SWIDTH 500 0
DWIDTH 14 0
BBX 12 18 1 0
BITMAP
C030
C030
C030
C030
C030
C030
FFB0
FFB0
C1B0
C1B0
C1B0
C1B0
C1B0
C1B0
C1B0
C1B0
FFB0
FFB0
ENDCHAR
STARTCHAR afii10046
ENCODING 1068
SWIDTH 500 0
DWIDTH 14 0
BBX 11 18 1 0
BITMAP
C000
C000
C000
C000
C000
C000
FFE0
FFE0
C060
C060
C060
C060
C060
C060
C060
C060
FFE0
FFE0
ENDCHAR
STARTCHAR afii10047
ENCODING 1069
SWIDTH 500 0
DWIDTH 14 0
BBX 11 18 1 0
BITMAP
FFE0
FFE0
C060
C060
0060
0060
0060
0060
1FE0
1FE0
0060
0060
0060
0060
C060
C060
FFE0
FFE0
ENDCHAR
STARTCHAR afii10048
ENCODING 1070
SWIDTH 500 0
DWIDTH 14 0
BBX 12 18 1 0
BITMAP
CFF0
CFF0
CC30
CC30
CC30
CC30
CC30
CC30
FC30
FC30
CC30
CC30
CC30
CC30
CC30
CC30
CFF0
CFF0
ENDCHAR
STARTCHAR afii10049
ENCODING 1071
SWIDTH 500 0
DWIDTH 14 0
BBX 11 18 1 0
BITMAP
FFE0
FFE0
C060
C060
C060
C060
C060
C060
C060
FFE0
FFE0
1C60
3860
3860
7060
7060
E060
E060
ENDCHAR
STARTCHAR afii10065
ENCODING 1072
SWIDTH 500 0
DWIDTH 14 0
BBX 11 13 1 0
BITMAP
3FE0
3FE0
0060
0060
FFE0
FFE0
C060
C060
C060
C060
C060
FFE0
FFE0
ENDCHAR
STARTCHAR afii10066
ENCODING 1073
SWIDTH 500 0
DWIDTH 14 0
BBX 11 16 1 0
BITMAP
FFC0
FFC0
C000
C000
FFE0
FFE0
C060
C060
C060
C060
C060
C060
C060
C060
FFE0
FFE0
ENDCHAR
STARTCHAR afii10067
ENCODING 1074
SWIDTH 500 0
DWIDTH 14 0
BBX 11 18 1 0
BITMAP
FF00
FF00
C300
C300
C300
C300
C300
FFE0
FFE0
C060
C060
C060
C060
C060
C060
C060
FFE0
FFE0
ENDCHAR
STARTCHAR afii10068
ENCODING 1075
SWIDTH 500 0
DWIDTH 14 0
BBX 11 13 1 0
BITMAP
FFE0
FFE0
C060
C000
C000
C000
C000
C000
C000
C000
C000
C000
C000
ENDCHAR
STARTCHAR afii10069
ENCODING 1076
SWIDTH 500 0
DWIDTH 14 0
BBX 11 18 1 -5
BITMAP
FFE0
FFE0
C060
C060
C060
C060
C060
C060
C060
C060
C060
FFE0
FFE0
0060
0060
0060
7FE0
7FE0
ENDCHAR
STARTCHAR afii10070
ENCODING 1077
SWIDTH 500 0
DWIDTH 14 0
BBX 11 13 1 0
BITMAP
FFE0
FFE0
C060
C060
C060
FFE0
FFE0
C000
C000
C000
C000
FFC0
FFC0
ENDCHAR
STARTCHAR afii10072
ENCODING 1078
SWIDTH 500 0
DWIDTH 14 0
BBX 12 13 1 0
BITMAP
C630
C630
C630
C630
C630
FFF0
FFF0
C630
C630
C630
C630
C630
C630
ENDCHAR
STARTCHAR afii10073
ENCODING 1079
SWIDTH 500 0
DWIDTH 14 0
BBX 11 13 1 0
BITMAP
FFE0
FFE0
0060
0060
00C0
1FC0
1FC0
0060
0060
0060
0060
FFE0
FFE0
ENDCHAR
STARTCHAR afii10074
ENCODING 1080
SWIDTH 500 0
DWIDTH 14 0
BBX 11 13 1 0
BITMAP
C060
C060
C060
C060
C060
C060
C060
C060
C060
C060
C0E0
FFE0
FF60
ENDCHAR
STARTCHAR afii10075
ENCODING 1081
SWIDTH 500 0
DWIDTH 14 0
BBX 11 17 1 0
BITMAP
3180
3F80
3F80
0000
C060
C060
C060
C060
C060
C060
C060
C060
C060
C060
C0E0
FFE0
FF60
ENDCHAR
STARTCHAR afii10076
ENCODING 1082
SWIDTH 500 0
DWIDTH 14 0
BBX 10 18 2 0
BITMAP
C000
C000
C000
C000
C000
C1C0
C380
C700
CE00
DC00
F800
FFC0
FFC0
C0C0
C0C0
C0C0
C0C0
C0C0
ENDCHAR
STARTCHAR afii10077
ENCODING 1083
SWIDTH 500 0
DWIDTH 14 0
BBX 10 13 2 0
BITMAP
07C0
0FC0
18C0
30C0
60C0
C0C0
C0C0
C0C0
C0C0
C0C0
C0C0
C0C0
C0C0
ENDCHAR
STARTCHAR afii10078
ENCODING 1084
SWIDTH 500 0
DWIDTH 14 0
BBX 12 13 1 0
BITMAP
FFF0
FFF0
C630
C630
C630
C630
C630
C630
C030
C030
C030
C030
C030
ENDCHAR
STARTCHAR afii10079
ENCODING 1085
SWIDTH 500 0
DWIDTH 14 0
BBX 11 13 1 0
BITMAP
C060
C060
C060
C060
C060
FFE0
FFE0
C060
C060
C060
C060
C060
C060
ENDCHAR
STARTCHAR afii10080
ENCODING 1086
SWIDTH 500 0
DWIDTH 14 0
BBX 11 13 1 0
BITMAP
FFE0
FFE0
C060
C060
C060
C060
C060
C060
C060
C060
C060
FFE0
FFE0
ENDCHAR
STARTCHAR afii10081
ENCODING 1087
SWIDTH 500 0
DWIDTH 14 0
BBX 11 13 1 0
BITMAP
FFE0
FFE0
C060
C060
C060
C060
C060
C060
C060
C060
C060
C060
C060
ENDCHAR
STARTCHAR afii10082
ENCODING 1088
SWIDTH 500 0
DWIDTH 14 0
BBX 11 18 1 -5
BITMAP
FFE0
FFE0
C060
C060
C060
C060
C060
C060
C060
C060
C060
FFE0
FFE0
C000
C000
C000
C000
C000
ENDCHAR
STARTCHAR afii10083
ENCODING 1089
SWIDTH 500 0
DWIDTH 14 0
BBX 11 13 1 0
BITMAP
FFE0
FFE0
C000
C000
C000
C000
C000
C000
C000
C000
C000
FFE0
FFE0
ENDCHAR
STARTCHAR afii10084
ENCODING 1090
SWIDTH 500 0
DWIDTH 14 0
BBX 12 13 1 0
BITMAP
FFF0
FFF0
0600
0600
0600
0600
0600
0600
0600
0600
0600
0600
0600
ENDCHAR
STARTCHAR afii10085
ENCODING 1091
SWIDTH 500 0
DWIDTH 14 0
BBX 11 18 1 -5
BITMAP
C060
C060
C060
C060
C060
C060
C060
C060
C060
C060
C060
FFE0
FFE0
0060
0060
0060
7FE0
7FE0
ENDCHAR
STARTCHAR afii10086
ENCODING 1092
SWIDTH 500 0
DWIDTH 14 0
BBX 12 17 1 -2
BITMAP
0600
0600
FFF0
FFF0
C630
C630
C630
C630
C630
C630
C630
C630
C630
FFF0
FFF0
0600
0600
ENDCHAR
STARTCHAR afii10087
ENCODING 1093
SWIDTH 500 0
DWIDTH 14 0
BBX 11 13 1 0
BITMAP
C060
C060
E0E0
71C0
3B80
1F00
0E00
1F00
3B80
71C0
E0E0
C060
C060
ENDCHAR
STARTCHAR afii10088
ENCODING 1094
SWIDTH 500 0
DWIDTH 14 0
BBX 12 17 1 -4
BITMAP
C060
C060
C060
C060
C060
C060
C060
C060
C060
C060
C060
FFF0
FFF0
0030
0030
07F0
07F0
ENDCHAR
STARTCHAR afii10089
ENCODING 1095
SWIDTH 500 0
DWIDTH 14 0
BBX 11 13 1 0
BITMAP
C060
C060
C060
C060
C060
FFE0
FFE0
0060
0060
0060
0060
0060
0060
ENDCHAR
STARTCHAR afii10090
ENCODING 1096
SWIDTH 500 0
DWIDTH 14 0
BBX 12 13 1 0
BITMAP
C030
C030
C030
C030
C030
C630
C630
C630
C630
C630
C630
FFF0
FFF0
ENDCHAR
STARTCHAR afii10091
ENCODING 1097
SWIDTH 500 0
DWIDTH 14 0
BBX 13 17 1 -4
BITMAP
C030
C030
C030
C030
C030
C630
C630
C630
C630
C630
C630
FFF8
FFF8
0018
0018
03F8
03F8
ENDCHAR
STARTCHAR afii10092
ENCODING 1098
SWIDTH 500 0
DWIDTH 14 0
BBX 12 13 0 0
BITMAP
F000
F000
3000
3000
3FF0
3FF0
3030
3030
3030
3030
3030
3FF0
3FF0
ENDCHAR
STARTCHAR afii10093
ENCODING 1099
SWIDTH 500 0
DWIDTH 14 0
BBX 12 13 1 0
BITMAP
C030
C030
C030
C030
FFB0
FFB0
C1B0
C1B0
C1B0
C1B0
C1B0
FFB0
FFB0
ENDCHAR
STARTCHAR afii10094
ENCODING 1100
SWIDTH 500 0
DWIDTH 14 0
BBX 10 13 2 0
BITMAP
C000
C000
C000
C000
FFC0
FFC0
C0C0
C0C0
C0C0
C0C0
C0C0
FFC0
FFC0
ENDCHAR
STARTCHAR afii10095
ENCODING 1101
SWIDTH 500 0
DWIDTH 14 0
BBX 11 13 1 0
BITMAP
FFE0
FFE0
C060
0060
0060
1FE0
1FE0
0060
0060
0060
C060
FFE0
FFE0
ENDCHAR
STARTCHAR afii10096
ENCODING 1102
SWIDTH 500 0
DWIDTH 14 0
BBX 12 13 1 0
BITMAP
CFF0
CFF0
CC30
CC30
CC30
CC30
FC30
FC30
CC30
CC30
CC30
CFF0
CFF0
ENDCHAR
STARTCHAR afii10097
ENCODING 1103
SWIDTH 500 0
DWIDTH 14 0
BBX 11 13 1 0
BITMAP
FFE0
FFE0
C060
C060
C060
C060
FFE0
FFE0
1C60
3860
3860
7060
7060
ENDCHAR
STARTCHAR uni0450
ENCODING 1104
SWIDTH 500 0
DWIDTH 14 0
BBX 11 17 1 0
BITMAP
3800
1C00
0E00
0000
FFE0
FFE0
C060
C060
C060
FFE0
FFE0
C000
C000
C000
C000
FFC0
FFC0
ENDCHAR
STARTCHAR afii10071
ENCODING 1105
SWIDTH 500 0
DWIDTH 14 0
BBX 11 17 1 0
BITMAP
3180
3180
3180
0000
FFE0
FFE0
C060
C060
C060
FFE0
FFE0
C000
C000
C000
C000
FFC0
FFC0
ENDCHAR
STARTCHAR afii10099
ENCODING 1106
SWIDTH 500 0
DWIDTH 14 0
BBX 12 21 0 -3
BITMAP
6000
FF00
FF00
6000
6000
7FF0
7FF0
6030
6030
6030
6030
6030
6030
6030
6030
6030
6030
6030
0060
00C0
0180
ENDCHAR
STARTCHAR afii10100
ENCODING 1107
SWIDTH 500 0
DWIDTH 14 0
BBX 11 17 1 0
BITMAP
0380
0700
0E00
0000
FFE0
FFE0
C060
C000
C000
C000
C000
C000
C000
C000
C000
C000
C000
ENDCHAR
STARTCHAR afii10101
ENCODING 1108
SWIDTH 500 0
DWIDTH 14 0
BBX 11 13 1 0
BITMAP
FFE0
FFE0
C060
C000
C000
FF00
FF00
C000
C000
C000
C060
FFE0
FFE0
ENDCHAR
STARTCHAR afii10102
ENCODING 1109
SWIDTH 500 0
DWIDTH 14 0
BBX 11 13 1 0
BITMAP
FFE0
FFE0
C000
C000
C000
FFE0
FFE0
0060
0060
0060
0060
FFE0
FFE0
ENDCHAR
STARTCHAR afii10103
ENCODING 1110
SWIDTH 500 0
DWIDTH 14 0
BBX 7 18 4 0
BITMAP
30
30
30
00
00
F0
F0
30
30
30
30
36
36
36
36
36
FE
FE
ENDCHAR
STARTCHAR afii10104
ENCODING 1111
SWIDTH 500 0
DWIDTH 14 0
BBX 8 17 3 0
BITMAP
C6
C6
C6
00
78
78
18
18
18
18
1B
1B
1B
1B
1B
7F
7F
ENDCHAR
STARTCHAR afii10105
ENCODING 1112
SWIDTH 500 0
DWIDTH 14 0
BBX 9 23 2 -5
BITMAP
0180
0180
0180
0000
0000
0780
0780
0180
0180
0180
0180
0180
0180
0180
0180
0180
0180
0180
0180
C180
C180
FF80
FF80
ENDCHAR
STARTCHAR afii10106
ENCODING 1113
SWIDTH 500 0
DWIDTH 14 0
BBX 12 13 1 0
BITMAP
1E00
3E00
7600
E600
C7F0
C7F0
C630
C630
C630
C630
C630
C7F0
C7F0
ENDCHAR
STARTCHAR afii10107
ENCODING 1114
SWIDTH 500 0
DWIDTH 14 0
BBX 12 13 1 0
BITMAP
C600
C600
C600
C600
C7F0
FFF0
FE30
C630
C630
C630
C630
C7F0
C7F0
ENDCHAR
STARTCHAR afii10108
ENCODING 1115
SWIDTH 500 0
DWIDTH 14 0
BBX 12 18 0 0
BITMAP
6000
FF00
FF00
6000
6000
7FF0
7FF0
6030
6030
6030
6030
6030
6030
6030
6030
6030
6030
6030
ENDCHAR
STARTCHAR afii10109
ENCODING 1116
SWIDTH 500 0
DWIDTH 14 0
BBX 10 17 2 0
BITMAP
0700
0E00
1C00
0000
C1C0
C380
C700
CE00
DC00
F800
FFC0
FFC0
C0C0
C0C0
C0C0
C0C0
C0C0
ENDCHAR
STARTCHAR uni045D
ENCODING 1117
SWIDTH 500 0
DWIDTH 14 0
BBX 11 17 1 0
BITMAP
3800
1C00
0E00
0000
C060
C060
C060
C060
C060
C060
C060
C060
C060
C060
C0E0
FFE0
FF60
ENDCHAR
STARTCHAR afii10110
ENCODING 1118
SWIDTH 500 0
DWIDTH 14 0
BBX 11 22 1 -5
BITMAP
3180
3F80
3F80
0000
C060
C060
C060
C060
C060
C060
C060
C060
C060
C060
C060
FFE0
FFE0
0060
0060
0060
7FE0
7FE0
ENDCHAR
STARTCHAR afii10193
ENCODING 1119
SWIDTH 500 0
DWIDTH 14 0
BBX 12 17 1 -4
BITMAP
C030
C030
C030
C030
C030
C030
C030
C030
C030
C030
C030
FFF0
FFF0
0600
0600
0600
0600
ENDCHAR
STARTCHAR afii10044
ENCODING 1122
SWIDTH 500 0
DWIDTH 14 0
BBX 13 18 0 0
BITMAP
1800
1800
FF80
FF80
1800
1800
1FF8
1FF8
1818
1818
1818
1818
1818
1818
1818
1818
1FF8
1FF8
ENDCHAR
STARTCHAR afii10092
ENCODING 1123
SWIDTH 500 0
DWIDTH 14 0
BBX 12 16 0 0
BITMAP
3000
3000
3000
FE00
FE00
3000
3000
3FF0
3FF0
3030
3030
3030
3030
3030
3FF0
3FF0
ENDCHAR
STARTCHAR afii10050
ENCODING 1168
SWIDTH 500 0
DWIDTH 14 0
BBX 11 21 1 0
BITMAP
0060
0060
0060
FFE0
FFE0
C060
C000
C000
C000
C000
C000
C000
C000
C000
C000
C000
C000
C000
C000
C000
C000
ENDCHAR
STARTCHAR afii10098
ENCODING 1169
SWIDTH 500 0
DWIDTH 14 0
BBX 11 16 1 0
BITMAP
0060
0060
0060
FFE0
FFE0
C060
C000
C000
C000
C000
C000
C000
C000
C000
C000
C000
ENDCHAR
STARTCHAR uni0492
ENCODING 1170
SWIDTH 500 0
DWIDTH 14 0
BBX 12 18 0 0
BITMAP
7FF0
7FF0
6030
6000
6000
6000
6000
6000
FF00
FF00
6000
6000
6000
6000
6000
6000
6000
6000
ENDCHAR
STARTCHAR uni0493
ENCODING 1171
SWIDTH 500 0
DWIDTH 14 0
BBX 12 13 0 0
BITMAP
7FF0
7FF0
6030
6000
6000
6000
FF00
FF00
6000
6000
6000
6000
6000
ENDCHAR
STARTCHAR uni0494
ENCODING 1172
SWIDTH 500 0
DWIDTH 14 0
BBX 11 21 1 -3
BITMAP
FFE0
FFE0
C060
C000
C000
C000
C000
C000
C000
FFE0
FFE0
C060
C060
C060
C060
C060
C060
C060
0060
00C0
0180
ENDCHAR
STARTCHAR uni0495
ENCODING 1173
SWIDTH 500 0
DWIDTH 14 0
BBX 11 16 1 -3
BITMAP
FFE0
FFE0
C060
C000
C000
C000
FFC0
FFC0
C0C0
C0C0
C0C0
C0C0
C0C0
00C0
0180
0300
ENDCHAR
STARTCHAR uni0496
ENCODING 1174
SWIDTH 500 0
DWIDTH 14 0
BBX 13 22 1 -4
BITMAP
C630
C630
C630
C630
C630
C630
C630
C630
FFF0
FFF0
C630
C630
C630
C630
C630
C630
C638
C638
0018
0018
0018
0018
ENDCHAR
STARTCHAR uni0497
ENCODING 1175
SWIDTH 500 0
DWIDTH 14 0
BBX 13 17 1 -4
BITMAP
C630
C630
C630
C630
C630
FFF0
FFF0
C630
C630
C630
C630
C638
C638
0018
0018
0018
0018
ENDCHAR
STARTCHAR uni0498
ENCODING 1176
SWIDTH 500 0
DWIDTH 14 0
BBX 11 23 1 -5
BITMAP
FFE0
FFE0
C060
C060
0060
0060
0060
00C0
1FC0
1FC0
0060
0060
0060
0060
C060
C060
FFE0
FFE0
0C00
0C00
0C00
0C00
0C00
ENDCHAR
STARTCHAR uni0499
ENCODING 1177
SWIDTH 500 0
DWIDTH 14 0
BBX 11 18 1 -5
BITMAP
FFE0
FFE0
0060
0060
00C0
1FC0
1FC0
0060
0060
0060
0060
FFE0
FFE0
0C00
0C00
0C00
0C00
0C00
ENDCHAR
STARTCHAR uni049A
ENCODING 1178
SWIDTH 500 0
DWIDTH 14 0
BBX 12 22 1 -4
BITMAP
C060
C0E0
C1C0
C380
C700
CE00
DC00
F800
F000
FFE0
FFE0
C060
C060
C060
C060
C060
C060
C070
0030
0030
0030
0030
ENDCHAR
STARTCHAR uni049B
ENCODING 1179
SWIDTH 500 0
DWIDTH 14 0
BBX 10 22 2 -4
BITMAP
C000
C000
C000
C000
C000
C1C0
C380
C700
CE00
DC00
F800
FF80
FF80
C180
C180
C180
C180
C1C0
00C0
00C0
00C0
00C0
ENDCHAR
STARTCHAR uni049C
ENCODING 1180
SWIDTH 500 0
DWIDTH 14 0
BBX 12 18 1 0
BITMAP
C030
C030
C070
C0E0
D9C0
DB80
DF00
DE00
FC00
FFF0
FFF0
D830
D830
D830
C030
C030
C030
C030
ENDCHAR
STARTCHAR uni049D
ENCODING 1181
SWIDTH 500 0
DWIDTH 14 0
BBX 12 18 1 0
BITMAP
C000
C000
C000
C000
C000
C030
C070
D8E0
D9C0
DB80
FF00
FFF0
FFF0
D830
D830
D830
C030
C030
ENDCHAR
STARTCHAR uni04A0
ENCODING 1184
SWIDTH 500 0
DWIDTH 14 0
BBX 13 18 0 0
BITMAP
F018
F038
3070
30E0
31C0
3380
3700
3E00
3C00
3FF8
3FF8
3018
3018
3018
3018
3018
3018
3018
ENDCHAR
STARTCHAR uni04A1
ENCODING 1185
SWIDTH 500 0
DWIDTH 14 0
BBX 12 18 0 0
BITMAP
F000
F000
3000
3000
3000
3070
30E0
31C0
3380
3700
3E00
3FF0
3FF0
3030
3030
3030
3030
3030
ENDCHAR
STARTCHAR uni04A2
ENCODING 1186
SWIDTH 500 0
DWIDTH 14 0
BBX 12 22 1 -4
BITMAP
C060
C060
C060
C060
C060
C060
C060
C060
FFE0
FFE0
C060
C060
C060
C060
C060
C060
C070
C070
0030
0030
0030
0030
ENDCHAR
STARTCHAR uni04A3
ENCODING 1187
SWIDTH 500 0
DWIDTH 14 0
BBX 12 17 1 -4
BITMAP
C060
C060
C060
C060
C060
FFE0
FFE0
C060
C060
C060
C060
C070
C070
0030
0030
0030
0030
ENDCHAR
STARTCHAR uni04A4
ENCODING 1188
SWIDTH 500 0
DWIDTH 14 0
BBX 12 18 1 0
BITMAP
C1F0
C1F0
C180
C180
C180
C180
C180
C180
FF80
FF80
C180
C180
C180
C180
C180
C180
C180
C180
ENDCHAR
STARTCHAR uni04A5
ENCODING 1189
SWIDTH 500 0
DWIDTH 14 0
BBX 12 13 1 0
BITMAP
C1F0
C1F0
C180
C180
C180
FF80
FF80
C180
C180
C180
C180
C180
C180
ENDCHAR
STARTCHAR uni04AA
ENCODING 1194
SWIDTH 500 0
DWIDTH 14 0
BBX 11 23 1 -5
BITMAP
FFE0
FFE0
C060
C000
C000
C000
C000
C000
C000
C000
C000
C000
C000
C000
C000
C060
FFE0
FFE0
0C00
0C00
0C00
0C00
0C00
ENDCHAR
STARTCHAR uni04AB
ENCODING 1195
SWIDTH 500 0
DWIDTH 14 0
BBX 11 18 1 -5
BITMAP
FFE0
FFE0
C000
C000
C000
C000
C000
C000
C000
C000
C000
FFE0
FFE0
0C00
0C00
0C00
0C00
0C00
ENDCHAR
STARTCHAR uni04AE
ENCODING 1198
SWIDTH 500 0
DWIDTH 14 0
BBX 12 18 1 0
BITMAP
C030
C030
6060
6060
30C0
30C0
1980
1980
0F00
0F00
0600
0600
0600
0600
0600
0600
0600
0600
ENDCHAR
STARTCHAR uni04AF
ENCODING 1199
SWIDTH 500 0
DWIDTH 14 0
BBX 12 18 1 -5
BITMAP
C030
C030
C030
6060
6060
30C0
30C0
1980
1980
0F00
0F00
0600
0600
0600
0600
0600
0600
0600
ENDCHAR
STARTCHAR uni04B0
ENCODING 1200
SWIDTH 500 0
DWIDTH 14 0
BBX 12 18 1 0
BITMAP
C030
C030
6060
6060
30C0
30C0
1980
1980
0F00
0F00
0600
7FE0
7FE0
0600
0600
0600
0600
0600
ENDCHAR
STARTCHAR uni04B1
ENCODING 1201
SWIDTH 500 0
DWIDTH 14 0
BBX 12 18 1 -5
BITMAP
C030
C030
C030
6060
6060
30C0
30C0
1980
1980
0F00
0F00
0600
7FE0
7FE0
0600
0600
0600
0600
ENDCHAR
STARTCHAR uni04B2
ENCODING 1202
SWIDTH 500 0
DWIDTH 14 0
BBX 12 22 1 -4
BITMAP
C060
C060
C060
C060
C060
E0E0
71C0
3B80
1F00
1F00
3B80
71C0
E0E0
C060
C060
C060
C070
C070
0030
0030
0030
0030
ENDCHAR
STARTCHAR uni04B3
ENCODING 1203
SWIDTH 500 0
DWIDTH 14 0
BBX 12 17 1 -4
BITMAP
C060
C060
E0E0
71C0
3B80
1F00
0E00
1F00
3B80
71C0
E0E0
C070
C070
0030
0030
0030
0030
ENDCHAR
STARTCHAR uni04B6
ENCODING 1206
SWIDTH 500 0
DWIDTH 14 0
BBX 12 22 1 -4
BITMAP
C060
C060
C060
C060
C060
C060
C060
C060
FFE0
FFE0
0060
0060
0060
0060
0060
0060
0070
0070
0030
0030
0030
0030
ENDCHAR
STARTCHAR uni04B7
ENCODING 1207
SWIDTH 500 0
DWIDTH 14 0
BBX 12 17 1 -4
BITMAP
C060
C060
C060
C060
C060
FFE0
FFE0
0060
0060
0060
0060
0070
0070
0030
0030
0030
0030
ENDCHAR
STARTCHAR uni04B8
ENCODING 1208
SWIDTH 500 0
DWIDTH 14 0
BBX 11 18 1 0
BITMAP
C060
C060
C060
C060
CC60
CC60
CC60
CC60
FFE0
FFE0
0C60
0C60
0C60
0C60
0060
0060
0060
0060
ENDCHAR
STARTCHAR uni04B9
ENCODING 1209
SWIDTH 500 0
DWIDTH 14 0
BBX 11 13 1 0
BITMAP
C060
C060
CC60
CC60
CC60
FFE0
FFE0
0C60
0C60
0C60
0060
0060
0060
ENDCHAR
STARTCHAR uni04BA
ENCODING 1210
SWIDTH 500 0
DWIDTH 14 0
BBX 11 18 1 0
BITMAP
C000
C000
C000
C000
C000
C000
C000
FFE0
FFE0
C060
C060
C060
C060
C060
C060
C060
C060
C060
ENDCHAR
STARTCHAR uni04BB
ENCODING 1211
SWIDTH 500 0
DWIDTH 14 0
BBX 11 13 1 0
BITMAP
C000
C000
C000
C000
C000
FFE0
FFE0
C060
C060
C060
C060
C060
C060
ENDCHAR
STARTCHAR uni04D0
ENCODING 1232
SWIDTH 500 0
DWIDTH 14 0
BBX 11 22 1 0
BITMAP
3180
3F80
3F80
0000
03E0
07E0
0E60
1C60
3860
7060
E060
C060
C060
FFE0
FFE0
C060
C060
C060
C060
C060
C060
C060
ENDCHAR
STARTCHAR uni04D1
ENCODING 1233
SWIDTH 500 0
DWIDTH 14 0
BBX 11 17 1 0
BITMAP
3180
3F80
3F80
0000
3FE0
3FE0
0060
0060
FFE0
FFE0
C060
C060
C060
C060
C060
FFE0
FFE0
ENDCHAR
STARTCHAR uni04D2
ENCODING 1234
SWIDTH 500 0
DWIDTH 14 0
BBX 11 22 1 0
BITMAP
3180
3180
3180
0000
03E0
07E0
0E60
1C60
3860
7060
E060
C060
C060
FFE0
FFE0
C060
C060
C060
C060
C060
C060
C060
ENDCHAR
STARTCHAR uni04D3
ENCODING 1235
SWIDTH 500 0
DWIDTH 14 0
BBX 11 17 1 0
BITMAP
3180
3180
3180
0000
3FE0
3FE0
0060
0060
FFE0
FFE0
C060
C060
C060
C060
C060
FFE0
FFE0
ENDCHAR
STARTCHAR uni04D4
ENCODING 1236
SWIDTH 500 0
DWIDTH 14 0
BBX 13 18 0 0
BITMAP
0FF8
1FF8
3B00
7300
E300
C300
C300
C300
FFF0
FFF0
C300
C300
C300
C300
C300
C300
C3F8
C3F8
ENDCHAR
STARTCHAR uni04D5
ENCODING 1237
SWIDTH 500 0
DWIDTH 14 0
BBX 13 13 0 0
BITMAP
7FF8
7FF8
0318
0318
FF18
FF18
C3F8
C3F8
C300
C300
C300
FFF0
FFF0
ENDCHAR
STARTCHAR uni04D6
ENCODING 1238
SWIDTH 500 0
DWIDTH 14 0
BBX 11 22 1 0
BITMAP
3180
3F80
3F80
0000
FFE0
FFE0
C000
C000
C000
C000
C000
C000
FFC0
FFC0
C000
C000
C000
C000
C000
C000
FFE0
FFE0
ENDCHAR
STARTCHAR uni04D7
ENCODING 1239
SWIDTH 500 0
DWIDTH 14 0
BBX 11 17 1 0
BITMAP
3180
3F80
3F80
0000
FFE0
FFE0
C060
C060
C060
FFE0
FFE0
C000
C000
C000
C000
FFC0
FFC0
ENDCHAR
STARTCHAR uni04D8
ENCODING 1240
SWIDTH 500 0
DWIDTH 14 0
BBX 11 18 1 0
BITMAP
7FE0
7FE0
0060
0060
0060
0060
0060
0060
FFE0
FFE0
C060
C060
C060
C060
C060
C060
FFE0
FFE0
ENDCHAR
STARTCHAR afii10846
ENCODING 1241
SWIDTH 500 0
DWIDTH 14 0
BBX 11 13 1 0
BITMAP
7FE0
7FE0
0060
0060
0060
0060
FFE0
FFE0
C060
C060
C060
FFE0
FFE0
ENDCHAR
STARTCHAR uni04DA
ENCODING 1242
SWIDTH 500 0
DWIDTH 14 0
BBX 11 22 1 0
BITMAP
3180
3180
3180
0000
3FE0
3FE0
0060
0060
0060
0060
0060
0060
FFE0
FFE0
C060
C060
C060
C060
C060
C060
FFE0
FFE0
ENDCHAR
STARTCHAR uni04DB
ENCODING 1243
SWIDTH 500 0
DWIDTH 14 0
BBX 11 17 1 0
BITMAP
3180
3180
3180
0000
7FE0
7FE0
0060
0060
0060
0060
FFE0
FFE0
C060
C060
C060
FFE0
FFE0
ENDCHAR
STARTCHAR uni04DC
ENCODING 1244
SWIDTH 500 0
DWIDTH 14 0
BBX 12 22 1 0
BITMAP
30C0
30C0
30C0
0000
C630
C630
C630
C630
C630
C630
C630
C630
FFF0
FFF0
C630
C630
C630
C630
C630
C630
C630
C630
ENDCHAR
STARTCHAR uni04DD
ENCODING 1245
SWIDTH 500 0
DWIDTH 14 0
BBX 12 17 1 0
BITMAP
30C0
30C0
30C0
0000
C630
C630
C630
C630
C630
FFF0
FFF0
C630
C630
C630
C630
C630
C630
ENDCHAR
STARTCHAR uni04DE
ENCODING 1246
SWIDTH 500 0
DWIDTH 14 0
BBX 11 22 1 0
BITMAP
3180
3180
3180
0000
FFE0
FFE0
C060
C060
0060
0060
0060
00C0
1FC0
1FC0
0060
0060
0060
0060
C060
C060
FFE0
FFE0
ENDCHAR
STARTCHAR uni04DF
ENCODING 1247
SWIDTH 500 0
DWIDTH 14 0
BBX 11 17 1 0
BITMAP
3180
3180
3180
0000
FFE0
FFE0
0060
0060
00C0
1FC0
1FC0
0060
0060
0060
0060
FFE0
FFE0
ENDCHAR
STARTCHAR uni04E2
ENCODING 1250
SWIDTH 500 0
DWIDTH 14 0
BBX 11 22 1 0
BITMAP
3F80
3F80
0000
0000
C060
C060
C060
C060
C060
C060
C060
C060
C060
C060
C060
C060
C060
C0E0
C1E0
C360
FE60
FC60
ENDCHAR
STARTCHAR uni04E3
ENCODING 1251
SWIDTH 500 0
DWIDTH 14 0
BBX 11 17 1 0
BITMAP
3F80
3F80
0000
0000
C060
C060
C060
C060
C060
C060
C060
C060
C060
C060
C0E0
FFE0
FF60
ENDCHAR
STARTCHAR uni04E4
ENCODING 1252
SWIDTH 500 0
DWIDTH 14 0
BBX 11 22 1 0
BITMAP
3180
3180
3180
0000
C060
C060
C060
C060
C060
C060
C060
C060
C060
C060
C060
C060
C060
C0E0
C1E0
C360
FE60
FC60
ENDCHAR
STARTCHAR uni04E5
ENCODING 1253
SWIDTH 500 0
DWIDTH 14 0
BBX 11 17 1 0
BITMAP
3180
3180
3180
0000
C060
C060
C060
C060
C060
C060
C060
C060
C060
C060
C0E0
FFE0
FF60
ENDCHAR
STARTCHAR uni04E6
ENCODING 1254
SWIDTH 500 0
DWIDTH 14 0
BBX 11 22 1 0
BITMAP
3180
3180
3180
0000
FFE0
FFE0
C060
C060
C060
C060
C060
C060
C060
C060
C060
C060
C060
C060
C060
C060
FFE0
FFE0
ENDCHAR
STARTCHAR uni04E7
ENCODING 1255
SWIDTH 500 0
DWIDTH 14 0
BBX 11 17 1 0
BITMAP
3180
3180
3180
0000
FFE0
FFE0
C060
C060
C060
C060
C060
C060
C060
C060
C060
FFE0
FFE0
ENDCHAR
STARTCHAR uni04E8
ENCODING 1256
SWIDTH 500 0
DWIDTH 14 0
BBX 11 18 1 0
BITMAP
FFE0
FFE0
C060
C060
C060
C060
C060
C060
FFE0
FFE0
C060
C060
C060
C060
C060
C060
FFE0
FFE0
ENDCHAR
STARTCHAR uni04E9
ENCODING 1257
SWIDTH 500 0
DWIDTH 14 0
BBX 11 13 1 0
BITMAP
FFE0
FFE0
C060
C060
C060
FFE0
FFE0
C060
C060
C060
C060
FFE0
FFE0
ENDCHAR
STARTCHAR uni04EA
ENCODING 1258
SWIDTH 500 0
DWIDTH 14 0
BBX 11 22 1 0
BITMAP
3180
3180
3180
0000
FFE0
FFE0
C060
C060
C060
C060
C060
C060
FFE0
FFE0
C060
C060
C060
C060
C060
C060
FFE0
FFE0
ENDCHAR
STARTCHAR uni04EB
ENCODING 1259
SWIDTH 500 0
DWIDTH 14 0
BBX 11 17 1 0
BITMAP
3180
3180
3180
0000
FFE0
FFE0
C060
C060
C060
FFE0
FFE0
C060
C060
C060
C060
FFE0
FFE0
ENDCHAR
STARTCHAR uni04EC
ENCODING 1260
SWIDTH 500 0
DWIDTH 14 0
BBX 11 22 1 0
BITMAP
3180
3180
3180
0000
FFE0
FFE0
C060
C060
0060
0060
0060
0060
1FE0
1FE0
0060
0060
0060
0060
C060
C060
FFE0
FFE0
ENDCHAR
STARTCHAR uni04ED
ENCODING 1261
SWIDTH 500 0
DWIDTH 14 0
BBX 11 17 1 0
BITMAP
3180
3180
3180
0000
FFE0
FFE0
C060
0060
0060
1FE0
1FE0
0060
0060
0060
C060
FFE0
FFE0
ENDCHAR
STARTCHAR uni04EE
ENCODING 1262
SWIDTH 500 0
DWIDTH 14 0
BBX 11 22 1 0
BITMAP
3F80
3F80
0000
0000
C060
C060
C060
C060
C060
C060
C060
C060
C060
FFE0
FFE0
0060
0060
0060
0060
0060
7FE0
7FE0
ENDCHAR
STARTCHAR uni04EF
ENCODING 1263
SWIDTH 500 0
DWIDTH 14 0
BBX 11 22 1 -5
BITMAP
3F80
3F80
0000
0000
C060
C060
C060
C060
C060
C060
C060
C060
C060
C060
C060
FFE0
FFE0
0060
0060
0060
7FE0
7FE0
ENDCHAR
STARTCHAR uni04F0
ENCODING 1264
SWIDTH 500 0
DWIDTH 14 0
BBX 11 22 1 0
BITMAP
3180
3180
3180
0000
C060
C060
C060
C060
C060
C060
C060
C060
C060
FFE0
FFE0
0060
0060
0060
0060
0060
7FE0
7FE0
ENDCHAR
STARTCHAR uni04F1
ENCODING 1265
SWIDTH 500 0
DWIDTH 14 0
BBX 11 22 1 -5
BITMAP
3180
3180
3180
0000
C060
C060
C060
C060
C060
C060
C060
C060
C060
C060
C060
FFE0
FFE0
0060
0060
0060
7FE0
7FE0
ENDCHAR
STARTCHAR uni04F2
ENCODING 1266
SWIDTH 500 0
DWIDTH 14 0
BBX 12 22 1 0
BITMAP
0E70
1CE0
39C0
0000
C060
C060
C060
C060
C060
C060
C060
C060
C060
FFE0
FFE0
0060
0060
0060
0060
0060
7FE0
7FE0
ENDCHAR
STARTCHAR uni04F3
ENCODING 1267
SWIDTH 500 0
DWIDTH 14 0
BBX 12 22 1 -5
BITMAP
0E70
1CE0
39C0
0000
C060
C060
C060
C060
C060
C060
C060
C060
C060
C060
C060
FFE0
FFE0
0060
0060
0060
7FE0
7FE0
ENDCHAR
STARTCHAR uni04F4
ENCODING 1268
SWIDTH 500 0
DWIDTH 14 0
BBX 11 22 1 0
BITMAP
3180
3180
3180
0000
C060
C060
C060
C060
C060
C060
C060
C060
FFE0
FFE0
0060
0060
0060
0060
0060
0060
0060
0060
ENDCHAR
STARTCHAR uni04F5
ENCODING 1269
SWIDTH 500 0
DWIDTH 14 0
BBX 11 17 1 0
BITMAP
3180
3180
3180
0000
C060
C060
C060
C060
C060
FFE0
FFE0
0060
0060
0060
0060
0060
0060
ENDCHAR
STARTCHAR uni04F8
ENCODING 1272
SWIDTH 500 0
DWIDTH 14 0
BBX 12 22 1 0
BITMAP
3180
3180
3180
0000
C030
C030
C030
C030
C030
C030
FFB0
FFB0
C1B0
C1B0
C1B0
C1B0
C1B0
C1B0
C1B0
C1B0
FFB0
FFB0
ENDCHAR
STARTCHAR uni04F9
ENCODING 1273
SWIDTH 500 0
DWIDTH 14 0
BBX 12 17 1 0
BITMAP
3180
3180
3180
0000
C030
C030
C030
C030
FFB0
FFB0
C1B0
C1B0
C1B0
C1B0
C1B0
FFB0
FFB0
ENDCHAR
STARTCHAR Klinebelow
ENCODING 7732
SWIDTH 500 0
DWIDTH 14 0
BBX 11 22 1 -4
BITMAP
C060
C0E0
C1C0
C380
C700
CE00
DC00
F800
F000
FFE0
FFE0
C060
C060
C060
C060
C060
C060
C060
0000
0000
7FC0
7FC0
ENDCHAR
STARTCHAR klinebelow
ENCODING 7733
SWIDTH 500 0
DWIDTH 14 0
BBX 10 22 2 -4
BITMAP
C000
C000
C000
C000
C000
C1C0
C380
C700
CE00
DC00
F800
FFC0
FFC0
C0C0
C0C0
C0C0
C0C0
C0C0
0000
0000
7F80
7F80
ENDCHAR
STARTCHAR Edotbelow
ENCODING 7864
SWIDTH 500 0
DWIDTH 14 0
BBX 11 22 1 -4
BITMAP
FFE0
FFE0
C000
C000
C000
C000
C000
C000
FFC0
FFC0
C000
C000
C000
C000
C000
C000
FFE0
FFE0
0000
0600
0600
0600
ENDCHAR
STARTCHAR edotbelow
ENCODING 7865
SWIDTH 500 0
DWIDTH 14 0
BBX 11 17 1 -4
BITMAP
FFE0
FFE0
C060
C060
C060
FFE0
FFE0
C000
C000
C000
C000
FFC0
FFC0
0000
0600
0600
0600
ENDCHAR
STARTCHAR Etilde
ENCODING 7868
SWIDTH 500 0
DWIDTH 14 0
BBX 11 22 1 0
BITMAP
7CC0
7FC0
67C0
0000
FFE0
FFE0
C000
C000
C000
C000
C000
C000
FFC0
FFC0
C000
C000
C000
C000
C000
C000
FFE0
FFE0
ENDCHAR
STARTCHAR etilde
ENCODING 7869
SWIDTH 500 0
DWIDTH 14 0
BBX 11 17 1 0
BITMAP
7CC0
7FC0
67C0
0000
FFE0
FFE0
C060
C060
C060
FFE0
FFE0
C000
C000
C000
C000
FFC0
FFC0
ENDCHAR
STARTCHAR Odotbelow
ENCODING 7884
SWIDTH 500 0
DWIDTH 14 0
BBX 11 22 1 -4
BITMAP
FFE0
FFE0
C060
C060
C060
C060
C060
C060
C060
C060
C060
C060
C060
C060
C060
C060
FFE0
FFE0
0000
0600
0600
0600
ENDCHAR
STARTCHAR odotbelow
ENCODING 7885
SWIDTH 500 0
DWIDTH 14 0
BBX 11 17 1 -4
BITMAP
FFE0
FFE0
C060
C060
C060
C060
C060
C060
C060
C060
C060
FFE0
FFE0
0000
0600
0600
0600
ENDCHAR
STARTCHAR Ytilde
ENCODING 7928
SWIDTH 500 0
DWIDTH 14 0
BBX 11 22 1 0
BITMAP
7CC0
7FC0
67C0
0000
C060
C060
C060
C060
C060
C060
C060
C060
C060
FFE0
FFE0
0060
0060
0060
0060
0060
7FE0
7FE0
ENDCHAR
STARTCHAR ytilde
ENCODING 7929
SWIDTH 500 0
DWIDTH 14 0
BBX 11 22 1 -5
BITMAP
7CC0
7FC0
67C0
0000
C060
C060
C060
C060
C060
C060
C060
C060
C060
C060
C060
FFE0
FFE0
0060
0060
0060
7FE0
7FE0
ENDCHAR
STARTCHAR uni2000
ENCODING 8192
SWIDTH 500 0
DWIDTH 14 0
BBX 0 0 0 0
BITMAP
ENDCHAR
STARTCHAR uni2001
ENCODING 8193
SWIDTH 500 0
DWIDTH 14 0
BBX 0 0 0 0
BITMAP
ENDCHAR
STARTCHAR enspace
ENCODING 8194
SWIDTH 500 0
DWIDTH 14 0
BBX 0 0 0 0
BITMAP
ENDCHAR
STARTCHAR uni2003
ENCODING 8195
SWIDTH 500 0
DWIDTH 14 0
BBX 0 0 0 0
BITMAP
ENDCHAR
STARTCHAR uni2004
ENCODING 8196
SWIDTH 500 0
DWIDTH 14 0
BBX 0 0 0 0
BITMAP
ENDCHAR
STARTCHAR uni2005
ENCODING 8197
SWIDTH 500 0
DWIDTH 14 0
BBX 0 0 0 0
BITMAP
ENDCHAR
STARTCHAR uni2006
ENCODING 8198
SWIDTH 500 0
DWIDTH 14 0
BBX 0 0 0 0
BITMAP
ENDCHAR
STARTCHAR uni2007
ENCODING 8199
SWIDTH 500 0
DWIDTH 14 0
BBX 0 0 0 0
BITMAP
ENDCHAR
STARTCHAR uni2008
ENCODING 8200
SWIDTH 500 0
DWIDTH 14 0
BBX 0 0 0 0
BITMAP
ENDCHAR
STARTCHAR uni2009
ENCODING 8201
SWIDTH 500 0
DWIDTH 14 0
BBX 0 0 0 0
BITMAP
ENDCHAR
STARTCHAR uni200A
ENCODING 8202
SWIDTH 500 0
DWIDTH 14 0
BBX 0 0 0 0
BITMAP
ENDCHAR
STARTCHAR hyphentwo
ENCODING 8208
SWIDTH 500 0
DWIDTH 14 0
BBX 10 2 2 8
BITMAP
FFC0
FFC0
ENDCHAR
STARTCHAR uni2011
ENCODING 8209
SWIDTH 500 0
DWIDTH 14 0
BBX 10 2 2 8
BITMAP
FFC0
FFC0
ENDCHAR
STARTCHAR figuredash
ENCODING 8210
SWIDTH 500 0
DWIDTH 14 0
BBX 11 2 1 8
BITMAP
FFE0
FFE0
ENDCHAR
STARTCHAR endash
ENCODING 8211
SWIDTH 500 0
DWIDTH 14 0
BBX 11 2 1 8
BITMAP
FFE0
FFE0
ENDCHAR
STARTCHAR emdash
ENCODING 8212
SWIDTH 500 0
DWIDTH 14 0
BBX 12 2 1 8
BITMAP
FFF0
FFF0
ENDCHAR
STARTCHAR afii00208
ENCODING 8213
SWIDTH 500 0
DWIDTH 14 0
BBX 12 2 1 8
BITMAP
FFF0
FFF0
ENDCHAR
STARTCHAR dblverticalbar
ENCODING 8214
SWIDTH 500 0
DWIDTH 14 0
BBX 6 18 4 0
BITMAP
CC
CC
CC
CC
CC
CC
CC
CC
CC
CC
CC
CC
CC
CC
CC
CC
CC
CC
ENDCHAR
STARTCHAR underscoredbl
ENCODING 8215
SWIDTH 500 0
DWIDTH 14 0
BBX 11 5 1 -6
BITMAP
FFE0
FFE0
0000
FFE0
FFE0
ENDCHAR
STARTCHAR quoteleft
ENCODING 8216
SWIDTH 500 0
DWIDTH 14 0
BBX 3 6 5 14
BITMAP
C0
C0
C0
C0
E0
E0
ENDCHAR
STARTCHAR quoteright
ENCODING 8217
SWIDTH 500 0
DWIDTH 14 0
BBX 3 6 5 14
BITMAP
E0
E0
60
60
60
60
ENDCHAR
STARTCHAR quotesinglbase
ENCODING 8218
SWIDTH 500 0
DWIDTH 14 0
BBX 3 6 5 -2
BITMAP
E0
E0
60
60
60
60
ENDCHAR
STARTCHAR quotedblleft
ENCODING 8220
SWIDTH 500 0
DWIDTH 14 0
BBX 8 6 3 14
BITMAP
C6
C6
C6
C6
E7
E7
ENDCHAR
STARTCHAR quotedblright
ENCODING 8221
SWIDTH 500 0
DWIDTH 14 0
BBX 8 6 3 14
BITMAP
E7
E7
63
63
63
63
ENDCHAR
STARTCHAR quotedblbase
ENCODING 8222
SWIDTH 500 0
DWIDTH 14 0
BBX 8 6 2 -2
BITMAP
E7
E7
63
63
63
63
ENDCHAR
STARTCHAR dagger
ENCODING 8224
SWIDTH 500 0
DWIDTH 14 0
BBX 10 18 2 0
BITMAP
0C00
0C00
0C00
0C00
0C00
0C00
0C00
0C00
0C00
0C00
0C00
0C00
FFC0
FFC0
0C00
0C00
0C00
0C00
ENDCHAR
STARTCHAR daggerdbl
ENCODING 8225
SWIDTH 500 0
DWIDTH 14 0
BBX 10 18 2 0
BITMAP
0C00
0C00
0C00
0C00
FFC0
FFC0
0C00
0C00
0C00
0C00
0C00
0C00
FFC0
FFC0
0C00
0C00
0C00
0C00
ENDCHAR
STARTCHAR bullet
ENCODING 8226
SWIDTH 500 0
DWIDTH 14 0
BBX 6 6 4 5
BITMAP
78
FC
FC
FC
FC
78
ENDCHAR
STARTCHAR ellipsis
ENCODING 8230
SWIDTH 500 0
DWIDTH 14 0
BBX 12 4 1 0
BITMAP
C630
C630
C630
C630
ENDCHAR
STARTCHAR perthousand
ENCODING 8240
SWIDTH 500 0
DWIDTH 14 0
BBX 13 18 0 0
BITMAP
7CC0
7CC0
6D80
7D80
7F00
0300
0600
0600
0C00
0C00
1800
1800
3000
3FF8
6FF8
6DD8
CFF8
CFF8
ENDCHAR
STARTCHAR minute
ENCODING 8242
SWIDTH 500 0
DWIDTH 14 0
BBX 3 7 6 13
BITMAP
E0
E0
E0
C0
C0
C0
C0
ENDCHAR
STARTCHAR second
ENCODING 8243
SWIDTH 500 0
DWIDTH 14 0
BBX 8 7 3 13
BITMAP
E7
E7
E7
C6
C6
C6
C6
ENDCHAR
STARTCHAR guilsinglleft
ENCODING 8249
SWIDTH 500 0
DWIDTH 14 0
BBX 9 13 2 0
BITMAP
0380
0700
0E00
1C00
3800
7000
E000
7000
3800
1C00
0E00
0700
0380
ENDCHAR
STARTCHAR guilsinglright
ENCODING 8250
SWIDTH 500 0
DWIDTH 14 0
BBX 9 13 2 0
BITMAP
E000
7000
3800
1C00
0E00
0700
0380
0700
0E00
1C00
3800
7000
E000
ENDCHAR
STARTCHAR exclamdbl
ENCODING 8252
SWIDTH 500 0
DWIDTH 14 0
BBX 7 18 3 0
BITMAP
C6
C6
C6
C6
C6
C6
C6
C6
C6
C6
C6
C6
00
00
C6
C6
C6
C6
ENDCHAR
STARTCHAR overline
ENCODING 8254
SWIDTH 500 0
DWIDTH 14 0
BBX 11 2 1 20
BITMAP
FFE0
FFE0
ENDCHAR
STARTCHAR nsuperior
ENCODING 8319
SWIDTH 500 0
DWIDTH 14 0
BBX 7 8 3 12
BITMAP
FC
FE
C6
C6
C6
C6
C6
C6
ENDCHAR
STARTCHAR peseta
ENCODING 8359
SWIDTH 500 0
DWIDTH 14 0
BBX 13 18 0 0
BITMAP
FF00
FF00
C300
C300
C300
C300
C300
C300
FF60
FF60
C0F8
C0F8
C060
C060
C060
C060
C078
C078
ENDCHAR
STARTCHAR Euro
ENCODING 8364
SWIDTH 500 0
DWIDTH 14 0
BBX 12 18 0 0
BITMAP
0FC0
1FE0
3070
6000
6000
6000
FF80
FF80
6000
6000
FF80
FF80
6000
6000
6000
3070
1FE0
0FC0
ENDCHAR
STARTCHAR uni20AE
ENCODING 8366
SWIDTH 500 0
DWIDTH 14 0
BBX 12 18 1 0
BITMAP
FFF0
FFF0
0600
0600
0600
0600
07E0
0780
1E00
7FE0
0780
1E00
7E00
0600
0600
0600
0600
0600
ENDCHAR
STARTCHAR afii61352
ENCODING 8470
SWIDTH 500 0
DWIDTH 14 0
BBX 14 18 0 0
BITMAP
CF00
DF7C
F37C
E36C
C37C
C37C
C300
C300
C300
C300
C300
C300
C37C
C37C
C300
C37C
C37C
C300
ENDCHAR
STARTCHAR trademark
ENCODING 8482
SWIDTH 500 0
DWIDTH 14 0
BBX 14 7 0 11
BITMAP
FD04
FD8C
31FC
31AC
318C
318C
318C
ENDCHAR
STARTCHAR Ohm
ENCODING 8486
SWIDTH 500 0
DWIDTH 14 0
BBX 12 18 1 0
BITMAP
3FC0
7FE0
C030
C030
C030
C030
C030
C030
C030
C030
C030
E070
70E0
39C0
1980
1980
F9F0
F9F0
ENDCHAR
STARTCHAR arrowleft
ENCODING 8592
SWIDTH 500 0
DWIDTH 14 0
BBX 13 12 0 2
BITMAP
0400
0C00
1C00
3C00
7C00
FFF8
FFF8
7C00
3C00
1C00
0C00
0400
ENDCHAR
STARTCHAR arrowup
ENCODING 8593
SWIDTH 500 0
DWIDTH 14 0
BBX 12 18 1 0
BITMAP
0600
0F00
1F80
3FC0
7FE0
FFF0
0600
0600
0600
0600
0600
0600
0600
0600
0600
0600
0600
0600
ENDCHAR
STARTCHAR arrowright
ENCODING 8594
SWIDTH 500 0
DWIDTH 14 0
BBX 13 12 0 2
BITMAP
0100
0180
01C0
01E0
01F0
FFF8
FFF8
01F0
01E0
01C0
0180
0100
ENDCHAR
STARTCHAR arrowdown
ENCODING 8595
SWIDTH 500 0
DWIDTH 14 0
BBX 12 18 1 0
BITMAP
0600
0600
0600
0600
0600
0600
0600
0600
0600
0600
0600
0600
FFF0
7FE0
3FC0
1F80
0F00
0600
ENDCHAR
STARTCHAR arrowboth
ENCODING 8596
SWIDTH 500 0
DWIDTH 14 0
BBX 14 12 0 2
BITMAP
0480
0CC0
1CE0
3CF0
7CF8
FFFC
FFFC
7CF8
3CF0
1CE0
0CC0
0480
ENDCHAR
STARTCHAR arrowupdn
ENCODING 8597
SWIDTH 500 0
DWIDTH 14 0
BBX 12 18 1 0
BITMAP
0600
0F00
1F80
3FC0
7FE0
FFF0
0600
0600
0600
0600
0600
0600
FFF0
7FE0
3FC0
1F80
0F00
0600
ENDCHAR
STARTCHAR arrowupdnbse
ENCODING 8616
SWIDTH 500 0
DWIDTH 14 0
BBX 12 19 1 -1
BITMAP
0600
0F00
1F80
3FC0
7FE0
FFF0
0600
0600
0600
0600
0600
0600
FFF0
7FE0
3FC0
1F80
0F00
FFF0
FFF0
ENDCHAR
STARTCHAR carriagereturn
ENCODING 8629
SWIDTH 500 0
DWIDTH 14 0
BBX 13 18 0 0
BITMAP
0018
0018
0018
0018
0018
0018
0418
0C18
1C18
3C18
7C18
FFF8
FFF8
7C00
3C00
1C00
0C00
0400
ENDCHAR
STARTCHAR arrowdblleft
ENCODING 8656
SWIDTH 500 0
DWIDTH 14 0
BBX 13 12 0 2
BITMAP
0400
0C00
1C00
3FF8
7FF8
FC00
FC00
7FF8
3FF8
1C00
0C00
0400
ENDCHAR
STARTCHAR arrowdblup
ENCODING 8657
SWIDTH 500 0
DWIDTH 14 0
BBX 12 18 1 0
BITMAP
0600
0F00
1F80
3FC0
7FE0
FFF0
1980
1980
1980
1980
1980
1980
1980
1980
1980
1980
1980
1980
ENDCHAR
STARTCHAR arrowdblright
ENCODING 8658
SWIDTH 500 0
DWIDTH 14 0
BBX 13 12 0 2
BITMAP
0100
0180
01C0
FFE0
FFF0
01F8
01F8
FFF0
FFE0
01C0
0180
0100
ENDCHAR
STARTCHAR arrowdbldown
ENCODING 8659
SWIDTH 500 0
DWIDTH 14 0
BBX 12 18 1 0
BITMAP
1980
1980
1980
1980
1980
1980
1980
1980
1980
1980
1980
1980
FFF0
7FE0
3FC0
1F80
0F00
0600
ENDCHAR
STARTCHAR arrowdblboth
ENCODING 8660
SWIDTH 500 0
DWIDTH 14 0
BBX 14 12 0 2
BITMAP
0480
0CC0
1CE0
3FF0
7FF8
FCFC
FCFC
7FF8
3FF0
1CE0
0CC0
0480
ENDCHAR
STARTCHAR uni21D5
ENCODING 8661
SWIDTH 500 0
DWIDTH 14 0
BBX 12 18 1 0
BITMAP
0600
0F00
1F80
3FC0
7FE0
FFF0
1980
1980
1980
1980
1980
1980
FFF0
7FE0
3FC0
1F80
0F00
0600
ENDCHAR
STARTCHAR emptyset
ENCODING 8709
SWIDTH 500 0
DWIDTH 14 0
BBX 11 16 1 1
BITMAP
00E0
01C0
3F80
7FC0
C360
C360
C660
C660
CC60
CC60
D860
D860
7FC0
3F80
7000
E000
ENDCHAR
STARTCHAR increment
ENCODING 8710
SWIDTH 500 0
DWIDTH 14 0
BBX 12 18 1 0
BITMAP
0600
0600
0600
0F00
0F00
0F00
1980
1980
1980
30C0
30C0
30C0
6060
6060
6060
C030
FFF0
FFF0
ENDCHAR
STARTCHAR element
ENCODING 8712
SWIDTH 500 0
DWIDTH 14 0
BBX 11 13 1 0
BITMAP
3FE0
7FE0
C000
C000
C000
FF00
FF00
C000
C000
C000
C000
7FE0
3FE0
ENDCHAR
STARTCHAR minus
ENCODING 8722
SWIDTH 500 0
DWIDTH 14 0
BBX 11 2 1 8
BITMAP
FFE0
FFE0
ENDCHAR
STARTCHAR bulletoperator
ENCODING 8729
SWIDTH 500 0
DWIDTH 14 0
BBX 5 5 4 6
BITMAP
70
F8
F8
F8
70
ENDCHAR
STARTCHAR radical
ENCODING 8730
SWIDTH 500 0
DWIDTH 14 0
BBX 12 20 1 0
BITMAP
00F0
00F0
00C0
00C0
00C0
00C0
00C0
00C0
00C0
00C0
C0C0
C0C0
C0C0
E0C0
70C0
38C0
1CC0
0EC0
07C0
03C0
ENDCHAR
STARTCHAR infinity
ENCODING 8734
SWIDTH 500 0
DWIDTH 14 0
BBX 12 10 1 3
BITMAP
39C0
7FE0
C630
C630
C630
C630
C630
C630
7FE0
39C0
ENDCHAR
STARTCHAR orthogonal
ENCODING 8735
SWIDTH 500 0
DWIDTH 14 0
BBX 11 11 1 3
BITMAP
C000
C000
C000
C000
C000
C000
C000
C000
C000
FFE0
FFE0
ENDCHAR
STARTCHAR logicaland
ENCODING 8743
SWIDTH 500 0
DWIDTH 14 0
BBX 12 13 1 0
BITMAP
0600
0600
0F00
0F00
1980
1980
30C0
30C0
30C0
6060
6060
C030
C030
ENDCHAR
STARTCHAR logicalor
ENCODING 8744
SWIDTH 500 0
DWIDTH 14 0
BBX 12 13 1 0
BITMAP
C030
C030
6060
6060
30C0
30C0
30C0
1980
1980
0F00
0F00
0600
0600
ENDCHAR
STARTCHAR intersection
ENCODING 8745
SWIDTH 500 0
DWIDTH 14 0
BBX 11 16 1 0
BITMAP
3F80
7FC0
C060
C060
C060
C060
C060
C060
C060
C060
C060
C060
C060
C060
C060
C060
ENDCHAR
STARTCHAR union
ENCODING 8746
SWIDTH 500 0
DWIDTH 14 0
BBX 11 16 1 0
BITMAP
C060
C060
C060
C060
C060
C060
C060
C060
C060
C060
C060
C060
C060
C060
7FC0
3F80
ENDCHAR
STARTCHAR approxequal
ENCODING 8776
SWIDTH 500 0
DWIDTH 14 0
BBX 12 9 1 4
BITMAP
7C30
FFF0
C3E0
0000
0000
0000
7C30
FFF0
C3E0
ENDCHAR
STARTCHAR notequal
ENCODING 8800
SWIDTH 500 0
DWIDTH 14 0
BBX 12 12 1 3
BITMAP
0070
00E0
FFF0
FFF0
0380
0700
0E00
1C00
FFF0
FFF0
7000
E000
ENDCHAR
STARTCHAR equivalence
ENCODING 8801
SWIDTH 500 0
DWIDTH 14 0
BBX 11 14 1 2
BITMAP
FFE0
FFE0
0000
0000
0000
0000
FFE0
FFE0
0000
0000
0000
0000
FFE0
FFE0
ENDCHAR
STARTCHAR lessequal
ENCODING 8804
SWIDTH 500 0
DWIDTH 14 0
BBX 11 18 1 0
BITMAP
00E0
01C0
0380
0700
0E00
1C00
3800
7000
3800
1C00
0E00
0700
0380
01C0
00E0
0000
FFE0
FFE0
ENDCHAR
STARTCHAR greaterequal
ENCODING 8805
SWIDTH 500 0
DWIDTH 14 0
BBX 11 18 1 0
BITMAP
E000
7000
3800
1C00
0E00
0700
0380
01C0
0380
0700
0E00
1C00
3800
7000
E000
0000
FFE0
FFE0
ENDCHAR
STARTCHAR house
ENCODING 8962
SWIDTH 500 0
DWIDTH 14 0
BBX 11 14 1 1
BITMAP
0400
0E00
0E00
1B00
1B00
3180
3180
60C0
60C0
C060
C060
C060
FFE0
FFE0
ENDCHAR
STARTCHAR revlogicalnot
ENCODING 8976
SWIDTH 500 0
DWIDTH 14 0
BBX 11 7 1 5
BITMAP
FFE0
FFE0
C000
C000
C000
C000
C000
ENDCHAR
STARTCHAR integraltp
ENCODING 8992
SWIDTH 500 0
DWIDTH 14 0
BBX 7 24 6 -6
BITMAP
7C
FE
C6
C6
C0
C0
C0
C0
C0
C0
C0
C0
C0
C0
C0
C0
C0
C0
C0
C0
C0
C0
C0
C0
ENDCHAR
STARTCHAR integralbt
ENCODING 8993
SWIDTH 500 0
DWIDTH 14 0
BBX 7 22 1 0
BITMAP
06
06
06
06
06
06
06
06
06
06
06
06
06
06
06
06
06
06
C6
C6
FE
7C
ENDCHAR
STARTCHAR uni23BA
ENCODING 9146
SWIDTH 500 0
DWIDTH 14 0
BBX 14 2 0 20
BITMAP
FFFC
FFFC
ENDCHAR
STARTCHAR uni23BB
ENCODING 9147
SWIDTH 500 0
DWIDTH 14 0
BBX 14 2 0 13
BITMAP
FFFC
FFFC
ENDCHAR
STARTCHAR uni23BC
ENCODING 9148
SWIDTH 500 0
DWIDTH 14 0
BBX 14 2 0 1
BITMAP
FFFC
FFFC
ENDCHAR
STARTCHAR uni23BD
ENCODING 9149
SWIDTH 500 0
DWIDTH 14 0
BBX 14 2 0 -6
BITMAP
FFFC
FFFC
ENDCHAR
STARTCHAR uni2409
ENCODING 9225
SWIDTH 500 0
DWIDTH 14 0
BBX 12 18 1 0
BITMAP
C600
C600
C600
FE00
FE00
C600
C600
C600
0000
0000
0FF0
0FF0
0180
0180
0180
0180
0180
0180
ENDCHAR
STARTCHAR uni240A
ENCODING 9226
SWIDTH 500 0
DWIDTH 14 0
BBX 12 18 1 0
BITMAP
C000
C000
C000
C000
C000
C000
FE00
FE00
0000
0000
07F0
07F0
0600
07C0
07C0
0600
0600
0600
ENDCHAR
STARTCHAR uni240B
ENCODING 9227
SWIDTH 500 0
DWIDTH 14 0
BBX 12 18 1 0
BITMAP
C600
C600
C600
C600
C600
6C00
3800
1000
0000
0000
0FF0
0FF0
0180
0180
0180
0180
0180
0180
ENDCHAR
STARTCHAR uni240C
ENCODING 9228
SWIDTH 500 0
DWIDTH 14 0
BBX 12 18 1 0
BITMAP
FE00
FE00
C000
F800
F800
C000
C000
C000
0000
0000
07F0
07F0
0600
07C0
07C0
0600
0600
0600
ENDCHAR
STARTCHAR uni240D
ENCODING 9229
SWIDTH 500 0
DWIDTH 14 0
BBX 12 18 1 0
BITMAP
7C00
FE00
C600
C000
C000
C600
FE00
7C00
0000
0000
07E0
07F0
0630
0630
07E0
07C0
0660
0630
ENDCHAR
STARTCHAR uni2424
ENCODING 9252
SWIDTH 500 0
DWIDTH 14 0
BBX 12 18 1 0
BITMAP
C600
C600
E600
F600
DE00
CE00
C600
C600
0000
0000
0600
0600
0600
0600
0600
0600
07F0
07F0
ENDCHAR
STARTCHAR SF100000
ENCODING 9472
SWIDTH 500 0
DWIDTH 14 0
BBX 14 2 0 7
BITMAP
FFFC
FFFC
ENDCHAR
STARTCHAR SF110000
ENCODING 9474
SWIDTH 500 0
DWIDTH 14 0
BBX 2 28 6 -6
BITMAP
C0
C0
C0
C0
C0
C0
C0
C0
C0
C0
C0
C0
C0
C0
C0
C0
C0
C0
C0
C0
C0
C0
C0
C0
C0
C0
C0
C0
ENDCHAR
STARTCHAR SF010000
ENCODING 9484
SWIDTH 500 0
DWIDTH 14 0
BBX 8 15 6 -6
BITMAP
FF
FF
C0
C0
C0
C0
C0
C0
C0
C0
C0
C0
C0
C0
C0
ENDCHAR
STARTCHAR SF030000
ENCODING 9488
SWIDTH 500 0
DWIDTH 14 0
BBX 8 15 0 -6
BITMAP
FF
FF
03
03
03
03
03
03
03
03
03
03
03
03
03
ENDCHAR
STARTCHAR SF020000
ENCODING 9492
SWIDTH 500 0
DWIDTH 14 0
BBX 8 15 6 7
BITMAP
C0
C0
C0
C0
C0
C0
C0
C0
C0
C0
C0
C0
C0
FF
FF
ENDCHAR
STARTCHAR SF040000
ENCODING 9496
SWIDTH 500 0
DWIDTH 14 0
BBX 8 15 0 7
BITMAP
03
03
03
03
03
03
03
03
03
03
03
03
03
FF
FF
ENDCHAR
STARTCHAR SF080000
ENCODING 9500
SWIDTH 500 0
DWIDTH 14 0
BBX 8 28 6 -6
BITMAP
C0
C0
C0
C0
C0
C0
C0
C0
C0
C0
C0
C0
C0
FF
FF
C0
C0
C0
C0
C0
C0
C0
C0
C0
C0
C0
C0
C0
ENDCHAR
STARTCHAR SF090000
ENCODING 9508
SWIDTH 500 0
DWIDTH 14 0
BBX 8 28 0 -6
BITMAP
03
03
03
03
03
03
03
03
03
03
03
03
03
FF
FF
03
03
03
03
03
03
03
03
03
03
03
03
03
ENDCHAR
STARTCHAR SF060000
ENCODING 9516
SWIDTH 500 0
DWIDTH 14 0
BBX 14 15 0 -6
BITMAP
FFFC
FFFC
0300
0300
0300
0300
0300
0300
0300
0300
0300
0300
0300
0300
0300
ENDCHAR
STARTCHAR SF070000
ENCODING 9524
SWIDTH 500 0
DWIDTH 14 0
BBX 14 15 0 7
BITMAP
0300
0300
0300
0300
0300
0300
0300
0300
0300
0300
0300
0300
0300
FFFC
FFFC
ENDCHAR
STARTCHAR SF050000
ENCODING 9532
SWIDTH 500 0
DWIDTH 14 0
BBX 14 28 0 -6
BITMAP
0300
0300
0300
0300
0300
0300
0300
0300
0300
0300
0300
0300
0300
FFFC
FFFC
0300
0300
0300
0300
0300
0300
0300
0300
0300
0300
0300
0300
0300
ENDCHAR
STARTCHAR SF430000
ENCODING 9552
SWIDTH 500 0
DWIDTH 14 0
BBX 14 6 0 5
BITMAP
FFFC
FFFC
0000
0000
FFFC
FFFC
ENDCHAR
STARTCHAR SF240000
ENCODING 9553
SWIDTH 500 0
DWIDTH 14 0
BBX 6 28 4 -6
BITMAP
CC
CC
CC
CC
CC
CC
CC
CC
CC
CC
CC
CC
CC
CC
CC
CC
CC
CC
CC
CC
CC
CC
CC
CC
CC
CC
CC
CC
ENDCHAR
STARTCHAR SF510000
ENCODING 9554
SWIDTH 500 0
DWIDTH 14 0
BBX 8 17 6 -6
BITMAP
FF
FF
C0
C0
FF
FF
C0
C0
C0
C0
C0
C0
C0
C0
C0
C0
C0
ENDCHAR
STARTCHAR SF520000
ENCODING 9555
SWIDTH 500 0
DWIDTH 14 0
BBX 10 15 4 -6
BITMAP
FFC0
FFC0
CC00
CC00
CC00
CC00
CC00
CC00
CC00
CC00
CC00
CC00
CC00
CC00
CC00
ENDCHAR
STARTCHAR SF390000
ENCODING 9556
SWIDTH 500 0
DWIDTH 14 0
BBX 10 17 4 -6
BITMAP
FFC0
FFC0
C000
C000
CFC0
CFC0
CC00
CC00
CC00
CC00
CC00
CC00
CC00
CC00
CC00
CC00
CC00
ENDCHAR
STARTCHAR SF220000
ENCODING 9557
SWIDTH 500 0
DWIDTH 14 0
BBX 8 17 0 -6
BITMAP
FF
FF
03
03
FF
FF
03
03
03
03
03
03
03
03
03
03
03
ENDCHAR
STARTCHAR SF210000
ENCODING 9558
SWIDTH 500 0
DWIDTH 14 0
BBX 10 15 0 -6
BITMAP
FFC0
FFC0
0CC0
0CC0
0CC0
0CC0
0CC0
0CC0
0CC0
0CC0
0CC0
0CC0
0CC0
0CC0
0CC0
ENDCHAR
STARTCHAR SF250000
ENCODING 9559
SWIDTH 500 0
DWIDTH 14 0
BBX 10 17 0 -6
BITMAP
FFC0
FFC0
00C0
00C0
FCC0
FCC0
0CC0
0CC0
0CC0
0CC0
0CC0
0CC0
0CC0
0CC0
0CC0
0CC0
0CC0
ENDCHAR
STARTCHAR SF500000
ENCODING 9560
SWIDTH 500 0
DWIDTH 14 0
BBX 8 17 6 5
BITMAP
C0
C0
C0
C0
C0
C0
C0
C0
C0
C0
C0
FF
FF
C0
C0
FF
FF
ENDCHAR
STARTCHAR SF490000
ENCODING 9561
SWIDTH 500 0
DWIDTH 14 0
BBX 10 15 4 7
BITMAP
CC00
CC00
CC00
CC00
CC00
CC00
CC00
CC00
CC00
CC00
CC00
CC00
CC00
FFC0
FFC0
ENDCHAR
STARTCHAR SF380000
ENCODING 9562
SWIDTH 500 0
DWIDTH 14 0
BBX 10 17 4 5
BITMAP
CC00
CC00
CC00
CC00
CC00
CC00
CC00
CC00
CC00
CC00
CC00
CFC0
CFC0
C000
C000
FFC0
FFC0
ENDCHAR
STARTCHAR SF280000
ENCODING 9563
SWIDTH 500 0
DWIDTH 14 0
BBX 8 17 0 5
BITMAP
03
03
03
03
03
03
03
03
03
03
03
FF
FF
03
03
FF
FF
ENDCHAR
STARTCHAR SF270000
ENCODING 9564
SWIDTH 500 0
DWIDTH 14 0
BBX 10 15 0 7
BITMAP
0CC0
0CC0
0CC0
0CC0
0CC0
0CC0
0CC0
0CC0
0CC0
0CC0
0CC0
0CC0
0CC0
FFC0
FFC0
ENDCHAR
STARTCHAR SF260000
ENCODING 9565
SWIDTH 500 0
DWIDTH 14 0
BBX 10 17 0 5
BITMAP
0CC0
0CC0
0CC0
0CC0
0CC0
0CC0
0CC0
0CC0
0CC0
0CC0
0CC0
FCC0
FCC0
00C0
00C0
FFC0
FFC0
ENDCHAR
STARTCHAR SF360000
ENCODING 9566
SWIDTH 500 0
DWIDTH 14 0
BBX 8 28 6 -6
BITMAP
C0
C0
C0
C0
C0
C0
C0
C0
C0
C0
C0
FF
FF
C0
C0
FF
FF
C0
C0
C0
C0
C0
C0
C0
C0
C0
C0
C0
ENDCHAR
STARTCHAR SF370000
ENCODING 9567
SWIDTH 500 0
DWIDTH 14 0
BBX 14 28 0 -6
BITMAP
0CC0
0CC0
0CC0
0CC0
0CC0
0CC0
0CC0
0CC0
0CC0
0CC0
0CC0
0CC0
0CC0
0CFC
0CFC
0CC0
0CC0
0CC0
0CC0
0CC0
0CC0
0CC0
0CC0
0CC0
0CC0
0CC0
0CC0
0CC0
ENDCHAR
STARTCHAR SF420000
ENCODING 9568
SWIDTH 500 0
DWIDTH 14 0
BBX 14 28 0 -6
BITMAP
0CC0
0CC0
0CC0
0CC0
0CC0
0CC0
0CC0
0CC0
0CC0
0CC0
0CC0
0CFC
0CFC
0C00
0C00
0CFC
0CFC
0CC0
0CC0
0CC0
0CC0
0CC0
0CC0
0CC0
0CC0
0CC0
0CC0
0CC0
ENDCHAR
STARTCHAR SF190000
ENCODING 9569
SWIDTH 500 0
DWIDTH 14 0
BBX 8 28 0 -6
BITMAP
03
03
03
03
03
03
03
03
03
03
03
FF
FF
03
03
FF
FF
03
03
03
03
03
03
03
03
03
03
03
ENDCHAR
STARTCHAR SF200000
ENCODING 9570
SWIDTH 500 0
DWIDTH 14 0
BBX 14 28 0 -6
BITMAP
0CC0
0CC0
0CC0
0CC0
0CC0
0CC0
0CC0
0CC0
0CC0
0CC0
0CC0
0CC0
0CC0
FCC0
FCC0
0CC0
0CC0
0CC0
0CC0
0CC0
0CC0
0CC0
0CC0
0CC0
0CC0
0CC0
0CC0
0CC0
ENDCHAR
STARTCHAR SF230000
ENCODING 9571
SWIDTH 500 0
DWIDTH 14 0
BBX 14 28 0 -6
BITMAP
0CC0
0CC0
0CC0
0CC0
0CC0
0CC0
0CC0
0CC0
0CC0
0CC0
0CC0
FCC0
FCC0
00C0
00C0
FCC0
FCC0
0CC0
0CC0
0CC0
0CC0
0CC0
0CC0
0CC0
0CC0
0CC0
0CC0
0CC0
ENDCHAR
STARTCHAR SF470000
ENCODING 9572
SWIDTH 500 0
DWIDTH 14 0
BBX 14 17 0 -6
BITMAP
FFFC
FFFC
0000
0000
FFFC
FFFC
0300
0300
0300
0300
0300
0300
0300
0300
0300
0300
0300
ENDCHAR
STARTCHAR SF480000
ENCODING 9573
SWIDTH 500 0
DWIDTH 14 0
BBX 14 15 0 -6
BITMAP
FFFC
FFFC
0CC0
0CC0
0CC0
0CC0
0CC0
0CC0
0CC0
0CC0
0CC0
0CC0
0CC0
0CC0
0CC0
ENDCHAR
STARTCHAR SF410000
ENCODING 9574
SWIDTH 500 0
DWIDTH 14 0
BBX 14 17 0 -6
BITMAP
FFFC
FFFC
0000
0000
FCFC
FCFC
0CC0
0CC0
0CC0
0CC0
0CC0
0CC0
0CC0
0CC0
0CC0
0CC0
0CC0
ENDCHAR
STARTCHAR SF450000
ENCODING 9575
SWIDTH 500 0
DWIDTH 14 0
BBX 14 17 0 5
BITMAP
0300
0300
0300
0300
0300
0300
0300
0300
0300
0300
0300
FFFC
FFFC
0000
0000
FFFC
FFFC
ENDCHAR
STARTCHAR SF460000
ENCODING 9576
SWIDTH 500 0
DWIDTH 14 0
BBX 14 15 0 7
BITMAP
0CC0
0CC0
0CC0
0CC0
0CC0
0CC0
0CC0
0CC0
0CC0
0CC0
0CC0
0CC0
0CC0
FFFC
FFFC
ENDCHAR
STARTCHAR SF400000
ENCODING 9577
SWIDTH 500 0
DWIDTH 14 0
BBX 14 17 0 5
BITMAP
0CC0
0CC0
0CC0
0CC0
0CC0
0CC0
0CC0
0CC0
0CC0
0CC0
0CC0
FCFC
FCFC
0000
0000
FFFC
FFFC
ENDCHAR
STARTCHAR SF540000
ENCODING 9578
SWIDTH 500 0
DWIDTH 14 0
BBX 14 28 0 -6
BITMAP
0300
0300
0300
0300
0300
0300
0300
0300
0300
0300
0300
FFFC
FFFC
0300
0300
FFFC
FFFC
0300
0300
0300
0300
0300
0300
0300
0300
0300
0300
0300
ENDCHAR
STARTCHAR SF530000
ENCODING 9579
SWIDTH 500 0
DWIDTH 14 0
BBX 14 28 0 -6
BITMAP
0CC0
0CC0
0CC0
0CC0
0CC0
0CC0
0CC0
0CC0
0CC0
0CC0
0CC0
0CC0
0CC0
FFFC
FFFC
0CC0
0CC0
0CC0
0CC0
0CC0
0CC0
0CC0
0CC0
0CC0
0CC0
0CC0
0CC0
0CC0
ENDCHAR
STARTCHAR SF440000
ENCODING 9580
SWIDTH 500 0
DWIDTH 14 0
BBX 14 28 0 -6
BITMAP
0CC0
0CC0
0CC0
0CC0
0CC0
0CC0
0CC0
0CC0
0CC0
0CC0
0CC0
FCFC
FCFC
0000
0000
FCFC
FCFC
0CC0
0CC0
0CC0
0CC0
0CC0
0CC0
0CC0
0CC0
0CC0
0CC0
0CC0
ENDCHAR
STARTCHAR upblock
ENCODING 9600
SWIDTH 500 0
DWIDTH 14 0
BBX 14 14 0 8
BITMAP
FFFC
FFFC
FFFC
FFFC
FFFC
FFFC
FFFC
FFFC
FFFC
FFFC
FFFC
FFFC
FFFC
FFFC
ENDCHAR
STARTCHAR dnblock
ENCODING 9604
SWIDTH 500 0
DWIDTH 14 0
BBX 14 14 0 -6
BITMAP
FFFC
FFFC
FFFC
FFFC
FFFC
FFFC
FFFC
FFFC
FFFC
FFFC
FFFC
FFFC
FFFC
FFFC
ENDCHAR
STARTCHAR block
ENCODING 9608
SWIDTH 500 0
DWIDTH 14 0
BBX 14 28 0 -6
BITMAP
FFFC
FFFC
FFFC
FFFC
FFFC
FFFC
FFFC
FFFC
FFFC
FFFC
FFFC
FFFC
FFFC
FFFC
FFFC
FFFC
FFFC
FFFC
FFFC
FFFC
FFFC
FFFC
FFFC
FFFC
FFFC
FFFC
FFFC
FFFC
ENDCHAR
STARTCHAR lfblock
ENCODING 9612
SWIDTH 500 0
DWIDTH 14 0
BBX 7 28 0 -6
BITMAP
FE
FE
FE
FE
FE
FE
FE
FE
FE
FE
FE
FE
FE
FE
FE
FE
FE
FE
FE
FE
FE
FE
FE
FE
FE
FE
FE
FE
ENDCHAR
STARTCHAR rtblock
ENCODING 9616
SWIDTH 500 0
DWIDTH 14 0
BBX 7 28 7 -6
BITMAP
FE
FE
FE
FE
FE
FE
FE
FE
FE
FE
FE
FE
FE
FE
FE
FE
FE
FE
FE
FE
FE
FE
FE
FE
FE
FE
FE
FE
ENDCHAR
STARTCHAR ltshade
ENCODING 9617
SWIDTH 500 0
DWIDTH 14 0
BBX 13 27 0 -5
BITMAP
AAA8
0000
AAA8
0000
AAA8
0000
AAA8
0000
AAA8
0000
AAA8
0000
AAA8
0000
AAA8
0000
AAA8
0000
AAA8
0000
AAA8
0000
AAA8
0000
AAA8
0000
AAA8
ENDCHAR
STARTCHAR shade
ENCODING 9618
SWIDTH 500 0
DWIDTH 14 0
BBX 14 28 0 -6
BITMAP
AAA8
5554
AAA8
5554
AAA8
5554
AAA8
5554
AAA8
5554
AAA8
5554
AAA8
5554
AAA8
5554
AAA8
5554
AAA8
5554
AAA8
5554
AAA8
5554
AAA8
5554
AAA8
5554
ENDCHAR
STARTCHAR dkshade
ENCODING 9619
SWIDTH 500 0
DWIDTH 14 0
BBX 14 28 0 -6
BITMAP
FFFC
AAA8
FFFC
AAA8
FFFC
AAA8
FFFC
AAA8
FFFC
AAA8
FFFC
AAA8
FFFC
AAA8
FFFC
AAA8
FFFC
AAA8
FFFC
AAA8
FFFC
AAA8
FFFC
AAA8
FFFC
AAA8
FFFC
AAA8
ENDCHAR
STARTCHAR filledbox
ENCODING 9632
SWIDTH 500 0
DWIDTH 14 0
BBX 9 12 2 2
BITMAP
FF80
FF80
FF80
FF80
FF80
FF80
FF80
FF80
FF80
FF80
FF80
FF80
ENDCHAR
STARTCHAR filledrect
ENCODING 9644
SWIDTH 500 0
DWIDTH 14 0
BBX 12 7 1 0
BITMAP
FFF0
FFF0
FFF0
FFF0
FFF0
FFF0
FFF0
ENDCHAR
STARTCHAR uni25AE
ENCODING 9646
SWIDTH 500 0
DWIDTH 14 0
BBX 11 18 1 0
BITMAP
FFE0
FFE0
FFE0
FFE0
FFE0
FFE0
FFE0
FFE0
FFE0
FFE0
FFE0
FFE0
FFE0
FFE0
FFE0
FFE0
FFE0
FFE0
ENDCHAR
STARTCHAR triagup
ENCODING 9650
SWIDTH 500 0
DWIDTH 14 0
BBX 14 14 0 2
BITMAP
0300
0300
0780
0780
0FC0
0FC0
1FE0
1FE0
3FF0
3FF0
7FF8
7FF8
FFFC
FFFC
ENDCHAR
STARTCHAR uni25B6
ENCODING 9654
SWIDTH 500 0
DWIDTH 14 0
BBX 10 20 2 -1
BITMAP
8000
C000
E000
F000
F800
FC00
FE00
FF00
FF80
FFC0
FFC0
FF80
FF00
FE00
FC00
F800
F000
E000
C000
8000
ENDCHAR
STARTCHAR triagdn
ENCODING 9660
SWIDTH 500 0
DWIDTH 14 0
BBX 14 14 0 2
BITMAP
FFFC
FFFC
7FF8
7FF8
3FF0
3FF0
1FE0
1FE0
0FC0
0FC0
0780
0780
0300
0300
ENDCHAR
STARTCHAR uni25C0
ENCODING 9664
SWIDTH 500 0
DWIDTH 14 0
BBX 10 20 2 -1
BITMAP
0040
00C0
01C0
03C0
07C0
0FC0
1FC0
3FC0
7FC0
FFC0
FFC0
7FC0
3FC0
1FC0
0FC0
07C0
03C0
01C0
00C0
0040
ENDCHAR
STARTCHAR blackdiamond
ENCODING 9670
SWIDTH 500 0
DWIDTH 14 0
BBX 13 14 0 1
BITMAP
0200
0700
0F80
1FC0
3FE0
7FF0
FFF8
FFF8
7FF0
3FE0
1FC0
0F80
0700
0200
ENDCHAR
STARTCHAR lozenge
ENCODING 9674
SWIDTH 500 0
DWIDTH 14 0
BBX 13 14 0 1
BITMAP
0200
0700
0F80
1DC0
38E0
7070
E038
E038
7070
38E0
1DC0
0F80
0700
0200
ENDCHAR
STARTCHAR circle
ENCODING 9675
SWIDTH 500 0
DWIDTH 14 0
BBX 6 6 4 5
BITMAP
78
FC
CC
CC
FC
78
ENDCHAR
STARTCHAR invbullet
ENCODING 9688
SWIDTH 500 0
DWIDTH 14 0
BBX 14 28 0 -6
BITMAP
FFFC
FFFC
FFFC
FFFC
FFFC
FFFC
FFFC
FFFC
FFFC
FFFC
FFFC
F87C
F03C
F03C
F03C
F03C
F87C
FFFC
FFFC
FFFC
FFFC
FFFC
FFFC
FFFC
FFFC
FFFC
FFFC
FFFC
ENDCHAR
STARTCHAR invcircle
ENCODING 9689
SWIDTH 500 0
DWIDTH 14 0
BBX 14 28 0 -6
BITMAP
FFFC
FFFC
FFFC
FFFC
FFFC
FFFC
FFFC
FFFC
FFFC
FFFC
FFFC
F87C
F03C
F33C
F33C
F03C
F87C
FFFC
FFFC
FFFC
FFFC
FFFC
FFFC
FFFC
FFFC
FFFC
FFFC
FFFC
ENDCHAR
STARTCHAR smileface
ENCODING 9786
SWIDTH 500 0
DWIDTH 14 0
BBX 13 18 0 0
BITMAP
3FE0
7FF0
C018
C018
C018
DDD8
DDD8
C018
C018
C018
C018
DFD8
CF98
C018
C018
C018
7FF0
3FE0
ENDCHAR
STARTCHAR invsmileface
ENCODING 9787
SWIDTH 500 0
DWIDTH 14 0
BBX 13 18 0 0
BITMAP
3FE0
7FF0
FFF8
FFF8
FFF8
C718
C718
FFF8
FFF8
FFF8
FFF8
C018
E038
FFF8
FFF8
FFF8
7FF0
3FE0
ENDCHAR
STARTCHAR sun
ENCODING 9788
SWIDTH 500 0
DWIDTH 14 0
BBX 12 18 1 0
BITMAP
0600
0600
0600
C630
E670
76E0
3FC0
1F80
F9F0
F9F0
1F80
3FC0
76E0
E670
C630
0600
0600
0600
ENDCHAR
STARTCHAR female
ENCODING 9792
SWIDTH 500 0
DWIDTH 14 0
BBX 12 18 1 0
BITMAP
3FC0
7FE0
C030
C030
C030
C030
C030
C030
7FE0
3FC0
0600
0600
0600
FFF0
FFF0
0600
0600
0600
ENDCHAR
STARTCHAR male
ENCODING 9794
SWIDTH 500 0
DWIDTH 14 0
BBX 11 18 1 0
BITMAP
07E0
07E0
01E0
03E0
0760
0E60
1C00
3F80
7FC0
C060
C060
C060
C060
C060
C060
C060
7FC0
3F80
ENDCHAR
STARTCHAR spade
ENCODING 9824
SWIDTH 500 0
DWIDTH 14 0
BBX 12 18 1 0
BITMAP
0600
0600
0F00
1F80
3FC0
7FE0
7FE0
FFF0
FFF0
FFF0
FFF0
FFF0
F6F0
76E0
0600
0600
1F80
1F80
ENDCHAR
STARTCHAR club
ENCODING 9827
SWIDTH 500 0
DWIDTH 14 0
BBX 12 18 1 0
BITMAP
0F00
1F80
1F80
1F80
1F80
0F00
0600
76E0
FFF0
FFF0
FFF0
FFF0
FFF0
76E0
0600
0600
1F80
1F80
ENDCHAR
STARTCHAR heart
ENCODING 9829
SWIDTH 500 0
DWIDTH 14 0
BBX 13 14 0 1
BITMAP
78F0
FDF8
FDF8
FFF8
FFF8
FFF8
FFF8
7FF0
7FF0
3FE0
1FC0
0F80
0700
0200
ENDCHAR
STARTCHAR diamond
ENCODING 9830
SWIDTH 500 0
DWIDTH 14 0
BBX 13 14 0 1
BITMAP
0200
0700
0F80
1FC0
3FE0
7FF0
FFF8
FFF8
7FF0
3FE0
1FC0
0F80
0700
0200
ENDCHAR
STARTCHAR musicalnote
ENCODING 9834
SWIDTH 500 0
DWIDTH 14 0
BBX 12 18 0 0
BITMAP
3FF0
3FF0
3030
3030
3030
3FF0
3FF0
3000
3000
3000
3000
3000
3000
3000
3000
3000
F000
E000
ENDCHAR
STARTCHAR musicalnotedbl
ENCODING 9835
SWIDTH 500 0
DWIDTH 14 0
BBX 13 18 0 0
BITMAP
7FF8
7FF8
6018
6018
6018
7FF8
7FF8
6018
6018
6018
6018
6018
6018
6018
6018
6018
6030
C000
ENDCHAR
STARTCHAR dotlessj
ENCODING 63166
SWIDTH 500 0
DWIDTH 14 0
BBX 9 18 2 -5
BITMAP
0780
0780
0180
0180
0180
0180
0180
0180
0180
0180
0180
0180
0180
0180
C180
C180
FF80
FF80
ENDCHAR
STARTCHAR uniFFFD
ENCODING 65533
SWIDTH 500 0
DWIDTH 14 0
BBX 11 18 1 0
BITMAP
FFE0
FFE0
C060
C060
C060
C060
C060
C060
C060
C060
C060
C060
C060
C060
C060
C060
FFE0
FFE0
ENDCHAR
ENDFONT
